Workaround Round Italic.ufo
<glyph name="Exclamation_Mark" format="1">
  <advance width="417"/>
  <unicode hex="0021"/>
  <outline>
    <contour>
      <point x="1" y="74" type="curve" smooth="yes"/>
      <point x="-5" y="30"/>
      <point x="28" y="-5"/>
      <point x="75" y="-5" type="curve" smooth="yes"/>
      <point x="122" y="-5"/>
      <point x="165" y="30"/>
      <point x="171" y="74" type="curve" smooth="yes"/>
      <point x="176" y="117"/>
      <point x="143" y="153"/>
      <point x="96" y="153" type="curve" smooth="yes"/>
      <point x="49" y="153"/>
      <point x="6" y="117"/>
    </contour>
    <contour>
      <point x="281" y="926" type="line" smooth="yes"/>
      <point x="287" y="970"/>
      <point x="254" y="1005"/>
      <point x="207" y="1005" type="curve" smooth="yes"/>
      <point x="160" y="1005"/>
      <point x="117" y="970"/>
      <point x="111" y="926" type="curve" smooth="yes"/>
      <point x="39" y="371" type="line" smooth="yes"/>
      <point x="34" y="328"/>
      <point x="67" y="293"/>
      <point x="114" y="293" type="curve" smooth="yes"/>
      <point x="161" y="293"/>
      <point x="204" y="328"/>
      <point x="209" y="371" type="curve" smooth="yes"/>
    </contour>
  </outline>
</glyph>
<glyph name="exclam" format="1">
  <advance width="429"/>
  <unicode hex="0021"/>
  <outline>
    <contour>
      <point x="185" y="95" type="line" smooth="yes"/>
      <point x="191" y="139"/>
      <point x="155" y="174"/>
      <point x="105" y="174" type="curve" smooth="yes"/>
      <point x="54" y="174"/>
      <point x="9" y="139"/>
      <point x="3" y="95" type="curve" smooth="yes"/>
      <point x="1" y="74" type="line" smooth="yes"/>
      <point x="-5" y="30"/>
      <point x="31" y="-5"/>
      <point x="81" y="-5" type="curve" smooth="yes"/>
      <point x="132" y="-5"/>
      <point x="177" y="30"/>
      <point x="182" y="74" type="curve" smooth="yes"/>
    </contour>
    <contour>
      <point x="293" y="926" type="line" smooth="yes"/>
      <point x="299" y="970"/>
      <point x="263" y="1005"/>
      <point x="213" y="1005" type="curve" smooth="yes"/>
      <point x="162" y="1005"/>
      <point x="117" y="970"/>
      <point x="111" y="926" type="curve" smooth="yes"/>
      <point x="51" y="372" type="line" smooth="yes"/>
      <point x="46" y="334"/>
      <point x="78" y="304"/>
      <point x="121" y="304" type="curve" smooth="yes"/>
      <point x="165" y="304"/>
      <point x="204" y="334"/>
      <point x="209" y="372" type="curve" smooth="yes"/>
    </contour>
  </outline>
</glyph>
<glyph name="quotedbl" format="1">
  <advance width="570"/>
  <unicode hex="0022"/>
  <outline>
    <contour>
      <point x="169" y="923" type="line" smooth="yes"/>
      <point x="177" y="952"/>
      <point x="165" y="978"/>
      <point x="139" y="993" type="curve" smooth="yes"/>
      <point x="113" y="1009"/>
      <point x="79" y="1009"/>
      <point x="48" y="993" type="curve" smooth="yes"/>
      <point x="18" y="978"/>
      <point x="0" y="952"/>
      <point x="0" y="923" type="curve" smooth="yes"/>
      <point x="1" y="726" type="line" smooth="yes"/>
      <point x="2" y="700"/>
      <point x="24" y="682"/>
      <point x="53" y="682" type="curve" smooth="yes"/>
      <point x="83" y="682"/>
      <point x="109" y="700"/>
      <point x="116" y="726" type="curve" smooth="yes"/>
    </contour>
    <contour>
      <point x="432" y="923" type="line" smooth="yes"/>
      <point x="440" y="952"/>
      <point x="429" y="978"/>
      <point x="402" y="993" type="curve" smooth="yes"/>
      <point x="376" y="1009"/>
      <point x="342" y="1009"/>
      <point x="312" y="993" type="curve" smooth="yes"/>
      <point x="281" y="978"/>
      <point x="263" y="952"/>
      <point x="264" y="923" type="curve" smooth="yes"/>
      <point x="265" y="726" type="line" smooth="yes"/>
      <point x="265" y="700"/>
      <point x="287" y="682"/>
      <point x="317" y="682" type="curve" smooth="yes"/>
      <point x="346" y="682"/>
      <point x="373" y="700"/>
      <point x="380" y="726" type="curve" smooth="yes"/>
    </contour>
  </outline>
</glyph>
<glyph name="numbersign" format="1">
  <advance width="1126"/>
  <unicode hex="0023"/>
  <outline>
    <contour>
      <point x="629" y="621" type="line"/>
      <point x="549" y="379" type="line"/>
      <point x="362" y="379" type="line"/>
      <point x="442" y="621" type="line"/>
    </contour>
    <contour>
      <point x="799" y="621" type="line"/>
      <point x="881" y="621" type="line" smooth="yes"/>
      <point x="925" y="621"/>
      <point x="972" y="657"/>
      <point x="986" y="700" type="curve" smooth="yes"/>
      <point x="1000" y="743"/>
      <point x="977" y="779"/>
      <point x="933" y="779" type="curve" smooth="yes"/>
      <point x="851" y="779" type="line"/>
      <point x="901" y="931" type="line" smooth="yes"/>
      <point x="914" y="972"/>
      <point x="887" y="1005"/>
      <point x="840" y="1005" type="curve" smooth="yes"/>
      <point x="793" y="1005"/>
      <point x="744" y="972"/>
      <point x="731" y="931" type="curve" smooth="yes"/>
      <point x="681" y="779" type="line"/>
      <point x="494" y="779" type="line"/>
      <point x="544" y="931" type="line" smooth="yes"/>
      <point x="557" y="972"/>
      <point x="530" y="1005"/>
      <point x="483" y="1005" type="curve" smooth="yes"/>
      <point x="436" y="1005"/>
      <point x="387" y="972"/>
      <point x="374" y="931" type="curve" smooth="yes"/>
      <point x="324" y="779" type="line"/>
      <point x="241" y="779" type="line" smooth="yes"/>
      <point x="198" y="779"/>
      <point x="150" y="743"/>
      <point x="136" y="700" type="curve" smooth="yes"/>
      <point x="122" y="657"/>
      <point x="146" y="621"/>
      <point x="189" y="621" type="curve" smooth="yes"/>
      <point x="272" y="621" type="line"/>
      <point x="192" y="379" type="line"/>
      <point x="109" y="379" type="line" smooth="yes"/>
      <point x="66" y="379"/>
      <point x="18" y="343"/>
      <point x="4" y="300" type="curve" smooth="yes"/>
      <point x="-10" y="257"/>
      <point x="14" y="221"/>
      <point x="57" y="221" type="curve" smooth="yes"/>
      <point x="140" y="221" type="line"/>
      <point x="89" y="69" type="line" smooth="yes"/>
      <point x="76" y="28"/>
      <point x="103" y="-5"/>
      <point x="150" y="-5" type="curve" smooth="yes"/>
      <point x="197" y="-5"/>
      <point x="246" y="28"/>
      <point x="259" y="69" type="curve" smooth="yes"/>
      <point x="310" y="221" type="line"/>
      <point x="497" y="221" type="line"/>
      <point x="446" y="69" type="line" smooth="yes"/>
      <point x="433" y="28"/>
      <point x="460" y="-5"/>
      <point x="507" y="-5" type="curve" smooth="yes"/>
      <point x="554" y="-5"/>
      <point x="603" y="28"/>
      <point x="616" y="69" type="curve" smooth="yes"/>
      <point x="667" y="221" type="line"/>
      <point x="749" y="221" type="line" smooth="yes"/>
      <point x="793" y="221"/>
      <point x="840" y="257"/>
      <point x="854" y="300" type="curve" smooth="yes"/>
      <point x="868" y="343"/>
      <point x="845" y="379"/>
      <point x="801" y="379" type="curve" smooth="yes"/>
      <point x="719" y="379" type="line"/>
    </contour>
  </outline>
</glyph>
<glyph name="dollar" format="1">
  <advance width="823"/>
  <unicode hex="0024"/>
  <outline>
    <contour>
      <point x="370" y="4" type="line"/>
      <point x="532" y="37"/>
      <point x="666" y="161"/>
      <point x="686" y="310" type="curve" smooth="yes"/>
      <point x="706" y="468"/>
      <point x="589" y="552"/>
      <point x="448" y="606" type="curve"/>
      <point x="478" y="839" type="line"/>
      <point x="498" y="834"/>
      <point x="515" y="826"/>
      <point x="531" y="815" type="curve"/>
      <point x="556" y="785"/>
      <point x="605" y="785"/>
      <point x="641" y="815" type="curve" smooth="yes"/>
      <point x="678" y="846"/>
      <point x="688" y="895"/>
      <point x="665" y="926" type="curve"/>
      <point x="619" y="965"/>
      <point x="564" y="990"/>
      <point x="499" y="1000" type="curve"/>
      <point x="507" y="1060" type="line" smooth="yes"/>
      <point x="511" y="1088"/>
      <point x="487" y="1111"/>
      <point x="454" y="1111" type="curve" smooth="yes"/>
      <point x="421" y="1111"/>
      <point x="392" y="1088"/>
      <point x="388" y="1060" type="curve" smooth="yes"/>
      <point x="380" y="1001" type="line"/>
      <point x="232" y="981"/>
      <point x="106" y="870"/>
      <point x="88" y="736" type="curve" smooth="yes"/>
      <point x="70" y="597"/>
      <point x="187" y="526"/>
      <point x="312" y="480" type="curve"/>
      <point x="270" y="154" type="line"/>
      <point x="221" y="159"/>
      <point x="180" y="173"/>
      <point x="146" y="198" type="curve"/>
      <point x="122" y="228"/>
      <point x="72" y="228"/>
      <point x="36" y="198" type="curve" smooth="yes"/>
      <point x="-1" y="168"/>
      <point x="-11" y="119"/>
      <point x="13" y="88" type="curve"/>
      <point x="75" y="32"/>
      <point x="154" y="2"/>
      <point x="250" y="-4" type="curve"/>
      <point x="242" y="-60" type="line" smooth="yes"/>
      <point x="239" y="-88"/>
      <point x="262" y="-111"/>
      <point x="295" y="-111" type="curve" smooth="yes"/>
      <point x="328" y="-111"/>
      <point x="358" y="-88"/>
      <point x="361" y="-60" type="curve" smooth="yes"/>
    </contour>
    <contour>
      <point x="359" y="839" type="curve"/>
      <point x="334" y="649" type="line"/>
      <point x="294" y="670"/>
      <point x="258" y="697"/>
      <point x="263" y="736" type="curve" smooth="yes"/>
      <point x="268" y="783"/>
      <point x="308" y="823"/>
    </contour>
    <contour>
      <point x="391" y="170" type="curve"/>
      <point x="425" y="433" type="line"/>
      <point x="476" y="405"/>
      <point x="517" y="365"/>
      <point x="510" y="310" type="curve" smooth="yes"/>
      <point x="502" y="249"/>
      <point x="454" y="196"/>
    </contour>
  </outline>
</glyph>
<glyph name="percent" format="1">
  <advance width="979"/>
  <unicode hex="0025"/>
  <outline>
    <contour>
      <point x="150" y="803" type="curve" smooth="yes"/>
      <point x="155" y="845"/>
      <point x="195" y="879"/>
      <point x="239" y="879" type="curve" smooth="yes"/>
      <point x="282" y="879"/>
      <point x="313" y="845"/>
      <point x="308" y="803" type="curve" smooth="yes"/>
      <point x="303" y="762"/>
      <point x="263" y="728"/>
      <point x="219" y="728" type="curve" smooth="yes"/>
      <point x="175" y="728"/>
      <point x="144" y="762"/>
    </contour>
    <contour>
      <point x="11" y="803" type="curve" smooth="yes"/>
      <point x="-3" y="692"/>
      <point x="82" y="602"/>
      <point x="203" y="602" type="curve" smooth="yes"/>
      <point x="323" y="602"/>
      <point x="432" y="692"/>
      <point x="446" y="803" type="curve" smooth="yes"/>
      <point x="461" y="915"/>
      <point x="375" y="1005"/>
      <point x="255" y="1005" type="curve" smooth="yes"/>
      <point x="135" y="1005"/>
      <point x="26" y="915"/>
    </contour>
    <contour>
      <point x="536" y="197" type="curve" smooth="yes"/>
      <point x="541" y="238"/>
      <point x="581" y="272"/>
      <point x="625" y="272" type="curve" smooth="yes"/>
      <point x="668" y="272"/>
      <point x="699" y="238"/>
      <point x="694" y="197" type="curve" smooth="yes"/>
      <point x="688" y="155"/>
      <point x="649" y="121"/>
      <point x="605" y="121" type="curve" smooth="yes"/>
      <point x="561" y="121"/>
      <point x="530" y="155"/>
    </contour>
    <contour>
      <point x="397" y="197" type="curve" smooth="yes"/>
      <point x="383" y="85"/>
      <point x="468" y="-5"/>
      <point x="589" y="-5" type="curve" smooth="yes"/>
      <point x="709" y="-5"/>
      <point x="818" y="85"/>
      <point x="832" y="197" type="curve" smooth="yes"/>
      <point x="847" y="308"/>
      <point x="761" y="398"/>
      <point x="641" y="398" type="curve" smooth="yes"/>
      <point x="521" y="398"/>
      <point x="412" y="308"/>
    </contour>
    <contour>
      <point x="830" y="914" type="line" smooth="yes"/>
      <point x="844" y="932"/>
      <point x="848" y="954"/>
      <point x="839" y="975" type="curve" smooth="yes"/>
      <point x="831" y="995"/>
      <point x="813" y="1008"/>
      <point x="790" y="1011" type="curve" smooth="yes"/>
      <point x="767" y="1013"/>
      <point x="745" y="1004"/>
      <point x="731" y="986" type="curve" smooth="yes"/>
      <point x="14" y="86" type="line" smooth="yes"/>
      <point x="-8" y="59"/>
      <point x="-3" y="21"/>
      <point x="24" y="1" type="curve" smooth="yes"/>
      <point x="51" y="-19"/>
      <point x="91" y="-13"/>
      <point x="113" y="14" type="curve" smooth="yes"/>
    </contour>
  </outline>
</glyph>
<glyph name="ampersand" format="1">
  <advance width="936"/>
  <unicode hex="0026"/>
  <outline>
    <contour>
      <point x="331" y="611" type="curve"/>
      <point x="318" y="630"/>
      <point x="305" y="650"/>
      <point x="292" y="670" type="curve" smooth="yes"/>
      <point x="279" y="690"/>
      <point x="275" y="711"/>
      <point x="278" y="736" type="curve" smooth="yes"/>
      <point x="286" y="797"/>
      <point x="345" y="847"/>
      <point x="409" y="847" type="curve" smooth="yes"/>
      <point x="472" y="847"/>
      <point x="518" y="797"/>
      <point x="510" y="736" type="curve" smooth="yes"/>
      <point x="499" y="654"/>
      <point x="392" y="640"/>
      <point x="342" y="616" type="curve"/>
      <point x="339" y="614"/>
      <point x="335" y="613"/>
    </contour>
    <contour>
      <point x="575" y="334" type="curve"/>
      <point x="523" y="384"/>
      <point x="473" y="435"/>
      <point x="426" y="489" type="curve"/>
      <point x="531" y="538"/>
      <point x="662" y="601"/>
      <point x="680" y="736" type="curve" smooth="yes"/>
      <point x="699" y="884"/>
      <point x="587" y="1005"/>
      <point x="429" y="1005" type="curve" smooth="yes"/>
      <point x="271" y="1005"/>
      <point x="128" y="884"/>
      <point x="108" y="736" type="curve" smooth="yes"/>
      <point x="101" y="676"/>
      <point x="111" y="626"/>
      <point x="142" y="578" type="curve" smooth="yes"/>
      <point x="152" y="562"/>
      <point x="163" y="547"/>
      <point x="173" y="532" type="curve"/>
      <point x="89" y="482"/>
      <point x="16" y="415"/>
      <point x="2" y="310" type="curve" smooth="yes"/>
      <point x="-20" y="136"/>
      <point x="112" y="-5"/>
      <point x="298" y="-5" type="curve" smooth="yes"/>
      <point x="394" y="-5"/>
      <point x="488" y="33"/>
      <point x="572" y="103" type="curve"/>
      <point x="602" y="75"/>
      <point x="632" y="47"/>
      <point x="662" y="17" type="curve" smooth="yes"/>
      <point x="691" y="-10"/>
      <point x="740" y="-4"/>
      <point x="773" y="29" type="curve" smooth="yes"/>
      <point x="806" y="63"/>
      <point x="810" y="112"/>
      <point x="782" y="139" type="curve" smooth="yes"/>
      <point x="750" y="170"/>
      <point x="718" y="199"/>
      <point x="687" y="229" type="curve"/>
      <point x="721" y="276"/>
      <point x="752" y="329"/>
      <point x="779" y="389" type="curve"/>
      <point x="800" y="426"/>
      <point x="785" y="471"/>
      <point x="745" y="489" type="curve" smooth="yes"/>
      <point x="706" y="508"/>
      <point x="657" y="492"/>
      <point x="635" y="455" type="curve"/>
      <point x="617" y="410"/>
      <point x="597" y="370"/>
    </contour>
    <contour>
      <point x="259" y="419" type="curve"/>
      <point x="323" y="342"/>
      <point x="391" y="274"/>
      <point x="462" y="206" type="curve"/>
      <point x="416" y="171"/>
      <point x="368" y="153"/>
      <point x="318" y="153" type="curve" smooth="yes"/>
      <point x="226" y="153"/>
      <point x="161" y="223"/>
      <point x="172" y="310" type="curve" smooth="yes"/>
      <point x="179" y="363"/>
      <point x="216" y="396"/>
    </contour>
  </outline>
</glyph>
<glyph name="quotesingle" format="1">
  <advance width="307"/>
  <unicode hex="0027"/>
  <outline>
    <contour>
      <point x="169" y="923" type="line" smooth="yes"/>
      <point x="177" y="952"/>
      <point x="165" y="978"/>
      <point x="139" y="993" type="curve" smooth="yes"/>
      <point x="113" y="1009"/>
      <point x="79" y="1009"/>
      <point x="48" y="993" type="curve" smooth="yes"/>
      <point x="18" y="978"/>
      <point x="0" y="952"/>
      <point x="0" y="923" type="curve" smooth="yes"/>
      <point x="1" y="726" type="line" smooth="yes"/>
      <point x="2" y="700"/>
      <point x="24" y="682"/>
      <point x="53" y="682" type="curve" smooth="yes"/>
      <point x="83" y="682"/>
      <point x="109" y="700"/>
      <point x="116" y="726" type="curve" smooth="yes"/>
    </contour>
  </outline>
</glyph>
<glyph name="parenleft" format="1">
  <advance width="506"/>
  <unicode hex="0028"/>
  <outline>
    <contour>
      <point x="363" y="971" type="curve" smooth="yes"/>
      <point x="382" y="1009"/>
      <point x="365" y="1053"/>
      <point x="324" y="1069" type="curve" smooth="yes"/>
      <point x="283" y="1085"/>
      <point x="235" y="1067"/>
      <point x="215" y="1029" type="curve" smooth="yes"/>
      <point x="1" y="606"/>
      <point x="-53" y="194"/>
      <point x="52" y="-229" type="curve" smooth="yes"/>
      <point x="61" y="-267"/>
      <point x="105" y="-285"/>
      <point x="150" y="-269" type="curve" smooth="yes"/>
      <point x="195" y="-253"/>
      <point x="224" y="-209"/>
      <point x="214" y="-171" type="curve" smooth="yes"/>
      <point x="119" y="213"/>
      <point x="168" y="587"/>
    </contour>
  </outline>
</glyph>
<glyph name="parenright" format="1">
  <advance width="506"/>
  <unicode hex="0029"/>
  <outline>
    <contour>
      <point x="156" y="971" type="curve" smooth="yes"/>
      <point x="251" y="587"/>
      <point x="203" y="213"/>
      <point x="8" y="-171" type="curve" smooth="yes"/>
      <point x="-11" y="-209"/>
      <point x="6" y="-253"/>
      <point x="46" y="-269" type="curve" smooth="yes"/>
      <point x="87" y="-285"/>
      <point x="136" y="-267"/>
      <point x="155" y="-229" type="curve" smooth="yes"/>
      <point x="370" y="194"/>
      <point x="423" y="606"/>
      <point x="319" y="1029" type="curve" smooth="yes"/>
      <point x="309" y="1067"/>
      <point x="265" y="1085"/>
      <point x="220" y="1069" type="curve" smooth="yes"/>
      <point x="176" y="1053"/>
      <point x="147" y="1009"/>
    </contour>
  </outline>
</glyph>
<glyph name="asterisk" format="1">
  <advance width="624"/>
  <unicode hex="002A"/>
  <outline>
    <contour>
      <point x="334" y="975" type="line"/>
      <point x="338" y="1005"/>
      <point x="313" y="1030"/>
      <point x="277" y="1030" type="curve" smooth="yes"/>
      <point x="242" y="1030"/>
      <point x="210" y="1005"/>
      <point x="206" y="975" type="curve"/>
      <point x="202" y="870" type="line"/>
      <point x="121" y="926" type="line"/>
      <point x="95" y="942"/>
      <point x="58" y="932"/>
      <point x="38" y="903" type="curve" smooth="yes"/>
      <point x="18" y="875"/>
      <point x="22" y="839"/>
      <point x="48" y="823" type="curve" smooth="yes"/>
      <point x="134" y="775" type="line"/>
      <point x="35" y="726" type="line" smooth="yes"/>
      <point x="6" y="711"/>
      <point x="-8" y="675"/>
      <point x="5" y="646" type="curve" smooth="yes"/>
      <point x="18" y="618"/>
      <point x="52" y="607"/>
      <point x="81" y="623" type="curve" smooth="yes"/>
      <point x="177" y="679" type="line"/>
      <point x="154" y="575" type="line"/>
      <point x="151" y="544"/>
      <point x="176" y="520"/>
      <point x="211" y="520" type="curve" smooth="yes"/>
      <point x="246" y="520"/>
      <point x="278" y="544"/>
      <point x="282" y="575" type="curve"/>
      <point x="287" y="679" type="line"/>
      <point x="368" y="623" type="line"/>
      <point x="385" y="613"/>
      <point x="406" y="613"/>
      <point x="426" y="624" type="curve" smooth="yes"/>
      <point x="446" y="635"/>
      <point x="459" y="654"/>
      <point x="462" y="676" type="curve"/>
      <point x="466" y="697"/>
      <point x="458" y="716"/>
      <point x="441" y="726" type="curve" smooth="yes"/>
      <point x="354" y="775" type="line"/>
      <point x="454" y="823" type="line"/>
      <point x="483" y="839"/>
      <point x="496" y="875"/>
      <point x="484" y="903" type="curve" smooth="yes"/>
      <point x="471" y="932"/>
      <point x="437" y="942"/>
      <point x="407" y="926" type="curve" smooth="yes"/>
      <point x="312" y="870" type="line"/>
    </contour>
  </outline>
</glyph>
<glyph name="plus" format="1">
  <advance width="837"/>
  <unicode hex="002B"/>
  <outline>
    <contour>
      <point x="255" y="431" type="line"/>
      <point x="230" y="239" type="line" smooth="yes"/>
      <point x="225" y="199"/>
      <point x="259" y="166"/>
      <point x="306" y="166" type="curve" smooth="yes"/>
      <point x="353" y="166"/>
      <point x="395" y="199"/>
      <point x="400" y="239" type="curve" smooth="yes"/>
      <point x="425" y="431" type="line"/>
      <point x="611" y="431" type="line" smooth="yes"/>
      <point x="655" y="431"/>
      <point x="695" y="467"/>
      <point x="701" y="510" type="curve" smooth="yes"/>
      <point x="706" y="553"/>
      <point x="675" y="589"/>
      <point x="632" y="589" type="curve" smooth="yes"/>
      <point x="446" y="589" type="line"/>
      <point x="471" y="781" type="line" smooth="yes"/>
      <point x="476" y="821"/>
      <point x="442" y="854"/>
      <point x="395" y="854" type="curve" smooth="yes"/>
      <point x="348" y="854"/>
      <point x="306" y="821"/>
      <point x="301" y="781" type="curve" smooth="yes"/>
      <point x="276" y="589" type="line"/>
      <point x="90" y="589" type="line" smooth="yes"/>
      <point x="46" y="589"/>
      <point x="6" y="553"/>
      <point x="1" y="510" type="curve" smooth="yes"/>
      <point x="-5" y="467"/>
      <point x="26" y="431"/>
      <point x="70" y="431" type="curve" smooth="yes"/>
    </contour>
  </outline>
</glyph>
<glyph name="comma" format="1">
  <advance width="344"/>
  <unicode hex="002C"/>
  <outline>
    <contour>
      <point x="208" y="102" type="curve" smooth="yes"/>
      <point x="214" y="147"/>
      <point x="177" y="183"/>
      <point x="125" y="183" type="curve" smooth="yes"/>
      <point x="73" y="183"/>
      <point x="27" y="147"/>
      <point x="21" y="102" type="curve" smooth="yes"/>
      <point x="18" y="76" type="line" smooth="yes"/>
      <point x="14" y="47"/>
      <point x="28" y="22"/>
      <point x="53" y="7" type="curve"/>
      <point x="61" y="3"/>
      <point x="65" y="-6"/>
      <point x="64" y="-16" type="curve"/>
      <point x="62" y="-26"/>
      <point x="56" y="-34"/>
      <point x="46" y="-39" type="curve" smooth="yes"/>
      <point x="18" y="-53" type="line" smooth="yes"/>
      <point x="4" y="-60"/>
      <point x="-4" y="-77"/>
      <point x="2" y="-91" type="curve"/>
      <point x="7" y="-105"/>
      <point x="23" y="-111"/>
      <point x="38" y="-104" type="curve" smooth="yes"/>
      <point x="123" y="-63"/>
      <point x="196" y="6"/>
    </contour>
  </outline>
</glyph>
<glyph name="hyphen" format="1">
  <advance width="587"/>
  <unicode hex="002D"/>
  <outline>
    <contour>
      <point x="361" y="431" type="line" smooth="yes"/>
      <point x="405" y="431"/>
      <point x="445" y="467"/>
      <point x="451" y="510" type="curve" smooth="yes"/>
      <point x="456" y="553"/>
      <point x="425" y="589"/>
      <point x="382" y="589" type="curve" smooth="yes"/>
      <point x="90" y="589" type="line" smooth="yes"/>
      <point x="46" y="589"/>
      <point x="6" y="553"/>
      <point x="1" y="510" type="curve" smooth="yes"/>
      <point x="-5" y="467"/>
      <point x="26" y="431"/>
      <point x="70" y="431" type="curve" smooth="yes"/>
    </contour>
  </outline>
</glyph>
<glyph name="period" format="1">
  <advance width="327"/>
  <unicode hex="002E"/>
  <outline>
    <contour>
      <point x="191" y="102" type="line" smooth="yes"/>
      <point x="197" y="147"/>
      <point x="160" y="183"/>
      <point x="108" y="183" type="curve" smooth="yes"/>
      <point x="56" y="183"/>
      <point x="10" y="147"/>
      <point x="4" y="102" type="curve" smooth="yes"/>
      <point x="1" y="76" type="line" smooth="yes"/>
      <point x="-5" y="31"/>
      <point x="32" y="-5"/>
      <point x="84" y="-5" type="curve" smooth="yes"/>
      <point x="135" y="-5"/>
      <point x="182" y="31"/>
      <point x="188" y="76" type="curve" smooth="yes"/>
    </contour>
  </outline>
</glyph>
<glyph name="slash" format="1">
  <advance width="778"/>
  <unicode hex="002F"/>
  <outline>
    <contour>
      <point x="636" y="1000" type="line" smooth="yes"/>
      <point x="653" y="1039"/>
      <point x="634" y="1081"/>
      <point x="592" y="1096" type="curve" smooth="yes"/>
      <point x="550" y="1110"/>
      <point x="502" y="1090"/>
      <point x="485" y="1051" type="curve" smooth="yes"/>
      <point x="6" y="0" type="line" smooth="yes"/>
      <point x="-11" y="-39"/>
      <point x="8" y="-81"/>
      <point x="50" y="-96" type="curve" smooth="yes"/>
      <point x="92" y="-110"/>
      <point x="140" y="-90"/>
      <point x="158" y="-51" type="curve" smooth="yes"/>
    </contour>
  </outline>
</glyph>
<glyph name="zero" format="1">
  <advance width="901"/>
  <unicode hex="0030"/>
  <outline>
    <contour>
      <point x="181" y="472" type="curve" smooth="yes"/>
      <point x="188" y="528" type="line" smooth="yes"/>
      <point x="209" y="689"/>
      <point x="311" y="843"/>
      <point x="414" y="843" type="curve" smooth="yes"/>
      <point x="440" y="843" type="line" smooth="yes"/>
      <point x="560" y="843"/>
      <point x="607" y="703"/>
      <point x="585" y="528" type="curve" smooth="yes"/>
      <point x="577" y="472" type="line" smooth="yes"/>
      <point x="556" y="311"/>
      <point x="454" y="157"/>
      <point x="351" y="157" type="curve" smooth="yes"/>
      <point x="325" y="157" type="line" smooth="yes"/>
      <point x="205" y="157"/>
      <point x="158" y="297"/>
    </contour>
    <contour>
      <point x="5" y="472" type="line" smooth="yes"/>
      <point x="-29" y="212"/>
      <point x="105" y="0"/>
      <point x="305" y="0" type="curve" smooth="yes"/>
      <point x="331" y="0" type="line" smooth="yes"/>
      <point x="530" y="0"/>
      <point x="719" y="212"/>
      <point x="753" y="472" type="curve" smooth="yes"/>
      <point x="760" y="528" type="line" smooth="yes"/>
      <point x="794" y="788"/>
      <point x="660" y="1000"/>
      <point x="461" y="1000" type="curve" smooth="yes"/>
      <point x="435" y="1000" type="line" smooth="yes"/>
      <point x="235" y="1000"/>
      <point x="46" y="788"/>
      <point x="12" y="528" type="curve" smooth="yes"/>
    </contour>
  </outline>
</glyph>
<glyph name="Digit_One" format="1">
  <advance width="396"/>
  <unicode hex="0031"/>
  <outline>
    <contour>
      <point x="396" y="918" type="line" smooth="yes"/>
      <point x="400" y="954"/>
      <point x="382" y="985"/>
      <point x="348" y="998" type="curve" smooth="yes"/>
      <point x="313" y="1012"/>
      <point x="273" y="1004"/>
      <point x="243" y="979" type="curve" smooth="yes"/>
      <point x="31" y="786" type="line" smooth="yes"/>
      <point x="-4" y="754"/>
      <point x="-10" y="703"/>
      <point x="17" y="672" type="curve"/>
      <point x="17" y="672" type="line"/>
      <point x="45" y="641"/>
      <point x="96" y="642"/>
      <point x="131" y="674" type="curve" smooth="yes"/>
      <point x="202" y="738" type="line"/>
      <point x="116" y="74" type="line" smooth="yes"/>
      <point x="110" y="30"/>
      <point x="144" y="-5"/>
      <point x="191" y="-5" type="curve" smooth="yes"/>
      <point x="238" y="-5"/>
      <point x="280" y="30"/>
      <point x="286" y="74" type="curve" smooth="yes"/>
    </contour>
  </outline>
</glyph>
<glyph name="one" format="1">
  <advance width="560"/>
  <unicode hex="0031"/>
  <outline>
    <contour>
      <point x="424" y="924" type="line" smooth="yes"/>
      <point x="428" y="957"/>
      <point x="411" y="985"/>
      <point x="377" y="998" type="curve" smooth="yes"/>
      <point x="344" y="1011"/>
      <point x="305" y="1005"/>
      <point x="274" y="983" type="curve"/>
      <point x="30" y="779" type="line" smooth="yes"/>
      <point x="-4" y="750"/>
      <point x="-10" y="701"/>
      <point x="16" y="668" type="curve" smooth="yes"/>
      <point x="42" y="636"/>
      <point x="91" y="633"/>
      <point x="125" y="661" type="curve" smooth="yes"/>
      <point x="232" y="751" type="line"/>
      <point x="143" y="69" type="line" smooth="yes"/>
      <point x="138" y="28"/>
      <point x="171" y="-5"/>
      <point x="218" y="-5" type="curve" smooth="yes"/>
      <point x="265" y="-5"/>
      <point x="308" y="28"/>
      <point x="313" y="69" type="curve" smooth="yes"/>
    </contour>
  </outline>
</glyph>
<glyph name="2" format="1">
  <advance width="897"/>
  <unicode hex="0032"/>
  <outline>
    <contour>
      <point x="248" y="157" type="line"/>
      <point x="600" y="157" type="line" smooth="yes"/>
      <point x="647" y="157"/>
      <point x="681" y="122"/>
      <point x="675" y="79" type="curve"/>
      <point x="675" y="79" type="line"/>
      <point x="669" y="35"/>
      <point x="627" y="0"/>
      <point x="580" y="0" type="curve" smooth="yes"/>
      <point x="94" y="0" type="line" smooth="yes"/>
      <point x="36" y="0"/>
      <point x="-6" y="44"/>
      <point x="1" y="98" type="curve"/>
      <point x="1" y="98" type="line"/>
      <point x="4" y="122"/>
      <point x="16" y="144"/>
      <point x="33" y="161" type="curve" smooth="yes"/>
      <point x="558" y="671" type="line" smooth="yes"/>
      <point x="575" y="688"/>
      <point x="587" y="708"/>
      <point x="590" y="729" type="curve"/>
      <point x="590" y="729" type="line"/>
      <point x="598" y="792"/>
      <point x="529" y="843"/>
      <point x="436" y="843" type="curve"/>
      <point x="436" y="843" type="line"/>
      <point x="364" y="843"/>
      <point x="300" y="826"/>
      <point x="253" y="796" type="curve" smooth="yes"/>
      <point x="250" y="794" type="line"/>
      <point x="219" y="759"/>
      <point x="168" y="751"/>
      <point x="135" y="778" type="curve"/>
      <point x="135" y="778" type="line"/>
      <point x="102" y="804"/>
      <point x="100" y="854"/>
      <point x="131" y="890" type="curve"/>
      <point x="128" y="888" type="line"/>
      <point x="213" y="961"/>
      <point x="328" y="1000"/>
      <point x="456" y="1000" type="curve"/>
      <point x="456" y="1000" type="line"/>
      <point x="643" y="1000"/>
      <point x="779" y="879"/>
      <point x="760" y="729" type="curve"/>
      <point x="760" y="729" type="line"/>
      <point x="753" y="678"/>
      <point x="729" y="630"/>
      <point x="693" y="589" type="curve"/>
    </contour>
  </outline>
</glyph>
<glyph name="two" format="1">
  <advance width="898"/>
  <unicode hex="0032"/>
  <outline>
    <contour>
      <point x="260" y="157" type="line"/>
      <point x="697" y="592" type="line"/>
      <point x="732" y="632"/>
      <point x="755" y="679"/>
      <point x="761" y="729" type="curve" smooth="yes"/>
      <point x="781" y="879"/>
      <point x="645" y="1000"/>
      <point x="458" y="1000" type="curve" smooth="yes"/>
      <point x="319" y="1000"/>
      <point x="193" y="950"/>
      <point x="115" y="867" type="curve" smooth="yes"/>
      <point x="96" y="845"/>
      <point x="91" y="817"/>
      <point x="100" y="791" type="curve" smooth="yes"/>
      <point x="110" y="765"/>
      <point x="131" y="747"/>
      <point x="160" y="743" type="curve" smooth="yes"/>
      <point x="188" y="739"/>
      <point x="215" y="749"/>
      <point x="234" y="771" type="curve" smooth="yes"/>
      <point x="272" y="815"/>
      <point x="350" y="843"/>
      <point x="437" y="843" type="curve" smooth="yes"/>
      <point x="530" y="843"/>
      <point x="599" y="792"/>
      <point x="591" y="729" type="curve" smooth="yes"/>
      <point x="588" y="708"/>
      <point x="577" y="689"/>
      <point x="560" y="672" type="curve" smooth="yes"/>
      <point x="29" y="143" type="line" smooth="yes"/>
      <point x="14" y="128"/>
      <point x="4" y="108"/>
      <point x="1" y="86" type="curve" smooth="yes"/>
      <point x="-6" y="39"/>
      <point x="28" y="0"/>
      <point x="77" y="0" type="curve" smooth="yes"/>
      <point x="587" y="0" type="line" smooth="yes"/>
      <point x="631" y="0"/>
      <point x="671" y="35"/>
      <point x="677" y="79" type="curve" smooth="yes"/>
      <point x="682" y="122"/>
      <point x="651" y="157"/>
      <point x="608" y="157" type="curve" smooth="yes"/>
    </contour>
  </outline>
</glyph>
<glyph name="Digit_Three" format="1">
  <advance width="662"/>
  <unicode hex="0033"/>
  <outline>
    <contour>
      <point x="481" y="547" type="curve"/>
      <point x="574" y="573"/>
      <point x="649" y="648"/>
      <point x="660" y="736" type="curve"/>
      <point x="660" y="736" type="line"/>
      <point x="680" y="884"/>
      <point x="558" y="1005"/>
      <point x="388" y="1005" type="curve"/>
      <point x="388" y="1005" type="line"/>
      <point x="304" y="1005"/>
      <point x="228" y="978"/>
      <point x="161" y="926" type="curve"/>
      <point x="162" y="925" type="line"/>
      <point x="128" y="893"/>
      <point x="123" y="842"/>
      <point x="152" y="811" type="curve"/>
      <point x="152" y="811" type="line"/>
      <point x="181" y="781"/>
      <point x="232" y="783"/>
      <point x="266" y="816" type="curve"/>
      <point x="267" y="815" type="line"/>
      <point x="296" y="837"/>
      <point x="330" y="847"/>
      <point x="368" y="847" type="curve"/>
      <point x="368" y="847" type="line"/>
      <point x="438" y="847"/>
      <point x="488" y="797"/>
      <point x="480" y="736" type="curve"/>
      <point x="480" y="736" type="line"/>
      <point x="472" y="674"/>
      <point x="409" y="624"/>
      <point x="339" y="624" type="curve"/>
      <point x="339" y="624" type="line"/>
      <point x="299" y="624"/>
      <point x="262" y="589"/>
      <point x="256" y="545" type="curve"/>
      <point x="256" y="545" type="line"/>
      <point x="251" y="502"/>
      <point x="279" y="467"/>
      <point x="318" y="467" type="curve"/>
      <point x="318" y="467" type="line"/>
      <point x="416" y="467"/>
      <point x="486" y="396"/>
      <point x="475" y="310" type="curve"/>
      <point x="475" y="310" type="line"/>
      <point x="463" y="223"/>
      <point x="375" y="153"/>
      <point x="278" y="153" type="curve"/>
      <point x="278" y="153" type="line"/>
      <point x="225" y="153"/>
      <point x="182" y="168"/>
      <point x="148" y="199" type="curve"/>
      <point x="147" y="198" type="line"/>
      <point x="122" y="230"/>
      <point x="71" y="232"/>
      <point x="34" y="202" type="curve"/>
      <point x="34" y="202" type="line"/>
      <point x="-2" y="172"/>
      <point x="-11" y="121"/>
      <point x="15" y="88" type="curve"/>
      <point x="14" y="87" type="line"/>
      <point x="76" y="26"/>
      <point x="157" y="-5"/>
      <point x="257" y="-5" type="curve"/>
      <point x="257" y="-5" type="line"/>
      <point x="457" y="-5"/>
      <point x="636" y="136"/>
      <point x="659" y="310" type="curve"/>
      <point x="659" y="310" type="line"/>
      <point x="674" y="423"/>
      <point x="597" y="519"/>
    </contour>
  </outline>
</glyph>
<glyph name="three" format="1">
  <advance width="796"/>
  <unicode hex="0033"/>
  <outline>
    <contour>
      <point x="479" y="547" type="curve"/>
      <point x="572" y="573"/>
      <point x="647" y="648"/>
      <point x="659" y="736" type="curve" smooth="yes"/>
      <point x="678" y="884"/>
      <point x="556" y="1005"/>
      <point x="387" y="1005" type="curve" smooth="yes"/>
      <point x="302" y="1005"/>
      <point x="226" y="978"/>
      <point x="160" y="926" type="curve"/>
      <point x="128" y="895"/>
      <point x="126" y="846"/>
      <point x="154" y="815" type="curve" smooth="yes"/>
      <point x="183" y="785"/>
      <point x="232" y="785"/>
      <point x="265" y="815" type="curve"/>
      <point x="295" y="837"/>
      <point x="328" y="847"/>
      <point x="366" y="847" type="curve" smooth="yes"/>
      <point x="440" y="847"/>
      <point x="493" y="797"/>
      <point x="484" y="736" type="curve" smooth="yes"/>
      <point x="477" y="678"/>
      <point x="419" y="630"/>
      <point x="351" y="625" type="curve" smooth="yes"/>
      <point x="262" y="617" type="line" smooth="yes"/>
      <point x="230" y="614"/>
      <point x="200" y="583"/>
      <point x="196" y="545" type="curve" smooth="yes"/>
      <point x="191" y="508"/>
      <point x="212" y="477"/>
      <point x="243" y="474" type="curve" smooth="yes"/>
      <point x="335" y="466" type="line" smooth="yes"/>
      <point x="428" y="458"/>
      <point x="492" y="391"/>
      <point x="482" y="310" type="curve" smooth="yes"/>
      <point x="470" y="223"/>
      <point x="378" y="153"/>
      <point x="276" y="153" type="curve" smooth="yes"/>
      <point x="223" y="153"/>
      <point x="180" y="168"/>
      <point x="146" y="198" type="curve"/>
      <point x="122" y="228"/>
      <point x="72" y="228"/>
      <point x="36" y="198" type="curve" smooth="yes"/>
      <point x="-1" y="168"/>
      <point x="-11" y="119"/>
      <point x="13" y="88" type="curve"/>
      <point x="75" y="26"/>
      <point x="156" y="-5"/>
      <point x="255" y="-5" type="curve" smooth="yes"/>
      <point x="455" y="-5"/>
      <point x="635" y="136"/>
      <point x="657" y="310" type="curve" smooth="yes"/>
      <point x="672" y="423"/>
      <point x="596" y="519"/>
    </contour>
  </outline>
</glyph>
<glyph name="4" format="1">
  <advance width="857"/>
  <unicode hex="0034"/>
  <outline>
    <contour>
      <point x="467" y="688" type="line"/>
      <point x="430" y="399" type="line"/>
      <point x="234" y="399" type="line"/>
    </contour>
    <contour>
      <point x="579" y="241" type="line"/>
      <point x="626" y="241" type="line" smooth="yes"/>
      <point x="673" y="241"/>
      <point x="716" y="277"/>
      <point x="721" y="320" type="curve"/>
      <point x="721" y="320" type="line"/>
      <point x="727" y="363"/>
      <point x="693" y="399"/>
      <point x="646" y="399" type="curve" smooth="yes"/>
      <point x="600" y="399" type="line"/>
      <point x="667" y="914" type="line" smooth="yes"/>
      <point x="673" y="964"/>
      <point x="635" y="1005"/>
      <point x="581" y="1005" type="curve"/>
      <point x="581" y="1005" type="line"/>
      <point x="546" y="1005"/>
      <point x="513" y="988"/>
      <point x="492" y="962" type="curve" smooth="yes"/>
      <point x="22" y="380" type="line" smooth="yes"/>
      <point x="11" y="366"/>
      <point x="3" y="349"/>
      <point x="1" y="332" type="curve"/>
      <point x="1" y="332" type="line"/>
      <point x="-6" y="282"/>
      <point x="33" y="241"/>
      <point x="87" y="241" type="curve" smooth="yes"/>
      <point x="409" y="241" type="line"/>
      <point x="388" y="74" type="line" smooth="yes"/>
      <point x="382" y="30"/>
      <point x="415" y="-5"/>
      <point x="462" y="-5" type="curve" smooth="yes"/>
      <point x="509" y="-5"/>
      <point x="552" y="30"/>
      <point x="558" y="74" type="curve" smooth="yes"/>
    </contour>
  </outline>
</glyph>
<glyph name="four" format="1">
  <advance width="857"/>
  <unicode hex="0034"/>
  <outline>
    <contour>
      <point x="468" y="690" type="line"/>
      <point x="430" y="399" type="line"/>
      <point x="233" y="399" type="line"/>
    </contour>
    <contour>
      <point x="579" y="241" type="line"/>
      <point x="632" y="241" type="line" smooth="yes"/>
      <point x="676" y="241"/>
      <point x="716" y="277"/>
      <point x="721" y="320" type="curve" smooth="yes"/>
      <point x="727" y="363"/>
      <point x="696" y="399"/>
      <point x="652" y="399" type="curve" smooth="yes"/>
      <point x="600" y="399" type="line"/>
      <point x="668" y="920" type="line" smooth="yes"/>
      <point x="674" y="967"/>
      <point x="635" y="1005"/>
      <point x="581" y="1005" type="curve" smooth="yes"/>
      <point x="545" y="1005"/>
      <point x="511" y="988"/>
      <point x="491" y="963" type="curve" smooth="yes"/>
      <point x="23" y="382" type="line" smooth="yes"/>
      <point x="11" y="368"/>
      <point x="3" y="350"/>
      <point x="1" y="332" type="curve" smooth="yes"/>
      <point x="-6" y="282"/>
      <point x="30" y="241"/>
      <point x="80" y="241" type="curve" smooth="yes"/>
      <point x="409" y="241" type="line"/>
      <point x="387" y="69" type="line" smooth="yes"/>
      <point x="382" y="28"/>
      <point x="415" y="-5"/>
      <point x="462" y="-5" type="curve" smooth="yes"/>
      <point x="509" y="-5"/>
      <point x="552" y="28"/>
      <point x="557" y="69" type="curve" smooth="yes"/>
    </contour>
  </outline>
</glyph>
<glyph name="Digit_Five" format="1">
  <advance width="739"/>
  <unicode hex="0035"/>
  <outline>
    <contour>
      <point x="329" y="843" type="line"/>
      <point x="643" y="843" type="line" smooth="yes"/>
      <point x="690" y="843"/>
      <point x="733" y="878"/>
      <point x="739" y="921" type="curve"/>
      <point x="739" y="921" type="line"/>
      <point x="744" y="965"/>
      <point x="711" y="1000"/>
      <point x="664" y="1000" type="curve" smooth="yes"/>
      <point x="278" y="1000" type="line" smooth="yes"/>
      <point x="235" y="1000"/>
      <point x="196" y="971"/>
      <point x="185" y="933" type="curve" smooth="yes"/>
      <point x="61" y="499" type="line" smooth="yes"/>
      <point x="54" y="475"/>
      <point x="57" y="450"/>
      <point x="73" y="431" type="curve"/>
      <point x="73" y="431" type="line"/>
      <point x="99" y="399"/>
      <point x="150" y="398"/>
      <point x="186" y="428" type="curve"/>
      <point x="187" y="428" type="line"/>
      <point x="227" y="454"/>
      <point x="270" y="467"/>
      <point x="318" y="467" type="curve"/>
      <point x="318" y="467" type="line"/>
      <point x="416" y="467"/>
      <point x="486" y="396"/>
      <point x="475" y="310" type="curve"/>
      <point x="475" y="310" type="line"/>
      <point x="463" y="223"/>
      <point x="375" y="153"/>
      <point x="278" y="153" type="curve"/>
      <point x="278" y="153" type="line"/>
      <point x="225" y="153"/>
      <point x="182" y="168"/>
      <point x="148" y="199" type="curve"/>
      <point x="147" y="198" type="line"/>
      <point x="122" y="230"/>
      <point x="71" y="232"/>
      <point x="34" y="202" type="curve"/>
      <point x="34" y="202" type="line"/>
      <point x="-2" y="172"/>
      <point x="-11" y="121"/>
      <point x="15" y="88" type="curve"/>
      <point x="14" y="87" type="line"/>
      <point x="76" y="26"/>
      <point x="157" y="-5"/>
      <point x="257" y="-5" type="curve"/>
      <point x="257" y="-5" type="line"/>
      <point x="457" y="-5"/>
      <point x="636" y="136"/>
      <point x="659" y="310" type="curve"/>
      <point x="659" y="310" type="line"/>
      <point x="682" y="483"/>
      <point x="538" y="624"/>
      <point x="339" y="624" type="curve"/>
      <point x="339" y="624" type="line"/>
      <point x="313" y="624"/>
      <point x="289" y="622"/>
      <point x="265" y="618" type="curve"/>
    </contour>
  </outline>
</glyph>
<glyph name="five" format="1">
  <advance width="873"/>
  <unicode hex="0035"/>
  <outline>
    <contour>
      <point x="328" y="843" type="line"/>
      <point x="647" y="843" type="line" smooth="yes"/>
      <point x="691" y="843"/>
      <point x="731" y="878"/>
      <point x="737" y="921" type="curve" smooth="yes"/>
      <point x="743" y="965"/>
      <point x="712" y="1000"/>
      <point x="668" y="1000" type="curve" smooth="yes"/>
      <point x="270" y="1000" type="line" smooth="yes"/>
      <point x="231" y="1000"/>
      <point x="194" y="971"/>
      <point x="183" y="933" type="curve" smooth="yes"/>
      <point x="62" y="503" type="line" smooth="yes"/>
      <point x="56" y="480"/>
      <point x="60" y="454"/>
      <point x="76" y="435" type="curve" smooth="yes"/>
      <point x="102" y="403"/>
      <point x="151" y="400"/>
      <point x="185" y="428" type="curve"/>
      <point x="225" y="454"/>
      <point x="268" y="467"/>
      <point x="317" y="467" type="curve" smooth="yes"/>
      <point x="414" y="467"/>
      <point x="484" y="396"/>
      <point x="473" y="310" type="curve" smooth="yes"/>
      <point x="462" y="223"/>
      <point x="374" y="153"/>
      <point x="276" y="153" type="curve" smooth="yes"/>
      <point x="223" y="153"/>
      <point x="180" y="168"/>
      <point x="146" y="198" type="curve"/>
      <point x="122" y="228"/>
      <point x="72" y="228"/>
      <point x="36" y="198" type="curve" smooth="yes"/>
      <point x="-1" y="168"/>
      <point x="-11" y="119"/>
      <point x="13" y="88" type="curve"/>
      <point x="75" y="26"/>
      <point x="156" y="-5"/>
      <point x="255" y="-5" type="curve" smooth="yes"/>
      <point x="455" y="-5"/>
      <point x="635" y="136"/>
      <point x="657" y="310" type="curve" smooth="yes"/>
      <point x="680" y="483"/>
      <point x="537" y="624"/>
      <point x="337" y="624" type="curve" smooth="yes"/>
      <point x="312" y="624"/>
      <point x="288" y="622"/>
      <point x="265" y="618" type="curve"/>
    </contour>
  </outline>
</glyph>
<glyph name="6" format="1">
  <advance width="790"/>
  <unicode hex="0036"/>
  <outline>
    <contour>
      <point x="184" y="320" type="curve"/>
      <point x="196" y="413"/>
      <point x="270" y="488"/>
      <point x="349" y="488" type="curve"/>
      <point x="349" y="488" type="line"/>
      <point x="429" y="488"/>
      <point x="483" y="413"/>
      <point x="471" y="320" type="curve"/>
      <point x="471" y="320" type="line"/>
      <point x="459" y="228"/>
      <point x="385" y="153"/>
      <point x="306" y="153" type="curve"/>
      <point x="306" y="153" type="line"/>
      <point x="227" y="153"/>
      <point x="172" y="228"/>
    </contour>
    <contour>
      <point x="401" y="974" type="curve" smooth="yes"/>
      <point x="223" y="779"/>
      <point x="38" y="588"/>
      <point x="3" y="320" type="curve" smooth="yes"/>
      <point x="-21" y="141"/>
      <point x="106" y="-5"/>
      <point x="285" y="-5" type="curve"/>
      <point x="285" y="-5" type="line"/>
      <point x="465" y="-5"/>
      <point x="629" y="141"/>
      <point x="652" y="320" type="curve"/>
      <point x="652" y="320" type="line"/>
      <point x="674" y="485"/>
      <point x="558" y="619"/>
      <point x="392" y="619" type="curve"/>
      <point x="392" y="619" type="line"/>
      <point x="355" y="619"/>
      <point x="319" y="612"/>
      <point x="284" y="600" type="curve"/>
      <point x="284" y="600" type="line"/>
      <point x="350" y="698"/>
      <point x="435" y="785"/>
      <point x="516" y="875" type="curve" smooth="yes"/>
      <point x="547" y="910"/>
      <point x="547" y="960"/>
      <point x="515" y="988" type="curve"/>
      <point x="515" y="988" type="line"/>
      <point x="484" y="1015"/>
      <point x="432" y="1009"/>
    </contour>
  </outline>
</glyph>
<glyph name="Digit_Six" format="1">
  <advance width="655"/>
  <unicode hex="0036"/>
  <outline>
    <contour>
      <point x="184" y="320" type="curve"/>
      <point x="196" y="413"/>
      <point x="270" y="488"/>
      <point x="349" y="488" type="curve"/>
      <point x="349" y="488" type="line"/>
      <point x="429" y="488"/>
      <point x="483" y="413"/>
      <point x="471" y="320" type="curve"/>
      <point x="471" y="320" type="line"/>
      <point x="459" y="228"/>
      <point x="385" y="153"/>
      <point x="306" y="153" type="curve"/>
      <point x="306" y="153" type="line"/>
      <point x="227" y="153"/>
      <point x="172" y="228"/>
    </contour>
    <contour>
      <point x="401" y="974" type="curve" smooth="yes"/>
      <point x="223" y="779"/>
      <point x="38" y="588"/>
      <point x="3" y="320" type="curve" smooth="yes"/>
      <point x="-21" y="141"/>
      <point x="106" y="-5"/>
      <point x="285" y="-5" type="curve"/>
      <point x="285" y="-5" type="line"/>
      <point x="465" y="-5"/>
      <point x="629" y="141"/>
      <point x="652" y="320" type="curve"/>
      <point x="652" y="320" type="line"/>
      <point x="674" y="486"/>
      <point x="557" y="621"/>
      <point x="391" y="621" type="curve"/>
      <point x="391" y="621" type="line"/>
      <point x="355" y="621"/>
      <point x="320" y="614"/>
      <point x="286" y="603" type="curve"/>
      <point x="286" y="603" type="line"/>
      <point x="352" y="699"/>
      <point x="436" y="786"/>
      <point x="516" y="875" type="curve" smooth="yes"/>
      <point x="547" y="910"/>
      <point x="547" y="960"/>
      <point x="515" y="988" type="curve"/>
      <point x="515" y="988" type="line"/>
      <point x="484" y="1015"/>
      <point x="432" y="1009"/>
    </contour>
  </outline>
</glyph>
<glyph name="six" format="1">
  <advance width="790"/>
  <unicode hex="0036"/>
  <outline>
    <contour>
      <point x="177" y="320" type="curve" smooth="yes"/>
      <point x="189" y="413"/>
      <point x="266" y="488"/>
      <point x="349" y="488" type="curve" smooth="yes"/>
      <point x="432" y="488"/>
      <point x="490" y="413"/>
      <point x="478" y="320" type="curve" smooth="yes"/>
      <point x="466" y="228"/>
      <point x="389" y="153"/>
      <point x="306" y="153" type="curve" smooth="yes"/>
      <point x="223" y="153"/>
      <point x="165" y="228"/>
    </contour>
    <contour>
      <point x="401" y="977" type="curve" smooth="yes"/>
      <point x="223" y="781"/>
      <point x="38" y="589"/>
      <point x="3" y="320" type="curve" smooth="yes"/>
      <point x="-21" y="141"/>
      <point x="106" y="-5"/>
      <point x="285" y="-5" type="curve" smooth="yes"/>
      <point x="465" y="-5"/>
      <point x="629" y="141"/>
      <point x="652" y="320" type="curve" smooth="yes"/>
      <point x="674" y="486"/>
      <point x="557" y="621"/>
      <point x="391" y="621" type="curve" smooth="yes"/>
      <point x="355" y="621"/>
      <point x="319" y="614"/>
      <point x="285" y="602" type="curve"/>
      <point x="350" y="700"/>
      <point x="435" y="788"/>
      <point x="516" y="878" type="curve" smooth="yes"/>
      <point x="546" y="911"/>
      <point x="544" y="959"/>
      <point x="512" y="987" type="curve" smooth="yes"/>
      <point x="480" y="1014"/>
      <point x="430" y="1010"/>
    </contour>
  </outline>
</glyph>
<glyph name="Digit_Seven" format="1">
  <advance width="746"/>
  <unicode hex="0037"/>
  <outline>
    <contour>
      <point x="511" y="847" type="line"/>
      <point x="410" y="711" type="line" smooth="yes"/>
      <point x="260" y="510"/>
      <point x="149" y="315"/>
      <point x="118" y="74" type="curve" smooth="yes"/>
      <point x="112" y="30"/>
      <point x="145" y="-5"/>
      <point x="192" y="-5" type="curve" smooth="yes"/>
      <point x="239" y="-5"/>
      <point x="282" y="30"/>
      <point x="288" y="74" type="curve" smooth="yes"/>
      <point x="315" y="282"/>
      <point x="408" y="452"/>
      <point x="538" y="626" type="curve" smooth="yes"/>
      <point x="728" y="881" type="line" smooth="yes"/>
      <point x="747" y="908"/>
      <point x="751" y="938"/>
      <point x="738" y="964" type="curve"/>
      <point x="738" y="964" type="line"/>
      <point x="725" y="990"/>
      <point x="699" y="1005"/>
      <point x="666" y="1005" type="curve" smooth="yes"/>
      <point x="96" y="1005" type="line" smooth="yes"/>
      <point x="49" y="1005"/>
      <point x="6" y="970"/>
      <point x="1" y="926" type="curve"/>
      <point x="1" y="926" type="line"/>
      <point x="-5" y="883"/>
      <point x="28" y="847"/>
      <point x="75" y="847" type="curve" smooth="yes"/>
    </contour>
  </outline>
</glyph>
<glyph name="seven" format="1">
  <advance width="835"/>
  <unicode hex="0037"/>
  <outline>
    <contour>
      <point x="481" y="847" type="line"/>
      <point x="351" y="639" type="line" smooth="yes"/>
      <point x="235" y="453"/>
      <point x="136" y="282"/>
      <point x="108" y="69" type="curve" smooth="yes"/>
      <point x="103" y="28"/>
      <point x="137" y="-5"/>
      <point x="184" y="-5" type="curve" smooth="yes"/>
      <point x="231" y="-5"/>
      <point x="273" y="28"/>
      <point x="278" y="69" type="curve" smooth="yes"/>
      <point x="303" y="255"/>
      <point x="387" y="404"/>
      <point x="489" y="566" type="curve" smooth="yes"/>
      <point x="685" y="880" type="line" smooth="yes"/>
      <point x="702" y="908"/>
      <point x="705" y="938"/>
      <point x="692" y="964" type="curve" smooth="yes"/>
      <point x="679" y="990"/>
      <point x="654" y="1005"/>
      <point x="623" y="1005" type="curve" smooth="yes"/>
      <point x="90" y="1005" type="line" smooth="yes"/>
      <point x="46" y="1005"/>
      <point x="6" y="970"/>
      <point x="1" y="926" type="curve" smooth="yes"/>
      <point x="-5" y="883"/>
      <point x="26" y="847"/>
      <point x="70" y="847" type="curve" smooth="yes"/>
    </contour>
  </outline>
</glyph>
<glyph name="Digit_Eight" format="1">
  <advance width="728"/>
  <unicode hex="0038"/>
  <outline>
    <contour>
      <point x="343" y="153" type="curve"/>
      <point x="245" y="153"/>
      <point x="175" y="223"/>
      <point x="187" y="310" type="curve"/>
      <point x="187" y="310" type="line"/>
      <point x="198" y="396"/>
      <point x="286" y="467"/>
      <point x="384" y="467" type="curve"/>
      <point x="384" y="467" type="line"/>
      <point x="481" y="467"/>
      <point x="551" y="396"/>
      <point x="540" y="310" type="curve"/>
      <point x="540" y="310" type="line"/>
      <point x="529" y="223"/>
      <point x="440" y="153"/>
    </contour>
    <contour>
      <point x="404" y="624" type="curve"/>
      <point x="334" y="624"/>
      <point x="284" y="674"/>
      <point x="292" y="736" type="curve"/>
      <point x="292" y="736" type="line"/>
      <point x="300" y="797"/>
      <point x="363" y="847"/>
      <point x="433" y="847" type="curve"/>
      <point x="433" y="847" type="line"/>
      <point x="503" y="847"/>
      <point x="553" y="797"/>
      <point x="545" y="736" type="curve"/>
      <point x="545" y="736" type="line"/>
      <point x="537" y="674"/>
      <point x="474" y="624"/>
    </contour>
    <contour>
      <point x="454" y="1005" type="curve"/>
      <point x="284" y="1005"/>
      <point x="131" y="884"/>
      <point x="112" y="736" type="curve"/>
      <point x="112" y="736" type="line"/>
      <point x="102" y="657"/>
      <point x="140" y="588"/>
      <point x="207" y="550" type="curve"/>
      <point x="207" y="550" type="line"/>
      <point x="99" y="507"/>
      <point x="16" y="416"/>
      <point x="2" y="310" type="curve"/>
      <point x="2" y="310" type="line"/>
      <point x="-20" y="136"/>
      <point x="123" y="-5"/>
      <point x="322" y="-5" type="curve"/>
      <point x="322" y="-5" type="line"/>
      <point x="522" y="-5"/>
      <point x="702" y="136"/>
      <point x="724" y="310" type="curve"/>
      <point x="724" y="310" type="line"/>
      <point x="738" y="416"/>
      <point x="679" y="507"/>
      <point x="583" y="550" type="curve"/>
      <point x="583" y="550" type="line"/>
      <point x="659" y="588"/>
      <point x="715" y="657"/>
      <point x="726" y="736" type="curve"/>
      <point x="726" y="736" type="line"/>
      <point x="745" y="884"/>
      <point x="623" y="1005"/>
    </contour>
  </outline>
</glyph>
<glyph name="eight" format="1">
  <advance width="817"/>
  <unicode hex="0038"/>
  <outline>
    <contour>
      <point x="318" y="153" type="curve" smooth="yes"/>
      <point x="233" y="153"/>
      <point x="174" y="223"/>
      <point x="185" y="310" type="curve" smooth="yes"/>
      <point x="196" y="396"/>
      <point x="274" y="467"/>
      <point x="359" y="467" type="curve" smooth="yes"/>
      <point x="444" y="467"/>
      <point x="504" y="396"/>
      <point x="492" y="310" type="curve" smooth="yes"/>
      <point x="481" y="223"/>
      <point x="403" y="153"/>
    </contour>
    <contour>
      <point x="379" y="624" type="curve" smooth="yes"/>
      <point x="320" y="624"/>
      <point x="279" y="674"/>
      <point x="287" y="736" type="curve" smooth="yes"/>
      <point x="295" y="797"/>
      <point x="349" y="847"/>
      <point x="409" y="847" type="curve" smooth="yes"/>
      <point x="468" y="847"/>
      <point x="509" y="797"/>
      <point x="501" y="736" type="curve" smooth="yes"/>
      <point x="493" y="674"/>
      <point x="439" y="624"/>
    </contour>
    <contour>
      <point x="429" y="1005" type="curve" smooth="yes"/>
      <point x="271" y="1005"/>
      <point x="128" y="884"/>
      <point x="108" y="736" type="curve" smooth="yes"/>
      <point x="98" y="655"/>
      <point x="136" y="585"/>
      <point x="202" y="549" type="curve"/>
      <point x="98" y="509"/>
      <point x="16" y="417"/>
      <point x="2" y="310" type="curve" smooth="yes"/>
      <point x="-20" y="136"/>
      <point x="112" y="-5"/>
      <point x="298" y="-5" type="curve" smooth="yes"/>
      <point x="483" y="-5"/>
      <point x="652" y="136"/>
      <point x="675" y="310" type="curve" smooth="yes"/>
      <point x="689" y="417"/>
      <point x="631" y="509"/>
      <point x="538" y="549" type="curve"/>
      <point x="613" y="585"/>
      <point x="669" y="655"/>
      <point x="680" y="736" type="curve" smooth="yes"/>
      <point x="699" y="884"/>
      <point x="587" y="1005"/>
    </contour>
  </outline>
</glyph>
<glyph name="9" format="1">
  <advance width="790"/>
  <unicode hex="0039"/>
  <outline>
    <contour>
      <point x="471" y="680" type="curve"/>
      <point x="471" y="680" type="line"/>
      <point x="459" y="587"/>
      <point x="385" y="512"/>
      <point x="306" y="512" type="curve"/>
      <point x="306" y="512" type="line"/>
      <point x="226" y="512"/>
      <point x="172" y="587"/>
      <point x="184" y="680" type="curve"/>
      <point x="184" y="680" type="line"/>
      <point x="196" y="772"/>
      <point x="270" y="847"/>
      <point x="349" y="847" type="curve"/>
      <point x="349" y="847" type="line"/>
      <point x="428" y="847"/>
      <point x="483" y="772"/>
    </contour>
    <contour>
      <point x="254" y="26" type="curve" smooth="yes"/>
      <point x="432" y="221"/>
      <point x="617" y="412"/>
      <point x="652" y="680" type="curve" smooth="yes"/>
      <point x="676" y="859"/>
      <point x="549" y="1005"/>
      <point x="370" y="1005" type="curve"/>
      <point x="370" y="1005" type="line"/>
      <point x="190" y="1005"/>
      <point x="26" y="859"/>
      <point x="2" y="680" type="curve"/>
      <point x="2" y="680" type="line"/>
      <point x="-19" y="515"/>
      <point x="97" y="381"/>
      <point x="263" y="381" type="curve"/>
      <point x="263" y="381" type="line"/>
      <point x="300" y="381"/>
      <point x="336" y="388"/>
      <point x="370" y="400" type="curve"/>
      <point x="370" y="400" type="line"/>
      <point x="305" y="302"/>
      <point x="220" y="215"/>
      <point x="139" y="125" type="curve" smooth="yes"/>
      <point x="108" y="90"/>
      <point x="108" y="40"/>
      <point x="140" y="12" type="curve"/>
      <point x="140" y="12" type="line"/>
      <point x="171" y="-15"/>
      <point x="223" y="-9"/>
    </contour>
  </outline>
</glyph>
<glyph name="Digit_Nine" format="1">
  <advance width="655"/>
  <unicode hex="0039"/>
  <outline>
    <contour>
      <point x="471" y="680" type="curve"/>
      <point x="471" y="680" type="line"/>
      <point x="459" y="587"/>
      <point x="385" y="512"/>
      <point x="306" y="512" type="curve"/>
      <point x="306" y="512" type="line"/>
      <point x="226" y="512"/>
      <point x="172" y="587"/>
      <point x="184" y="680" type="curve"/>
      <point x="184" y="680" type="line"/>
      <point x="196" y="772"/>
      <point x="270" y="847"/>
      <point x="349" y="847" type="curve"/>
      <point x="349" y="847" type="line"/>
      <point x="428" y="847"/>
      <point x="483" y="772"/>
    </contour>
    <contour>
      <point x="254" y="26" type="curve" smooth="yes"/>
      <point x="432" y="221"/>
      <point x="617" y="412"/>
      <point x="652" y="680" type="curve" smooth="yes"/>
      <point x="676" y="859"/>
      <point x="549" y="1005"/>
      <point x="370" y="1005" type="curve"/>
      <point x="370" y="1005" type="line"/>
      <point x="190" y="1005"/>
      <point x="26" y="859"/>
      <point x="2" y="680" type="curve"/>
      <point x="2" y="680" type="line"/>
      <point x="-19" y="514"/>
      <point x="98" y="379"/>
      <point x="264" y="379" type="curve"/>
      <point x="264" y="379" type="line"/>
      <point x="300" y="379"/>
      <point x="335" y="386"/>
      <point x="369" y="397" type="curve"/>
      <point x="369" y="397" type="line"/>
      <point x="303" y="301"/>
      <point x="219" y="214"/>
      <point x="139" y="125" type="curve" smooth="yes"/>
      <point x="108" y="90"/>
      <point x="108" y="40"/>
      <point x="140" y="12" type="curve"/>
      <point x="140" y="12" type="line"/>
      <point x="171" y="-15"/>
      <point x="223" y="-9"/>
    </contour>
  </outline>
</glyph>
<glyph name="nine" format="1">
  <advance width="790"/>
  <unicode hex="0039"/>
  <outline>
    <contour>
      <point x="478" y="680" type="curve" smooth="yes"/>
      <point x="466" y="587"/>
      <point x="389" y="512"/>
      <point x="306" y="512" type="curve" smooth="yes"/>
      <point x="223" y="512"/>
      <point x="165" y="587"/>
      <point x="177" y="680" type="curve" smooth="yes"/>
      <point x="189" y="772"/>
      <point x="266" y="847"/>
      <point x="349" y="847" type="curve" smooth="yes"/>
      <point x="432" y="847"/>
      <point x="490" y="772"/>
    </contour>
    <contour>
      <point x="254" y="23" type="curve" smooth="yes"/>
      <point x="432" y="219"/>
      <point x="617" y="411"/>
      <point x="652" y="680" type="curve" smooth="yes"/>
      <point x="676" y="859"/>
      <point x="549" y="1005"/>
      <point x="370" y="1005" type="curve" smooth="yes"/>
      <point x="190" y="1005"/>
      <point x="26" y="859"/>
      <point x="2" y="680" type="curve" smooth="yes"/>
      <point x="-19" y="514"/>
      <point x="98" y="379"/>
      <point x="264" y="379" type="curve" smooth="yes"/>
      <point x="300" y="379"/>
      <point x="336" y="386"/>
      <point x="370" y="398" type="curve"/>
      <point x="305" y="300"/>
      <point x="220" y="212"/>
      <point x="139" y="122" type="curve" smooth="yes"/>
      <point x="109" y="89"/>
      <point x="111" y="41"/>
      <point x="143" y="13" type="curve" smooth="yes"/>
      <point x="175" y="-14"/>
      <point x="225" y="-10"/>
    </contour>
  </outline>
</glyph>
<glyph name="colon" format="1">
  <advance width="379"/>
  <unicode hex="003A"/>
  <outline>
    <contour>
      <point x="191" y="102" type="line" smooth="yes"/>
      <point x="197" y="147"/>
      <point x="160" y="183"/>
      <point x="108" y="183" type="curve" smooth="yes"/>
      <point x="56" y="183"/>
      <point x="10" y="147"/>
      <point x="4" y="102" type="curve" smooth="yes"/>
      <point x="1" y="76" type="line" smooth="yes"/>
      <point x="-5" y="31"/>
      <point x="32" y="-5"/>
      <point x="84" y="-5" type="curve" smooth="yes"/>
      <point x="135" y="-5"/>
      <point x="182" y="31"/>
      <point x="188" y="76" type="curve" smooth="yes"/>
    </contour>
    <contour>
      <point x="243" y="502" type="line" smooth="yes"/>
      <point x="249" y="547"/>
      <point x="212" y="583"/>
      <point x="160" y="583" type="curve" smooth="yes"/>
      <point x="108" y="583"/>
      <point x="62" y="547"/>
      <point x="56" y="502" type="curve" smooth="yes"/>
      <point x="53" y="476" type="line" smooth="yes"/>
      <point x="47" y="431"/>
      <point x="84" y="395"/>
      <point x="136" y="395" type="curve" smooth="yes"/>
      <point x="187" y="395"/>
      <point x="234" y="431"/>
      <point x="240" y="476" type="curve" smooth="yes"/>
    </contour>
  </outline>
</glyph>
<glyph name="semicolon" format="1">
  <advance width="396"/>
  <unicode hex="003B"/>
  <outline>
    <contour>
      <point x="208" y="102" type="curve" smooth="yes"/>
      <point x="214" y="147"/>
      <point x="177" y="183"/>
      <point x="125" y="183" type="curve" smooth="yes"/>
      <point x="73" y="183"/>
      <point x="27" y="147"/>
      <point x="21" y="102" type="curve" smooth="yes"/>
      <point x="18" y="76" type="line" smooth="yes"/>
      <point x="14" y="47"/>
      <point x="28" y="22"/>
      <point x="53" y="7" type="curve"/>
      <point x="61" y="3"/>
      <point x="65" y="-6"/>
      <point x="64" y="-16" type="curve"/>
      <point x="62" y="-26"/>
      <point x="56" y="-34"/>
      <point x="46" y="-39" type="curve" smooth="yes"/>
      <point x="18" y="-53" type="line" smooth="yes"/>
      <point x="4" y="-60"/>
      <point x="-4" y="-77"/>
      <point x="2" y="-91" type="curve"/>
      <point x="7" y="-105"/>
      <point x="23" y="-111"/>
      <point x="38" y="-104" type="curve" smooth="yes"/>
      <point x="123" y="-63"/>
      <point x="196" y="6"/>
    </contour>
    <contour>
      <point x="260" y="502" type="line" smooth="yes"/>
      <point x="266" y="547"/>
      <point x="229" y="583"/>
      <point x="177" y="583" type="curve" smooth="yes"/>
      <point x="125" y="583"/>
      <point x="79" y="547"/>
      <point x="73" y="502" type="curve" smooth="yes"/>
      <point x="70" y="476" type="line" smooth="yes"/>
      <point x="64" y="431"/>
      <point x="101" y="395"/>
      <point x="153" y="395" type="curve" smooth="yes"/>
      <point x="204" y="395"/>
      <point x="251" y="431"/>
      <point x="257" y="476" type="curve" smooth="yes"/>
    </contour>
  </outline>
</glyph>
<glyph name="less" format="1">
  <advance width="766"/>
  <unicode hex="003C"/>
  <outline>
    <contour>
      <point x="449" y="209" type="line" smooth="yes"/>
      <point x="458" y="204"/>
      <point x="470" y="201"/>
      <point x="482" y="201" type="curve" smooth="yes"/>
      <point x="525" y="202"/>
      <point x="565" y="238"/>
      <point x="571" y="281" type="curve" smooth="yes"/>
      <point x="575" y="312"/>
      <point x="562" y="338"/>
      <point x="539" y="351" type="curve" smooth="yes"/>
      <point x="243" y="510" type="line"/>
      <point x="580" y="669" type="line" smooth="yes"/>
      <point x="607" y="682"/>
      <point x="627" y="708"/>
      <point x="630" y="739" type="curve" smooth="yes"/>
      <point x="635" y="782"/>
      <point x="605" y="818"/>
      <point x="563" y="819" type="curve" smooth="yes"/>
      <point x="550" y="819"/>
      <point x="538" y="816"/>
      <point x="527" y="811" type="curve" smooth="yes"/>
      <point x="61" y="591" type="line" smooth="yes"/>
      <point x="30" y="576"/>
      <point x="5" y="545"/>
      <point x="1" y="510" type="curve" smooth="yes"/>
      <point x="-4" y="475"/>
      <point x="13" y="444"/>
      <point x="40" y="429" type="curve" smooth="yes"/>
    </contour>
  </outline>
</glyph>
<glyph name="equal" format="1">
  <advance width="830"/>
  <unicode hex="003D"/>
  <outline>
    <contour>
      <point x="604" y="596" type="line" smooth="yes"/>
      <point x="648" y="596"/>
      <point x="688" y="632"/>
      <point x="694" y="675" type="curve" smooth="yes"/>
      <point x="699" y="718"/>
      <point x="668" y="754"/>
      <point x="625" y="754" type="curve" smooth="yes"/>
      <point x="133" y="754" type="line" smooth="yes"/>
      <point x="89" y="754"/>
      <point x="49" y="718"/>
      <point x="44" y="675" type="curve" smooth="yes"/>
      <point x="38" y="632"/>
      <point x="69" y="596"/>
      <point x="113" y="596" type="curve" smooth="yes"/>
    </contour>
    <contour>
      <point x="561" y="266" type="line" smooth="yes"/>
      <point x="605" y="266"/>
      <point x="645" y="302"/>
      <point x="651" y="345" type="curve" smooth="yes"/>
      <point x="656" y="388"/>
      <point x="625" y="424"/>
      <point x="582" y="424" type="curve" smooth="yes"/>
      <point x="90" y="424" type="line" smooth="yes"/>
      <point x="46" y="424"/>
      <point x="6" y="388"/>
      <point x="1" y="345" type="curve" smooth="yes"/>
      <point x="-5" y="302"/>
      <point x="26" y="266"/>
      <point x="70" y="266" type="curve" smooth="yes"/>
    </contour>
  </outline>
</glyph>
<glyph name="greater" format="1">
  <advance width="766"/>
  <unicode hex="003E"/>
  <outline>
    <contour>
      <point x="104" y="209" type="curve" smooth="yes"/>
      <point x="570" y="429" type="line" smooth="yes"/>
      <point x="601" y="444"/>
      <point x="626" y="475"/>
      <point x="630" y="510" type="curve" smooth="yes"/>
      <point x="635" y="545"/>
      <point x="619" y="576"/>
      <point x="591" y="591" type="curve" smooth="yes"/>
      <point x="182" y="811" type="line" smooth="yes"/>
      <point x="173" y="816"/>
      <point x="161" y="819"/>
      <point x="149" y="819" type="curve" smooth="yes"/>
      <point x="106" y="818"/>
      <point x="66" y="782"/>
      <point x="60" y="739" type="curve" smooth="yes"/>
      <point x="56" y="708"/>
      <point x="69" y="682"/>
      <point x="92" y="669" type="curve" smooth="yes"/>
      <point x="388" y="510" type="line"/>
      <point x="51" y="351" type="line" smooth="yes"/>
      <point x="24" y="338"/>
      <point x="4" y="312"/>
      <point x="1" y="281" type="curve" smooth="yes"/>
      <point x="-4" y="238"/>
      <point x="26" y="202"/>
      <point x="68" y="201" type="curve" smooth="yes"/>
      <point x="81" y="201"/>
      <point x="93" y="204"/>
    </contour>
  </outline>
</glyph>
<glyph name="question" format="1">
  <advance width="728"/>
  <unicode hex="003F"/>
  <outline>
    <contour>
      <point x="298" y="102" type="line" smooth="yes"/>
      <point x="303" y="147"/>
      <point x="266" y="183"/>
      <point x="214" y="183" type="curve" smooth="yes"/>
      <point x="163" y="183"/>
      <point x="116" y="147"/>
      <point x="111" y="102" type="curve" smooth="yes"/>
      <point x="107" y="76" type="line" smooth="yes"/>
      <point x="101" y="31"/>
      <point x="138" y="-5"/>
      <point x="190" y="-5" type="curve" smooth="yes"/>
      <point x="242" y="-5"/>
      <point x="288" y="31"/>
      <point x="294" y="76" type="curve" smooth="yes"/>
    </contour>
    <contour>
      <point x="5" y="809" type="curve"/>
      <point x="-11" y="770"/>
      <point x="10" y="728"/>
      <point x="52" y="714" type="curve" smooth="yes"/>
      <point x="94" y="701"/>
      <point x="142" y="722"/>
      <point x="160" y="761" type="curve" smooth="yes"/>
      <point x="189" y="820"/>
      <point x="256" y="856"/>
      <point x="322" y="846" type="curve" smooth="yes"/>
      <point x="387" y="836"/>
      <point x="429" y="784"/>
      <point x="421" y="722" type="curve" smooth="yes"/>
      <point x="414" y="675"/>
      <point x="374" y="646"/>
      <point x="338" y="624" type="curve" smooth="yes"/>
      <point x="252" y="570"/>
      <point x="171" y="499"/>
      <point x="157" y="393" type="curve" smooth="yes"/>
      <point x="152" y="353"/>
      <point x="185" y="320"/>
      <point x="232" y="320" type="curve" smooth="yes"/>
      <point x="279" y="320"/>
      <point x="322" y="353"/>
      <point x="327" y="393" type="curve" smooth="yes"/>
      <point x="333" y="440"/>
      <point x="373" y="469"/>
      <point x="410" y="491" type="curve" smooth="yes"/>
      <point x="496" y="545"/>
      <point x="577" y="616"/>
      <point x="591" y="722" type="curve" smooth="yes"/>
      <point x="609" y="862"/>
      <point x="516" y="979"/>
      <point x="369" y="1001" type="curve" smooth="yes"/>
      <point x="221" y="1023"/>
      <point x="69" y="943"/>
    </contour>
  </outline>
</glyph>
<glyph name="A" format="1">
  <advance width="1039"/>
  <unicode hex="0041"/>
  <outline>
    <contour>
      <point x="350" y="399" type="line"/>
      <point x="540" y="753" type="line"/>
      <point x="638" y="399" type="line"/>
    </contour>
    <contour>
      <point x="736" y="42" type="line"/>
      <point x="750" y="2"/>
      <point x="798" y="-16"/>
      <point x="843" y="2" type="curve" smooth="yes"/>
      <point x="888" y="20"/>
      <point x="914" y="66"/>
      <point x="900" y="106" type="curve"/>
      <point x="670" y="942" type="line"/>
      <point x="656" y="982"/>
      <point x="618" y="1005"/>
      <point x="571" y="1005" type="curve" smooth="yes"/>
      <point x="524" y="1004"/>
      <point x="481" y="979"/>
      <point x="458" y="938" type="curve" smooth="yes"/>
      <point x="11" y="103" type="line" smooth="yes"/>
      <point x="-12" y="63"/>
      <point x="3" y="17"/>
      <point x="44" y="1" type="curve" smooth="yes"/>
      <point x="86" y="-15"/>
      <point x="138" y="4"/>
      <point x="161" y="44" type="curve" smooth="yes"/>
      <point x="266" y="241" type="line"/>
      <point x="681" y="241" type="line"/>
    </contour>
  </outline>
</glyph>
<glyph name="B" format="1">
  <advance width="861"/>
  <unicode hex="0042"/>
  <outline>
    <contour>
      <point x="218" y="451" type="line"/>
      <point x="414" y="451" type="line" smooth="yes"/>
      <point x="499" y="451"/>
      <point x="560" y="386"/>
      <point x="549" y="304" type="curve" smooth="yes"/>
      <point x="539" y="223"/>
      <point x="461" y="157"/>
      <point x="376" y="157" type="curve" smooth="yes"/>
      <point x="180" y="157" type="line"/>
    </contour>
    <contour>
      <point x="269" y="843" type="line"/>
      <point x="438" y="843" type="line" smooth="yes"/>
      <point x="505" y="843"/>
      <point x="554" y="790"/>
      <point x="545" y="726" type="curve" smooth="yes"/>
      <point x="537" y="661"/>
      <point x="475" y="609"/>
      <point x="407" y="609" type="curve" smooth="yes"/>
      <point x="239" y="609" type="line"/>
    </contour>
    <contour>
      <point x="356" y="0" type="line" smooth="yes"/>
      <point x="537" y="0"/>
      <point x="702" y="136"/>
      <point x="724" y="304" type="curve" smooth="yes"/>
      <point x="739" y="418"/>
      <point x="665" y="512"/>
      <point x="554" y="536" type="curve"/>
      <point x="640" y="565"/>
      <point x="708" y="639"/>
      <point x="719" y="726" type="curve" smooth="yes"/>
      <point x="739" y="877"/>
      <point x="622" y="1000"/>
      <point x="458" y="1000" type="curve" smooth="yes"/>
      <point x="217" y="1000" type="line" smooth="yes"/>
      <point x="163" y="1000"/>
      <point x="115" y="962"/>
      <point x="109" y="916" type="curve" smooth="yes"/>
      <point x="1" y="84" type="line" smooth="yes"/>
      <point x="-5" y="38"/>
      <point x="33" y="0"/>
      <point x="87" y="0" type="curve" smooth="yes"/>
    </contour>
  </outline>
</glyph>
<glyph name="C" format="1">
  <advance width="960"/>
  <unicode hex="0043"/>
  <outline>
    <contour>
      <point x="398" y="0" type="line" smooth="yes"/>
      <point x="516" y="0"/>
      <point x="629" y="53"/>
      <point x="716" y="138" type="curve" smooth="yes"/>
      <point x="747" y="169"/>
      <point x="751" y="218"/>
      <point x="722" y="249" type="curve" smooth="yes"/>
      <point x="694" y="280"/>
      <point x="645" y="280"/>
      <point x="612" y="251" type="curve"/>
      <point x="558" y="194"/>
      <point x="489" y="157"/>
      <point x="419" y="157" type="curve" smooth="yes"/>
      <point x="389" y="157" type="line" smooth="yes"/>
      <point x="243" y="157"/>
      <point x="160" y="298"/>
      <point x="183" y="472" type="curve" smooth="yes"/>
      <point x="190" y="528" type="line" smooth="yes"/>
      <point x="211" y="694"/>
      <point x="341" y="843"/>
      <point x="478" y="843" type="curve" smooth="yes"/>
      <point x="508" y="843" type="line" smooth="yes"/>
      <point x="583" y="843"/>
      <point x="642" y="808"/>
      <point x="679" y="751" type="curve"/>
      <point x="704" y="721"/>
      <point x="753" y="721"/>
      <point x="790" y="752" type="curve" smooth="yes"/>
      <point x="826" y="782"/>
      <point x="835" y="832"/>
      <point x="811" y="862" type="curve" smooth="yes"/>
      <point x="745" y="947"/>
      <point x="646" y="1000"/>
      <point x="528" y="1000" type="curve" smooth="yes"/>
      <point x="498" y="1000" type="line" smooth="yes"/>
      <point x="263" y="1000"/>
      <point x="46" y="788"/>
      <point x="12" y="528" type="curve" smooth="yes"/>
      <point x="4" y="472" type="line" smooth="yes"/>
      <point x="-29" y="212"/>
      <point x="133" y="0"/>
      <point x="368" y="0" type="curve" smooth="yes"/>
    </contour>
  </outline>
</glyph>
<glyph name="Latin_Capital_Letter_C" format="1">
  <advance width="826"/>
  <unicode hex="0043"/>
  <outline>
    <contour>
      <point x="398" y="0" type="line" smooth="yes"/>
      <point x="516" y="0"/>
      <point x="629" y="53"/>
      <point x="716" y="138" type="curve" smooth="yes"/>
      <point x="750" y="171"/>
      <point x="755" y="222"/>
      <point x="727" y="253" type="curve" smooth="yes"/>
      <point x="698" y="284"/>
      <point x="647" y="282"/>
      <point x="612" y="251" type="curve"/>
      <point x="558" y="194"/>
      <point x="489" y="157"/>
      <point x="419" y="157" type="curve" smooth="yes"/>
      <point x="389" y="157" type="line" smooth="yes"/>
      <point x="251" y="157"/>
      <point x="172" y="298"/>
      <point x="195" y="472" type="curve" smooth="yes"/>
      <point x="202" y="528" type="line" smooth="yes"/>
      <point x="223" y="694"/>
      <point x="348" y="843"/>
      <point x="478" y="843" type="curve" smooth="yes"/>
      <point x="508" y="843" type="line" smooth="yes"/>
      <point x="583" y="843"/>
      <point x="642" y="808"/>
      <point x="679" y="751" type="curve"/>
      <point x="706" y="718"/>
      <point x="757" y="717"/>
      <point x="793" y="748" type="curve" smooth="yes"/>
      <point x="829" y="778"/>
      <point x="837" y="829"/>
      <point x="811" y="862" type="curve" smooth="yes"/>
      <point x="745" y="947"/>
      <point x="646" y="1000"/>
      <point x="528" y="1000" type="curve" smooth="yes"/>
      <point x="498" y="1000" type="line" smooth="yes"/>
      <point x="263" y="1000"/>
      <point x="46" y="788"/>
      <point x="12" y="528" type="curve" smooth="yes"/>
      <point x="4" y="472" type="line" smooth="yes"/>
      <point x="-29" y="212"/>
      <point x="133" y="0"/>
      <point x="368" y="0" type="curve" smooth="yes"/>
    </contour>
  </outline>
</glyph>
<glyph name="D" format="1">
  <advance width="956"/>
  <unicode hex="0044"/>
  <outline>
    <contour>
      <point x="323" y="0" type="line" smooth="yes"/>
      <point x="558" y="0"/>
      <point x="775" y="212"/>
      <point x="809" y="472" type="curve" smooth="yes"/>
      <point x="816" y="528" type="line" smooth="yes"/>
      <point x="850" y="788"/>
      <point x="688" y="1000"/>
      <point x="453" y="1000" type="curve" smooth="yes"/>
      <point x="217" y="1000" type="line" smooth="yes"/>
      <point x="163" y="1000"/>
      <point x="115" y="962"/>
      <point x="109" y="916" type="curve" smooth="yes"/>
      <point x="1" y="84" type="line" smooth="yes"/>
      <point x="-5" y="38"/>
      <point x="33" y="0"/>
      <point x="87" y="0" type="curve" smooth="yes"/>
    </contour>
    <contour>
      <point x="269" y="843" type="line"/>
      <point x="440" y="843" type="line" smooth="yes"/>
      <point x="585" y="843"/>
      <point x="669" y="702"/>
      <point x="646" y="528" type="curve" smooth="yes"/>
      <point x="639" y="472" type="line" smooth="yes"/>
      <point x="618" y="306"/>
      <point x="488" y="157"/>
      <point x="351" y="157" type="curve" smooth="yes"/>
      <point x="180" y="157" type="line"/>
    </contour>
  </outline>
</glyph>
<glyph name="E" format="1">
  <advance width="900"/>
  <unicode hex="0045"/>
  <outline>
    <contour>
      <point x="561" y="6" type="line" smooth="yes"/>
      <point x="608" y="6"/>
      <point x="651" y="42"/>
      <point x="656" y="85" type="curve"/>
      <point x="656" y="85" type="line"/>
      <point x="662" y="128"/>
      <point x="628" y="164"/>
      <point x="581" y="164" type="curve" smooth="yes"/>
      <point x="180" y="164" type="line"/>
      <point x="215" y="431" type="line"/>
      <point x="467" y="431" type="line" smooth="yes"/>
      <point x="514" y="431"/>
      <point x="557" y="467"/>
      <point x="563" y="510" type="curve"/>
      <point x="563" y="510" type="line"/>
      <point x="568" y="553"/>
      <point x="535" y="589"/>
      <point x="488" y="589" type="curve" smooth="yes"/>
      <point x="235" y="589" type="line"/>
      <point x="268" y="836" type="line"/>
      <point x="669" y="836" type="line" smooth="yes"/>
      <point x="716" y="836"/>
      <point x="758" y="872"/>
      <point x="764" y="915" type="curve"/>
      <point x="764" y="915" type="line"/>
      <point x="770" y="958"/>
      <point x="736" y="994"/>
      <point x="689" y="994" type="curve" smooth="yes"/>
      <point x="217" y="1000" type="line" smooth="yes"/>
      <point x="163" y="1000"/>
      <point x="114" y="960"/>
      <point x="107" y="910" type="curve" smooth="yes"/>
      <point x="1" y="90" type="line" smooth="yes"/>
      <point x="-6" y="40"/>
      <point x="33" y="0"/>
      <point x="87" y="0" type="curve" smooth="yes"/>
    </contour>
  </outline>
</glyph>
<glyph name="F" format="1">
  <advance width="902"/>
  <unicode hex="0046"/>
  <outline>
    <contour>
      <point x="171" y="74" type="curve" smooth="yes"/>
      <point x="217" y="431" type="line"/>
      <point x="469" y="431" type="line" smooth="yes"/>
      <point x="516" y="431"/>
      <point x="559" y="467"/>
      <point x="565" y="510" type="curve"/>
      <point x="565" y="510" type="line"/>
      <point x="570" y="553"/>
      <point x="537" y="589"/>
      <point x="490" y="589" type="curve" smooth="yes"/>
      <point x="238" y="589" type="line"/>
      <point x="270" y="836" type="line"/>
      <point x="671" y="836" type="line" smooth="yes"/>
      <point x="718" y="836"/>
      <point x="760" y="872"/>
      <point x="766" y="915" type="curve"/>
      <point x="766" y="915" type="line"/>
      <point x="772" y="958"/>
      <point x="738" y="994"/>
      <point x="691" y="994" type="curve" smooth="yes"/>
      <point x="219" y="1000" type="line" smooth="yes"/>
      <point x="165" y="1000"/>
      <point x="116" y="960"/>
      <point x="109" y="910" type="curve" smooth="yes"/>
      <point x="1" y="74" type="line" smooth="yes"/>
      <point x="-5" y="30"/>
      <point x="28" y="-5"/>
      <point x="75" y="-5" type="curve" smooth="yes"/>
      <point x="122" y="-5"/>
      <point x="165" y="30"/>
    </contour>
  </outline>
</glyph>
<glyph name="G" format="1">
  <advance width="999"/>
  <unicode hex="0047"/>
  <outline>
    <contour>
      <point x="542" y="549" type="line" smooth="yes"/>
      <point x="498" y="549"/>
      <point x="458" y="513"/>
      <point x="452" y="470" type="curve" smooth="yes"/>
      <point x="446" y="427"/>
      <point x="477" y="391"/>
      <point x="521" y="391" type="curve" smooth="yes"/>
      <point x="671" y="391" type="line"/>
      <point x="628" y="262"/>
      <point x="525" y="157"/>
      <point x="419" y="157" type="curve" smooth="yes"/>
      <point x="389" y="157" type="line" smooth="yes"/>
      <point x="243" y="157"/>
      <point x="160" y="298"/>
      <point x="183" y="472" type="curve" smooth="yes"/>
      <point x="190" y="528" type="line" smooth="yes"/>
      <point x="211" y="694"/>
      <point x="341" y="843"/>
      <point x="478" y="843" type="curve" smooth="yes"/>
      <point x="508" y="843" type="line" smooth="yes"/>
      <point x="583" y="843"/>
      <point x="642" y="808"/>
      <point x="679" y="751" type="curve"/>
      <point x="704" y="721"/>
      <point x="753" y="721"/>
      <point x="790" y="752" type="curve" smooth="yes"/>
      <point x="826" y="782"/>
      <point x="835" y="832"/>
      <point x="811" y="862" type="curve" smooth="yes"/>
      <point x="745" y="947"/>
      <point x="646" y="1000"/>
      <point x="528" y="1000" type="curve" smooth="yes"/>
      <point x="498" y="1000" type="line" smooth="yes"/>
      <point x="263" y="1000"/>
      <point x="46" y="788"/>
      <point x="12" y="528" type="curve" smooth="yes"/>
      <point x="4" y="472" type="line" smooth="yes"/>
      <point x="-29" y="212"/>
      <point x="133" y="0"/>
      <point x="368" y="0" type="curve" smooth="yes"/>
      <point x="398" y="0" type="line" smooth="yes"/>
      <point x="619" y="0"/>
      <point x="825" y="210"/>
      <point x="862" y="470" type="curve"/>
      <point x="871" y="513"/>
      <point x="840" y="549"/>
      <point x="796" y="549" type="curve" smooth="yes"/>
    </contour>
  </outline>
</glyph>
<glyph name="Latin_Capital_Letter_G" format="1">
  <advance width="1024"/>
  <unicode hex="0047"/>
  <outline>
    <contour>
      <point x="559" y="549" type="line" smooth="yes"/>
      <point x="512" y="549"/>
      <point x="470" y="513"/>
      <point x="464" y="470" type="curve" smooth="yes"/>
      <point x="458" y="427"/>
      <point x="492" y="391"/>
      <point x="539" y="391" type="curve" smooth="yes"/>
      <point x="695" y="391" type="line"/>
      <point x="649" y="261"/>
      <point x="537" y="157"/>
      <point x="419" y="157" type="curve" smooth="yes"/>
      <point x="389" y="157" type="line" smooth="yes"/>
      <point x="251" y="157"/>
      <point x="172" y="298"/>
      <point x="195" y="472" type="curve" smooth="yes"/>
      <point x="202" y="528" type="line" smooth="yes"/>
      <point x="223" y="694"/>
      <point x="348" y="843"/>
      <point x="478" y="843" type="curve" smooth="yes"/>
      <point x="508" y="843" type="line" smooth="yes"/>
      <point x="583" y="843"/>
      <point x="642" y="808"/>
      <point x="679" y="751" type="curve"/>
      <point x="706" y="718"/>
      <point x="757" y="717"/>
      <point x="793" y="748" type="curve" smooth="yes"/>
      <point x="829" y="778"/>
      <point x="837" y="829"/>
      <point x="811" y="862" type="curve" smooth="yes"/>
      <point x="745" y="947"/>
      <point x="646" y="1000"/>
      <point x="528" y="1000" type="curve" smooth="yes"/>
      <point x="498" y="1000" type="line" smooth="yes"/>
      <point x="263" y="1000"/>
      <point x="46" y="788"/>
      <point x="12" y="528" type="curve" smooth="yes"/>
      <point x="4" y="472" type="line" smooth="yes"/>
      <point x="-29" y="212"/>
      <point x="133" y="0"/>
      <point x="368" y="0" type="curve" smooth="yes"/>
      <point x="398" y="0" type="line" smooth="yes"/>
      <point x="633" y="0"/>
      <point x="850" y="210"/>
      <point x="887" y="470" type="curve"/>
      <point x="896" y="513"/>
      <point x="863" y="549"/>
      <point x="816" y="549" type="curve" smooth="yes"/>
    </contour>
  </outline>
</glyph>
<glyph name="H" format="1">
  <advance width="995"/>
  <unicode hex="0048"/>
  <outline>
    <contour>
      <point x="218" y="431" type="line"/>
      <point x="625" y="431" type="line"/>
      <point x="577" y="69" type="line" smooth="yes"/>
      <point x="572" y="28"/>
      <point x="606" y="-5"/>
      <point x="653" y="-5" type="curve" smooth="yes"/>
      <point x="700" y="-5"/>
      <point x="742" y="28"/>
      <point x="747" y="69" type="curve" smooth="yes"/>
      <point x="860" y="931" type="line" smooth="yes"/>
      <point x="865" y="972"/>
      <point x="831" y="1005"/>
      <point x="784" y="1005" type="curve" smooth="yes"/>
      <point x="737" y="1005"/>
      <point x="695" y="972"/>
      <point x="690" y="931" type="curve" smooth="yes"/>
      <point x="645" y="589" type="line"/>
      <point x="238" y="589" type="line"/>
      <point x="283" y="931" type="line" smooth="yes"/>
      <point x="288" y="972"/>
      <point x="254" y="1005"/>
      <point x="207" y="1005" type="curve" smooth="yes"/>
      <point x="160" y="1005"/>
      <point x="118" y="972"/>
      <point x="113" y="931" type="curve" smooth="yes"/>
      <point x="1" y="69" type="line" smooth="yes"/>
      <point x="-5" y="28"/>
      <point x="29" y="-5"/>
      <point x="76" y="-5" type="curve" smooth="yes"/>
      <point x="123" y="-5"/>
      <point x="165" y="28"/>
      <point x="171" y="69" type="curve" smooth="yes"/>
    </contour>
  </outline>
</glyph>
<glyph name="I" format="1">
  <advance width="417"/>
  <unicode hex="0049"/>
  <outline>
    <contour>
      <point x="281" y="926" type="line" smooth="yes"/>
      <point x="287" y="970"/>
      <point x="254" y="1005"/>
      <point x="207" y="1005" type="curve" smooth="yes"/>
      <point x="160" y="1005"/>
      <point x="117" y="970"/>
      <point x="111" y="926" type="curve" smooth="yes"/>
      <point x="1" y="74" type="line" smooth="yes"/>
      <point x="-5" y="30"/>
      <point x="28" y="-5"/>
      <point x="75" y="-5" type="curve" smooth="yes"/>
      <point x="122" y="-5"/>
      <point x="165" y="30"/>
      <point x="171" y="74" type="curve" smooth="yes"/>
    </contour>
  </outline>
</glyph>
<glyph name="J" format="1">
  <advance width="745"/>
  <unicode hex="004A"/>
  <outline>
    <contour>
      <point x="353" y="267" type="line" smooth="yes"/>
      <point x="347" y="220"/>
      <point x="315" y="179"/>
      <point x="269" y="161" type="curve" smooth="yes"/>
      <point x="223" y="143"/>
      <point x="178" y="153"/>
      <point x="149" y="186" type="curve" smooth="yes"/>
      <point x="123" y="218"/>
      <point x="73" y="219"/>
      <point x="36" y="188" type="curve" smooth="yes"/>
      <point x="-2" y="157"/>
      <point x="-11" y="107"/>
      <point x="14" y="75" type="curve"/>
      <point x="87" y="-5"/>
      <point x="201" y="-27"/>
      <point x="315" y="16" type="curve" smooth="yes"/>
      <point x="429" y="59"/>
      <point x="508" y="154"/>
      <point x="523" y="267" type="curve" smooth="yes"/>
      <point x="609" y="931" type="line" smooth="yes"/>
      <point x="614" y="972"/>
      <point x="581" y="1005"/>
      <point x="534" y="1005" type="curve" smooth="yes"/>
      <point x="487" y="1005"/>
      <point x="444" y="972"/>
      <point x="439" y="931" type="curve" smooth="yes"/>
    </contour>
  </outline>
</glyph>
<glyph name="K" format="1">
  <advance width="915"/>
  <unicode hex="004B"/>
  <outline>
    <contour>
      <point x="193" y="245" type="line"/>
      <point x="313" y="380" type="line"/>
      <point x="508" y="29" type="line" smooth="yes"/>
      <point x="529" y="-6"/>
      <point x="581" y="-15"/>
      <point x="623" y="9" type="curve" smooth="yes"/>
      <point x="665" y="34"/>
      <point x="681" y="83"/>
      <point x="659" y="118" type="curve"/>
      <point x="437" y="519" type="line"/>
      <point x="756" y="879" type="line" smooth="yes"/>
      <point x="789" y="913"/>
      <point x="788" y="962"/>
      <point x="754" y="989" type="curve" smooth="yes"/>
      <point x="720" y="1015"/>
      <point x="666" y="1008"/>
      <point x="633" y="974" type="curve" smooth="yes"/>
      <point x="228" y="519" type="line"/>
      <point x="281" y="926" type="line" smooth="yes"/>
      <point x="287" y="970"/>
      <point x="254" y="1005"/>
      <point x="207" y="1005" type="curve" smooth="yes"/>
      <point x="160" y="1005"/>
      <point x="117" y="970"/>
      <point x="111" y="926" type="curve" smooth="yes"/>
      <point x="1" y="74" type="line" smooth="yes"/>
      <point x="-5" y="30"/>
      <point x="28" y="-5"/>
      <point x="75" y="-5" type="curve" smooth="yes"/>
      <point x="122" y="-5"/>
      <point x="165" y="30"/>
      <point x="171" y="74" type="curve" smooth="yes"/>
    </contour>
  </outline>
</glyph>
<glyph name="L" format="1">
  <advance width="768"/>
  <unicode hex="004C"/>
  <outline>
    <contour>
      <point x="542" y="0" type="line" smooth="yes"/>
      <point x="586" y="0"/>
      <point x="626" y="35"/>
      <point x="632" y="79" type="curve" smooth="yes"/>
      <point x="637" y="122"/>
      <point x="606" y="157"/>
      <point x="563" y="157" type="curve" smooth="yes"/>
      <point x="180" y="157" type="line"/>
      <point x="281" y="931" type="line" smooth="yes"/>
      <point x="286" y="972"/>
      <point x="252" y="1005"/>
      <point x="205" y="1005" type="curve" smooth="yes"/>
      <point x="158" y="1005"/>
      <point x="116" y="972"/>
      <point x="111" y="931" type="curve" smooth="yes"/>
      <point x="1" y="84" type="line" smooth="yes"/>
      <point x="-5" y="38"/>
      <point x="33" y="0"/>
      <point x="87" y="0" type="curve" smooth="yes"/>
    </contour>
  </outline>
</glyph>
<glyph name="Latin_Capital_Letter_L" format="1">
  <advance width="812"/>
  <unicode hex="004C"/>
  <outline>
    <contour>
      <point x="581" y="0" type="line" smooth="yes"/>
      <point x="628" y="0"/>
      <point x="670" y="35"/>
      <point x="676" y="79" type="curve"/>
      <point x="676" y="79" type="line"/>
      <point x="682" y="122"/>
      <point x="648" y="157"/>
      <point x="601" y="157" type="curve" smooth="yes"/>
      <point x="179" y="157" type="line"/>
      <point x="279" y="926" type="line" smooth="yes"/>
      <point x="285" y="970"/>
      <point x="252" y="1005"/>
      <point x="205" y="1005" type="curve" smooth="yes"/>
      <point x="158" y="1005"/>
      <point x="115" y="970"/>
      <point x="109" y="926" type="curve" smooth="yes"/>
      <point x="1" y="90" type="line" smooth="yes"/>
      <point x="-6" y="40"/>
      <point x="33" y="0"/>
      <point x="87" y="0" type="curve" smooth="yes"/>
    </contour>
  </outline>
</glyph>
<glyph name="M" format="1">
  <advance width="1186"/>
  <unicode hex="004D"/>
  <outline>
    <contour>
      <point x="432" y="403" type="line" smooth="yes"/>
      <point x="448" y="379"/>
      <point x="475" y="366"/>
      <point x="508" y="366" type="curve" smooth="yes"/>
      <point x="542" y="366"/>
      <point x="572" y="379"/>
      <point x="594" y="403" type="curve" smooth="yes"/>
      <point x="850" y="694" type="line"/>
      <point x="769" y="69" type="line" smooth="yes"/>
      <point x="764" y="28"/>
      <point x="798" y="-5"/>
      <point x="845" y="-5" type="curve" smooth="yes"/>
      <point x="892" y="-5"/>
      <point x="934" y="28"/>
      <point x="939" y="69" type="curve" smooth="yes"/>
      <point x="1050" y="920" type="line" smooth="yes"/>
      <point x="1055" y="958"/>
      <point x="1032" y="990"/>
      <point x="991" y="1001" type="curve" smooth="yes"/>
      <point x="951" y="1012"/>
      <point x="906" y="999"/>
      <point x="878" y="968" type="curve" smooth="yes"/>
      <point x="535" y="570" type="line"/>
      <point x="296" y="968" type="line"/>
      <point x="275" y="999"/>
      <point x="234" y="1012"/>
      <point x="191" y="1001" type="curve" smooth="yes"/>
      <point x="147" y="990"/>
      <point x="116" y="958"/>
      <point x="111" y="920" type="curve" smooth="yes"/>
      <point x="1" y="69" type="line" smooth="yes"/>
      <point x="-5" y="28"/>
      <point x="29" y="-5"/>
      <point x="76" y="-5" type="curve" smooth="yes"/>
      <point x="123" y="-5"/>
      <point x="165" y="28"/>
      <point x="171" y="69" type="curve" smooth="yes"/>
      <point x="252" y="694" type="line"/>
    </contour>
  </outline>
</glyph>
<glyph name="Latin_Capital_Letter_N" format="1">
  <advance width="1014"/>
  <unicode hex="004E"/>
  <outline>
    <contour>
      <point x="244" y="641" type="line"/>
      <point x="583" y="37" type="line" smooth="yes"/>
      <point x="602" y="3"/>
      <point x="644" y="-13"/>
      <point x="688" y="-1" type="curve" smooth="yes"/>
      <point x="732" y="10"/>
      <point x="764" y="45"/>
      <point x="769" y="86" type="curve" smooth="yes"/>
      <point x="879" y="926" type="line" smooth="yes"/>
      <point x="884" y="970"/>
      <point x="851" y="1005"/>
      <point x="804" y="1005" type="curve" smooth="yes"/>
      <point x="757" y="1005"/>
      <point x="714" y="970"/>
      <point x="709" y="926" type="curve" smooth="yes"/>
      <point x="635" y="359" type="line"/>
      <point x="296" y="963" type="line" smooth="yes"/>
      <point x="277" y="997"/>
      <point x="235" y="1013"/>
      <point x="191" y="1001" type="curve" smooth="yes"/>
      <point x="148" y="990"/>
      <point x="115" y="955"/>
      <point x="110" y="914" type="curve" smooth="yes"/>
      <point x="1" y="74" type="line" smooth="yes"/>
      <point x="-5" y="30"/>
      <point x="28" y="-5"/>
      <point x="75" y="-5" type="curve" smooth="yes"/>
      <point x="122" y="-5"/>
      <point x="165" y="30"/>
      <point x="171" y="74" type="curve" smooth="yes"/>
    </contour>
  </outline>
</glyph>
<glyph name="N" format="1">
  <advance width="1014"/>
  <unicode hex="004E"/>
  <outline>
    <contour>
      <point x="244" y="642" type="line"/>
      <point x="584" y="34" type="line"/>
      <point x="605" y="1"/>
      <point x="646" y="-13"/>
      <point x="689" y="-1" type="curve" smooth="yes"/>
      <point x="733" y="11"/>
      <point x="764" y="45"/>
      <point x="769" y="86" type="curve" smooth="yes"/>
      <point x="879" y="926" type="line" smooth="yes"/>
      <point x="884" y="970"/>
      <point x="851" y="1005"/>
      <point x="804" y="1005" type="curve" smooth="yes"/>
      <point x="757" y="1005"/>
      <point x="714" y="970"/>
      <point x="709" y="926" type="curve" smooth="yes"/>
      <point x="635" y="358" type="line"/>
      <point x="295" y="966" type="line"/>
      <point x="274" y="999"/>
      <point x="233" y="1013"/>
      <point x="190" y="1001" type="curve" smooth="yes"/>
      <point x="147" y="989"/>
      <point x="115" y="955"/>
      <point x="110" y="914" type="curve" smooth="yes"/>
      <point x="1" y="74" type="line" smooth="yes"/>
      <point x="-5" y="30"/>
      <point x="28" y="-5"/>
      <point x="75" y="-5" type="curve" smooth="yes"/>
      <point x="122" y="-5"/>
      <point x="165" y="30"/>
      <point x="171" y="74" type="curve" smooth="yes"/>
    </contour>
  </outline>
</glyph>
<glyph name="P" format="1">
  <advance width="874"/>
  <unicode hex="0050"/>
  <outline>
    <contour>
      <point x="171" y="69" type="curve" smooth="yes"/>
      <point x="210" y="371" type="line"/>
      <point x="355" y="371" type="line" smooth="yes"/>
      <point x="543" y="371"/>
      <point x="712" y="509"/>
      <point x="734" y="679" type="curve" smooth="yes"/>
      <point x="736" y="692" type="line" smooth="yes"/>
      <point x="758" y="862"/>
      <point x="624" y="1000"/>
      <point x="437" y="1000" type="curve" smooth="yes"/>
      <point x="219" y="1000" type="line" smooth="yes"/>
      <point x="165" y="1000"/>
      <point x="117" y="962"/>
      <point x="111" y="916" type="curve" smooth="yes"/>
      <point x="1" y="69" type="line" smooth="yes"/>
      <point x="-5" y="28"/>
      <point x="29" y="-5"/>
      <point x="76" y="-5" type="curve" smooth="yes"/>
      <point x="123" y="-5"/>
      <point x="165" y="28"/>
    </contour>
    <contour>
      <point x="271" y="843" type="line"/>
      <point x="417" y="843" type="line" smooth="yes"/>
      <point x="502" y="843"/>
      <point x="564" y="775"/>
      <point x="553" y="692" type="curve"/>
      <point x="552" y="679" type="line"/>
      <point x="541" y="595"/>
      <point x="462" y="529"/>
      <point x="376" y="529" type="curve" smooth="yes"/>
      <point x="230" y="529" type="line"/>
    </contour>
  </outline>
</glyph>
<glyph name="Q" format="1">
  <advance width="1032"/>
  <unicode hex="0051"/>
  <outline>
    <contour>
      <point x="182" y="472" type="curve" smooth="yes"/>
      <point x="190" y="528" type="line" smooth="yes"/>
      <point x="211" y="694"/>
      <point x="341" y="843"/>
      <point x="477" y="843" type="curve" smooth="yes"/>
      <point x="508" y="843" type="line" smooth="yes"/>
      <point x="653" y="843"/>
      <point x="737" y="702"/>
      <point x="714" y="528" type="curve" smooth="yes"/>
      <point x="707" y="472" type="line" smooth="yes"/>
      <point x="685" y="306"/>
      <point x="556" y="157"/>
      <point x="419" y="157" type="curve" smooth="yes"/>
      <point x="388" y="157" type="line" smooth="yes"/>
      <point x="243" y="157"/>
      <point x="160" y="298"/>
    </contour>
    <contour>
      <point x="5" y="473" type="line" smooth="yes"/>
      <point x="-20" y="286"/>
      <point x="50" y="127"/>
      <point x="191" y="46" type="curve"/>
      <point x="532" y="-127" type="line"/>
      <point x="564" y="-151"/>
      <point x="613" y="-141"/>
      <point x="643" y="-105" type="curve" smooth="yes"/>
      <point x="672" y="-69"/>
      <point x="670" y="-20"/>
      <point x="638" y="4" type="curve"/>
      <point x="562" y="34" type="line"/>
      <point x="727" y="104"/>
      <point x="859" y="274"/>
      <point x="885" y="472" type="curve" smooth="yes"/>
      <point x="892" y="528" type="line" smooth="yes"/>
      <point x="926" y="788"/>
      <point x="763" y="1000"/>
      <point x="529" y="1000" type="curve" smooth="yes"/>
      <point x="498" y="1000" type="line" smooth="yes"/>
      <point x="263" y="1000"/>
      <point x="46" y="788"/>
      <point x="12" y="528" type="curve" smooth="yes"/>
    </contour>
  </outline>
</glyph>
<glyph name="Latin_Capital_Letter_R" format="1">
  <advance width="882"/>
  <unicode hex="0052"/>
  <outline>
    <contour>
      <point x="209" y="371" type="line"/>
      <point x="359" y="371" type="line"/>
      <point x="499" y="38" type="line" smooth="yes"/>
      <point x="509" y="12"/>
      <point x="533" y="-3"/>
      <point x="564" y="-5" type="curve" smooth="yes"/>
      <point x="595" y="-6"/>
      <point x="624" y="7"/>
      <point x="645" y="31" type="curve" smooth="yes"/>
      <point x="665" y="55"/>
      <point x="670" y="84"/>
      <point x="659" y="110" type="curve" smooth="yes"/>
      <point x="533" y="410" type="line"/>
      <point x="644" y="463"/>
      <point x="728" y="563"/>
      <point x="743" y="679" type="curve"/>
      <point x="744" y="692" type="line"/>
      <point x="766" y="862"/>
      <point x="633" y="1000"/>
      <point x="446" y="1000" type="curve" smooth="yes"/>
      <point x="219" y="1000" type="line" smooth="yes"/>
      <point x="165" y="1000"/>
      <point x="116" y="960"/>
      <point x="109" y="910" type="curve" smooth="yes"/>
      <point x="1" y="74" type="line" smooth="yes"/>
      <point x="-5" y="30"/>
      <point x="28" y="-5"/>
      <point x="75" y="-5" type="curve" smooth="yes"/>
      <point x="122" y="-5"/>
      <point x="165" y="30"/>
      <point x="171" y="74" type="curve" smooth="yes"/>
    </contour>
    <contour>
      <point x="271" y="843" type="line"/>
      <point x="425" y="843" type="line" smooth="yes"/>
      <point x="511" y="843"/>
      <point x="572" y="775"/>
      <point x="562" y="692" type="curve" smooth="yes"/>
      <point x="560" y="679" type="line" smooth="yes"/>
      <point x="549" y="595"/>
      <point x="470" y="529"/>
      <point x="384" y="529" type="curve" smooth="yes"/>
      <point x="230" y="529" type="line"/>
    </contour>
  </outline>
</glyph>
<glyph name="R" format="1">
  <advance width="941"/>
  <unicode hex="0052"/>
  <outline>
    <contour>
      <point x="209" y="371" type="line"/>
      <point x="394" y="371" type="line"/>
      <point x="560" y="33" type="line" smooth="yes"/>
      <point x="580" y="-4"/>
      <point x="631" y="-16"/>
      <point x="674" y="7" type="curve" smooth="yes"/>
      <point x="717" y="30"/>
      <point x="735" y="78"/>
      <point x="715" y="115" type="curve" smooth="yes"/>
      <point x="575" y="402" type="line"/>
      <point x="694" y="452"/>
      <point x="785" y="558"/>
      <point x="801" y="679" type="curve" smooth="yes"/>
      <point x="803" y="692" type="line" smooth="yes"/>
      <point x="825" y="862"/>
      <point x="691" y="1000"/>
      <point x="504" y="1000" type="curve" smooth="yes"/>
      <point x="219" y="1000" type="line" smooth="yes"/>
      <point x="165" y="1000"/>
      <point x="116" y="960"/>
      <point x="109" y="910" type="curve" smooth="yes"/>
      <point x="1" y="74" type="line" smooth="yes"/>
      <point x="-5" y="30"/>
      <point x="28" y="-5"/>
      <point x="75" y="-5" type="curve" smooth="yes"/>
      <point x="122" y="-5"/>
      <point x="165" y="30"/>
      <point x="171" y="74" type="curve" smooth="yes"/>
    </contour>
    <contour>
      <point x="271" y="843" type="line"/>
      <point x="484" y="843" type="line" smooth="yes"/>
      <point x="576" y="843"/>
      <point x="644" y="775"/>
      <point x="633" y="692" type="curve" smooth="yes"/>
      <point x="631" y="679" type="line" smooth="yes"/>
      <point x="620" y="595"/>
      <point x="536" y="529"/>
      <point x="443" y="529" type="curve" smooth="yes"/>
      <point x="230" y="529" type="line"/>
    </contour>
  </outline>
</glyph>
<glyph name="S" format="1">
  <advance width="832"/>
  <unicode hex="0053"/>
  <outline>
    <contour>
      <point x="694" y="310" type="curve" smooth="yes"/>
      <point x="717" y="483"/>
      <point x="574" y="567"/>
      <point x="415" y="621" type="curve" smooth="yes"/>
      <point x="359" y="640"/>
      <point x="259" y="674"/>
      <point x="267" y="736" type="curve" smooth="yes"/>
      <point x="275" y="797"/>
      <point x="343" y="847"/>
      <point x="418" y="847" type="curve"/>
      <point x="418" y="847" type="line"/>
      <point x="470" y="847"/>
      <point x="512" y="837"/>
      <point x="546" y="815" type="curve"/>
      <point x="547" y="816" type="line"/>
      <point x="573" y="783"/>
      <point x="624" y="781"/>
      <point x="660" y="811" type="curve"/>
      <point x="660" y="811" type="line"/>
      <point x="697" y="842"/>
      <point x="706" y="893"/>
      <point x="680" y="925" type="curve"/>
      <point x="681" y="926" type="line"/>
      <point x="618" y="978"/>
      <point x="537" y="1005"/>
      <point x="439" y="1005" type="curve"/>
      <point x="439" y="1005" type="line"/>
      <point x="269" y="1005"/>
      <point x="116" y="884"/>
      <point x="97" y="736" type="curve" smooth="yes"/>
      <point x="78" y="587"/>
      <point x="212" y="516"/>
      <point x="347" y="470" type="curve" smooth="yes"/>
      <point x="426" y="444"/>
      <point x="536" y="396"/>
      <point x="524" y="310" type="curve" smooth="yes"/>
      <point x="513" y="223"/>
      <point x="418" y="153"/>
      <point x="313" y="153" type="curve"/>
      <point x="313" y="153" type="line"/>
      <point x="246" y="153"/>
      <point x="192" y="168"/>
      <point x="148" y="199" type="curve"/>
      <point x="147" y="198" type="line"/>
      <point x="122" y="230"/>
      <point x="71" y="232"/>
      <point x="34" y="202" type="curve"/>
      <point x="34" y="202" type="line"/>
      <point x="-2" y="172"/>
      <point x="-11" y="121"/>
      <point x="15" y="88" type="curve"/>
      <point x="14" y="87" type="line"/>
      <point x="86" y="26"/>
      <point x="179" y="-5"/>
      <point x="292" y="-5" type="curve"/>
      <point x="292" y="-5" type="line"/>
      <point x="492" y="-5"/>
      <point x="672" y="136"/>
    </contour>
  </outline>
</glyph>
<glyph name="Latin_Capital_Letter_T" format="1">
  <advance width="813"/>
  <unicode hex="0054"/>
  <outline>
    <contour>
      <point x="482" y="843" type="line"/>
      <point x="718" y="843" type="line" smooth="yes"/>
      <point x="765" y="843"/>
      <point x="807" y="878"/>
      <point x="813" y="921" type="curve"/>
      <point x="813" y="921" type="line"/>
      <point x="819" y="965"/>
      <point x="785" y="1000"/>
      <point x="738" y="1000" type="curve" smooth="yes"/>
      <point x="96" y="1000" type="line" smooth="yes"/>
      <point x="49" y="1000"/>
      <point x="6" y="965"/>
      <point x="1" y="921" type="curve"/>
      <point x="1" y="921" type="line"/>
      <point x="-5" y="878"/>
      <point x="28" y="843"/>
      <point x="75" y="843" type="curve" smooth="yes"/>
      <point x="312" y="843" type="line"/>
      <point x="212" y="74" type="line" smooth="yes"/>
      <point x="206" y="30"/>
      <point x="239" y="-5"/>
      <point x="286" y="-5" type="curve" smooth="yes"/>
      <point x="333" y="-5"/>
      <point x="376" y="30"/>
      <point x="382" y="74" type="curve" smooth="yes"/>
    </contour>
  </outline>
</glyph>
<glyph name="T" format="1">
  <advance width="962"/>
  <unicode hex="0054"/>
  <outline>
    <contour>
      <point x="488" y="836" type="line"/>
      <point x="730" y="836" type="line" smooth="yes"/>
      <point x="777" y="836"/>
      <point x="820" y="872"/>
      <point x="826" y="915" type="curve"/>
      <point x="826" y="915" type="line"/>
      <point x="831" y="958"/>
      <point x="798" y="994"/>
      <point x="751" y="994" type="curve" smooth="yes"/>
      <point x="96" y="994" type="line" smooth="yes"/>
      <point x="49" y="994"/>
      <point x="6" y="958"/>
      <point x="1" y="915" type="curve"/>
      <point x="1" y="915" type="line"/>
      <point x="-5" y="872"/>
      <point x="28" y="836"/>
      <point x="75" y="836" type="curve" smooth="yes"/>
      <point x="318" y="836" type="line"/>
      <point x="219" y="74" type="line" smooth="yes"/>
      <point x="213" y="30"/>
      <point x="247" y="-5"/>
      <point x="294" y="-5" type="curve" smooth="yes"/>
      <point x="340" y="-5"/>
      <point x="383" y="30"/>
      <point x="389" y="74" type="curve" smooth="yes"/>
    </contour>
  </outline>
</glyph>
<glyph name="Latin_Capital_Letter_U" format="1">
  <advance width="900"/>
  <unicode hex="0055"/>
  <outline>
    <contour>
      <point x="376" y="0" type="line" smooth="yes"/>
      <point x="599" y="0"/>
      <point x="807" y="212"/>
      <point x="841" y="472" type="curve" smooth="yes"/>
      <point x="900" y="926" type="line" smooth="yes"/>
      <point x="905" y="970"/>
      <point x="872" y="1005"/>
      <point x="825" y="1005" type="curve" smooth="yes"/>
      <point x="778" y="1005"/>
      <point x="735" y="970"/>
      <point x="730" y="926" type="curve" smooth="yes"/>
      <point x="671" y="472" type="line" smooth="yes"/>
      <point x="649" y="308"/>
      <point x="526" y="157"/>
      <point x="396" y="157" type="curve" smooth="yes"/>
      <point x="367" y="157" type="line" smooth="yes"/>
      <point x="226" y="157"/>
      <point x="152" y="298"/>
      <point x="175" y="472" type="curve" smooth="yes"/>
      <point x="234" y="926" type="line" smooth="yes"/>
      <point x="239" y="970"/>
      <point x="206" y="1005"/>
      <point x="159" y="1005" type="curve" smooth="yes"/>
      <point x="112" y="1005"/>
      <point x="69" y="970"/>
      <point x="64" y="926" type="curve" smooth="yes"/>
      <point x="5" y="472" type="line" smooth="yes"/>
      <point x="-29" y="212"/>
      <point x="124" y="0"/>
      <point x="347" y="0" type="curve" smooth="yes"/>
    </contour>
  </outline>
</glyph>
<glyph name="U" format="1">
  <advance width="975"/>
  <unicode hex="0055"/>
  <outline>
    <contour>
      <point x="344" y="0" type="line" smooth="yes"/>
      <point x="551" y="0"/>
      <point x="745" y="212"/>
      <point x="779" y="472" type="curve" smooth="yes"/>
      <point x="839" y="931" type="line" smooth="yes"/>
      <point x="844" y="972"/>
      <point x="811" y="1005"/>
      <point x="764" y="1005" type="curve" smooth="yes"/>
      <point x="717" y="1005"/>
      <point x="674" y="972"/>
      <point x="669" y="931" type="curve" smooth="yes"/>
      <point x="609" y="472" type="line" smooth="yes"/>
      <point x="588" y="310"/>
      <point x="478" y="157"/>
      <point x="365" y="157" type="curve" smooth="yes"/>
      <point x="338" y="157" type="line" smooth="yes"/>
      <point x="209" y="157"/>
      <point x="152" y="298"/>
      <point x="175" y="472" type="curve" smooth="yes"/>
      <point x="235" y="931" type="line" smooth="yes"/>
      <point x="240" y="972"/>
      <point x="206" y="1005"/>
      <point x="159" y="1005" type="curve" smooth="yes"/>
      <point x="112" y="1005"/>
      <point x="70" y="972"/>
      <point x="65" y="931" type="curve" smooth="yes"/>
      <point x="5" y="472" type="line" smooth="yes"/>
      <point x="-29" y="212"/>
      <point x="111" y="0"/>
      <point x="317" y="0" type="curve" smooth="yes"/>
    </contour>
  </outline>
</glyph>
<glyph name="Latin_Capital_Letter_V" format="1">
  <advance width="994"/>
  <unicode hex="0056"/>
  <outline>
    <contour>
      <point x="198" y="75" type="line" smooth="yes"/>
      <point x="210" y="26"/>
      <point x="253" y="-5"/>
      <point x="308" y="-5" type="curve" smooth="yes"/>
      <point x="364" y="-5"/>
      <point x="415" y="26"/>
      <point x="439" y="75" type="curve" smooth="yes"/>
      <point x="850" y="901" type="line" smooth="yes"/>
      <point x="871" y="942"/>
      <point x="853" y="987"/>
      <point x="810" y="1001" type="curve" smooth="yes"/>
      <point x="767" y="1015"/>
      <point x="716" y="993"/>
      <point x="696" y="951" type="curve" smooth="yes"/>
      <point x="340" y="235" type="line"/>
      <point x="169" y="951" type="line" smooth="yes"/>
      <point x="160" y="993"/>
      <point x="114" y="1015"/>
      <point x="68" y="1001" type="curve" smooth="yes"/>
      <point x="22" y="987"/>
      <point x="-8" y="942"/>
      <point x="2" y="901" type="curve" smooth="yes"/>
    </contour>
  </outline>
</glyph>
<glyph name="V" format="1">
  <advance width="994"/>
  <unicode hex="0056"/>
  <outline>
    <contour>
      <point x="200" y="67" type="line"/>
      <point x="215" y="22"/>
      <point x="258" y="-6"/>
      <point x="311" y="-5" type="curve" smooth="yes"/>
      <point x="365" y="-4"/>
      <point x="413" y="26"/>
      <point x="438" y="73" type="curve" smooth="yes"/>
      <point x="849" y="899" type="line" smooth="yes"/>
      <point x="871" y="940"/>
      <point x="854" y="985"/>
      <point x="812" y="1000" type="curve" smooth="yes"/>
      <point x="770" y="1015"/>
      <point x="718" y="994"/>
      <point x="697" y="953" type="curve" smooth="yes"/>
      <point x="339" y="235" type="line"/>
      <point x="168" y="957" type="line"/>
      <point x="155" y="997"/>
      <point x="107" y="1015"/>
      <point x="62" y="999" type="curve" smooth="yes"/>
      <point x="16" y="982"/>
      <point x="-10" y="935"/>
      <point x="3" y="895" type="curve"/>
    </contour>
  </outline>
</glyph>
<glyph name="Latin_Capital_Letter_W" format="1">
  <advance width="1355"/>
  <unicode hex="0057"/>
  <outline>
    <contour>
      <point x="169" y="59" type="line" smooth="yes"/>
      <point x="177" y="21"/>
      <point x="211" y="-5"/>
      <point x="255" y="-5" type="curve" smooth="yes"/>
      <point x="298" y="-5"/>
      <point x="339" y="21"/>
      <point x="356" y="59" type="curve" smooth="yes"/>
      <point x="652" y="727" type="line"/>
      <point x="773" y="59" type="line" smooth="yes"/>
      <point x="781" y="21"/>
      <point x="814" y="-5"/>
      <point x="858" y="-5" type="curve" smooth="yes"/>
      <point x="902" y="-5"/>
      <point x="942" y="21"/>
      <point x="960" y="59" type="curve" smooth="yes"/>
      <point x="1348" y="903" type="line" smooth="yes"/>
      <point x="1367" y="945"/>
      <point x="1347" y="989"/>
      <point x="1304" y="1001" type="curve" smooth="yes"/>
      <point x="1261" y="1014"/>
      <point x="1210" y="991"/>
      <point x="1191" y="949" type="curve" smooth="yes"/>
      <point x="894" y="277" type="line"/>
      <point x="773" y="941" type="line" smooth="yes"/>
      <point x="765" y="979"/>
      <point x="732" y="1005"/>
      <point x="688" y="1005" type="curve" smooth="yes"/>
      <point x="644" y="1005"/>
      <point x="604" y="979"/>
      <point x="586" y="941" type="curve" smooth="yes"/>
      <point x="292" y="277" type="line"/>
      <point x="170" y="949" type="line" smooth="yes"/>
      <point x="162" y="991"/>
      <point x="117" y="1014"/>
      <point x="71" y="1001" type="curve" smooth="yes"/>
      <point x="24" y="989"/>
      <point x="-7" y="945"/>
      <point x="1" y="903" type="curve" smooth="yes"/>
    </contour>
  </outline>
</glyph>
<glyph name="W" format="1">
  <advance width="1354"/>
  <unicode hex="0057"/>
  <outline>
    <contour>
      <point x="140" y="55" type="line" smooth="yes"/>
      <point x="146" y="19"/>
      <point x="179" y="-5"/>
      <point x="222" y="-5" type="curve" smooth="yes"/>
      <point x="265" y="-5"/>
      <point x="304" y="19"/>
      <point x="320" y="55" type="curve" smooth="yes"/>
      <point x="577" y="681" type="line"/>
      <point x="672" y="55" type="line" smooth="yes"/>
      <point x="678" y="19"/>
      <point x="711" y="-5"/>
      <point x="754" y="-5" type="curve" smooth="yes"/>
      <point x="797" y="-5"/>
      <point x="836" y="19"/>
      <point x="852" y="55" type="curve" smooth="yes"/>
      <point x="1212" y="906" type="line" smooth="yes"/>
      <point x="1223" y="932"/>
      <point x="1218" y="958"/>
      <point x="1199" y="978" type="curve"/>
      <point x="1179" y="997"/>
      <point x="1150" y="1004"/>
      <point x="1120" y="998" type="curve" smooth="yes"/>
      <point x="1089" y="991"/>
      <point x="1065" y="973"/>
      <point x="1054" y="947" type="curve" smooth="yes"/>
      <point x="796" y="318" type="line"/>
      <point x="702" y="945" type="line" smooth="yes"/>
      <point x="695" y="981"/>
      <point x="662" y="1005"/>
      <point x="619" y="1005" type="curve" smooth="yes"/>
      <point x="576" y="1005"/>
      <point x="537" y="981"/>
      <point x="521" y="945" type="curve" smooth="yes"/>
      <point x="264" y="318" type="line"/>
      <point x="169" y="947" type="line" smooth="yes"/>
      <point x="163" y="986"/>
      <point x="120" y="1008"/>
      <point x="74" y="997" type="curve" smooth="yes"/>
      <point x="27" y="986"/>
      <point x="-6" y="945"/>
      <point x="1" y="906" type="curve" smooth="yes"/>
    </contour>
  </outline>
</glyph>
<glyph name="Latin_Capital_Letter_X" format="1">
  <advance width="834"/>
  <unicode hex="0058"/>
  <outline>
    <contour>
      <point x="397" y="347" type="line"/>
      <point x="559" y="33" type="line" smooth="yes"/>
      <point x="579" y="-4"/>
      <point x="629" y="-16"/>
      <point x="673" y="6" type="curve" smooth="yes"/>
      <point x="716" y="29"/>
      <point x="735" y="77"/>
      <point x="716" y="114" type="curve" smooth="yes"/>
      <point x="516" y="500" type="line"/>
      <point x="816" y="886" type="line" smooth="yes"/>
      <point x="845" y="923"/>
      <point x="838" y="971"/>
      <point x="801" y="994" type="curve" smooth="yes"/>
      <point x="763" y="1016"/>
      <point x="710" y="1004"/>
      <point x="681" y="967" type="curve" smooth="yes"/>
      <point x="437" y="653" type="line"/>
      <point x="275" y="967" type="line" smooth="yes"/>
      <point x="255" y="1004"/>
      <point x="205" y="1016"/>
      <point x="161" y="994" type="curve" smooth="yes"/>
      <point x="118" y="971"/>
      <point x="99" y="923"/>
      <point x="118" y="886" type="curve" smooth="yes"/>
      <point x="318" y="500" type="line"/>
      <point x="18" y="114" type="line" smooth="yes"/>
      <point x="-11" y="77"/>
      <point x="-4" y="29"/>
      <point x="33" y="6" type="curve" smooth="yes"/>
      <point x="71" y="-16"/>
      <point x="124" y="-4"/>
      <point x="153" y="33" type="curve" smooth="yes"/>
    </contour>
  </outline>
</glyph>
<glyph name="X" format="1">
  <advance width="935"/>
  <unicode hex="0058"/>
  <outline>
    <contour>
      <point x="379" y="342" type="line"/>
      <point x="527" y="36" type="line" smooth="yes"/>
      <point x="544" y="1"/>
      <point x="593" y="-10"/>
      <point x="636" y="10" type="curve" smooth="yes"/>
      <point x="680" y="31"/>
      <point x="701" y="76"/>
      <point x="684" y="111" type="curve" smooth="yes"/>
      <point x="497" y="500" type="line"/>
      <point x="785" y="889" type="line" smooth="yes"/>
      <point x="811" y="924"/>
      <point x="802" y="969"/>
      <point x="764" y="990" type="curve" smooth="yes"/>
      <point x="726" y="1010"/>
      <point x="674" y="999"/>
      <point x="648" y="964" type="curve" smooth="yes"/>
      <point x="421" y="658" type="line"/>
      <point x="273" y="964" type="line" smooth="yes"/>
      <point x="256" y="999"/>
      <point x="207" y="1010"/>
      <point x="164" y="990" type="curve" smooth="yes"/>
      <point x="120" y="969"/>
      <point x="99" y="924"/>
      <point x="116" y="889" type="curve" smooth="yes"/>
      <point x="303" y="500" type="line"/>
      <point x="15" y="111" type="line" smooth="yes"/>
      <point x="-11" y="76"/>
      <point x="-2" y="31"/>
      <point x="36" y="10" type="curve" smooth="yes"/>
      <point x="74" y="-10"/>
      <point x="126" y="1"/>
      <point x="152" y="36" type="curve" smooth="yes"/>
    </contour>
  </outline>
</glyph>
<glyph name="Latin_Capital_Letter_Y" format="1">
  <advance width="949"/>
  <unicode hex="0059"/>
  <outline>
    <contour>
      <point x="263" y="475" type="line"/>
      <point x="211" y="74" type="line" smooth="yes"/>
      <point x="205" y="30"/>
      <point x="239" y="-5"/>
      <point x="286" y="-5" type="curve" smooth="yes"/>
      <point x="333" y="-5"/>
      <point x="375" y="30"/>
      <point x="381" y="74" type="curve" smooth="yes"/>
      <point x="433" y="475" type="line"/>
      <point x="792" y="881" type="line" smooth="yes"/>
      <point x="823" y="917"/>
      <point x="820" y="966"/>
      <point x="785" y="991" type="curve" smooth="yes"/>
      <point x="750" y="1015"/>
      <point x="695" y="1007"/>
      <point x="664" y="971" type="curve" smooth="yes"/>
      <point x="369" y="637" type="line"/>
      <point x="161" y="971" type="line" smooth="yes"/>
      <point x="139" y="1007"/>
      <point x="87" y="1015"/>
      <point x="45" y="991" type="curve" smooth="yes"/>
      <point x="4" y="966"/>
      <point x="-12" y="917"/>
      <point x="10" y="881" type="curve" smooth="yes"/>
    </contour>
  </outline>
</glyph>
<glyph name="Y" format="1">
  <advance width="949"/>
  <unicode hex="0059"/>
  <outline>
    <contour>
      <point x="263" y="475" type="line"/>
      <point x="211" y="74" type="line" smooth="yes"/>
      <point x="205" y="30"/>
      <point x="239" y="-5"/>
      <point x="286" y="-5" type="curve" smooth="yes"/>
      <point x="333" y="-5"/>
      <point x="375" y="30"/>
      <point x="381" y="74" type="curve" smooth="yes"/>
      <point x="433" y="475" type="line"/>
      <point x="790" y="879" type="line" smooth="yes"/>
      <point x="822" y="913"/>
      <point x="821" y="963"/>
      <point x="787" y="989" type="curve" smooth="yes"/>
      <point x="753" y="1015"/>
      <point x="699" y="1008"/>
      <point x="666" y="973" type="curve" smooth="yes"/>
      <point x="369" y="637" type="line"/>
      <point x="160" y="973" type="line" smooth="yes"/>
      <point x="136" y="1008"/>
      <point x="84" y="1015"/>
      <point x="43" y="989" type="curve" smooth="yes"/>
      <point x="2" y="963"/>
      <point x="-12" y="913"/>
      <point x="12" y="879" type="curve"/>
    </contour>
  </outline>
</glyph>
<glyph name="Z" format="1">
  <advance width="932"/>
  <unicode hex="005A"/>
  <outline>
    <contour>
      <point x="573" y="836" type="line"/>
      <point x="25" y="170" type="line" smooth="yes"/>
      <point x="-2" y="136"/>
      <point x="-7" y="97"/>
      <point x="9" y="63" type="curve"/>
      <point x="9" y="63" type="line"/>
      <point x="26" y="28"/>
      <point x="60" y="9"/>
      <point x="102" y="9" type="curve" smooth="yes"/>
      <point x="594" y="6" type="line" smooth="yes"/>
      <point x="641" y="6"/>
      <point x="684" y="42"/>
      <point x="689" y="85" type="curve"/>
      <point x="689" y="85" type="line"/>
      <point x="695" y="128"/>
      <point x="661" y="164"/>
      <point x="614" y="164" type="curve" smooth="yes"/>
      <point x="224" y="164" type="line"/>
      <point x="772" y="830" type="line" smooth="yes"/>
      <point x="798" y="864"/>
      <point x="804" y="903"/>
      <point x="787" y="937" type="curve"/>
      <point x="787" y="937" type="line"/>
      <point x="771" y="972"/>
      <point x="737" y="991"/>
      <point x="695" y="991" type="curve" smooth="yes"/>
      <point x="203" y="994" type="line" smooth="yes"/>
      <point x="156" y="994"/>
      <point x="113" y="958"/>
      <point x="108" y="915" type="curve"/>
      <point x="108" y="915" type="line"/>
      <point x="102" y="872"/>
      <point x="135" y="836"/>
      <point x="182" y="836" type="curve" smooth="yes"/>
    </contour>
  </outline>
</glyph>
<glyph name="bracketleft" format="1">
  <advance width="632"/>
  <unicode hex="005B"/>
  <outline>
    <contour>
      <point x="271" y="-100" type="line" smooth="yes"/>
      <point x="315" y="-100"/>
      <point x="355" y="-65"/>
      <point x="361" y="-21" type="curve" smooth="yes"/>
      <point x="367" y="22"/>
      <point x="336" y="57"/>
      <point x="292" y="57" type="curve" smooth="yes"/>
      <point x="161" y="57" type="line"/>
      <point x="277" y="943" type="line"/>
      <point x="407" y="943" type="line" smooth="yes"/>
      <point x="451" y="943"/>
      <point x="491" y="978"/>
      <point x="496" y="1021" type="curve" smooth="yes"/>
      <point x="502" y="1065"/>
      <point x="471" y="1100"/>
      <point x="427" y="1100" type="curve" smooth="yes"/>
      <point x="243" y="1100" type="line" smooth="yes"/>
      <point x="189" y="1100"/>
      <point x="141" y="1062"/>
      <point x="135" y="1016" type="curve" smooth="yes"/>
      <point x="1" y="-16" type="line" smooth="yes"/>
      <point x="-5" y="-62"/>
      <point x="33" y="-100"/>
      <point x="87" y="-100" type="curve" smooth="yes"/>
    </contour>
  </outline>
</glyph>
<glyph name="backslash" format="1">
  <advance width="507"/>
  <unicode hex="005C"/>
  <outline>
    <contour>
      <point x="1" y="1000" type="curve" smooth="yes"/>
      <point x="206" y="-51" type="line" smooth="yes"/>
      <point x="214" y="-90"/>
      <point x="256" y="-110"/>
      <point x="302" y="-96" type="curve" smooth="yes"/>
      <point x="347" y="-81"/>
      <point x="378" y="-39"/>
      <point x="370" y="0" type="curve" smooth="yes"/>
      <point x="166" y="1051" type="line" smooth="yes"/>
      <point x="158" y="1090"/>
      <point x="115" y="1110"/>
      <point x="70" y="1096" type="curve" smooth="yes"/>
      <point x="24" y="1081"/>
      <point x="-6" y="1039"/>
    </contour>
  </outline>
</glyph>
<glyph name="bracketright" format="1">
  <advance width="632"/>
  <unicode hex="005D"/>
  <outline>
    <contour>
      <point x="70" y="-100" type="curve" smooth="yes"/>
      <point x="254" y="-100" type="line" smooth="yes"/>
      <point x="308" y="-100"/>
      <point x="356" y="-62"/>
      <point x="362" y="-16" type="curve" smooth="yes"/>
      <point x="496" y="1016" type="line" smooth="yes"/>
      <point x="503" y="1062"/>
      <point x="464" y="1100"/>
      <point x="410" y="1100" type="curve" smooth="yes"/>
      <point x="226" y="1100" type="line" smooth="yes"/>
      <point x="182" y="1100"/>
      <point x="142" y="1065"/>
      <point x="136" y="1021" type="curve" smooth="yes"/>
      <point x="131" y="978"/>
      <point x="161" y="943"/>
      <point x="205" y="943" type="curve" smooth="yes"/>
      <point x="336" y="943" type="line"/>
      <point x="221" y="57" type="line"/>
      <point x="90" y="57" type="line" smooth="yes"/>
      <point x="46" y="57"/>
      <point x="6" y="22"/>
      <point x="1" y="-21" type="curve" smooth="yes"/>
      <point x="-5" y="-65"/>
      <point x="26" y="-100"/>
    </contour>
  </outline>
</glyph>
<glyph name="asciicircum" format="1">
  <advance width="687"/>
  <unicode hex="005E"/>
  <outline>
    <contour>
      <point x="23" y="752" type="line" smooth="yes"/>
      <point x="10" y="739"/>
      <point x="2" y="722"/>
      <point x="0" y="703" type="curve" smooth="yes"/>
      <point x="-4" y="660"/>
      <point x="28" y="624"/>
      <point x="71" y="623" type="curve" smooth="yes"/>
      <point x="95" y="622"/>
      <point x="118" y="632"/>
      <point x="134" y="648" type="curve" smooth="yes"/>
      <point x="289" y="812" type="line"/>
      <point x="403" y="648" type="line" smooth="yes"/>
      <point x="414" y="632"/>
      <point x="434" y="622"/>
      <point x="459" y="623" type="curve" smooth="yes"/>
      <point x="502" y="624"/>
      <point x="543" y="660"/>
      <point x="550" y="703" type="curve" smooth="yes"/>
      <point x="553" y="722"/>
      <point x="550" y="739"/>
      <point x="541" y="752" type="curve" smooth="yes"/>
      <point x="390" y="969" type="line" smooth="yes"/>
      <point x="375" y="991"/>
      <point x="347" y="1005"/>
      <point x="315" y="1005" type="curve" smooth="yes"/>
      <point x="282" y="1005"/>
      <point x="251" y="991"/>
      <point x="230" y="969" type="curve" smooth="yes"/>
    </contour>
  </outline>
</glyph>
<glyph name="underscore" format="1">
  <advance width="962"/>
  <unicode hex="005F"/>
  <outline>
    <contour>
      <point x="736" y="-199" type="line" smooth="yes"/>
      <point x="780" y="-199"/>
      <point x="820" y="-163"/>
      <point x="826" y="-120" type="curve" smooth="yes"/>
      <point x="831" y="-77"/>
      <point x="800" y="-41"/>
      <point x="757" y="-41" type="curve" smooth="yes"/>
      <point x="90" y="-41" type="line" smooth="yes"/>
      <point x="46" y="-41"/>
      <point x="6" y="-77"/>
      <point x="1" y="-120" type="curve" smooth="yes"/>
      <point x="-5" y="-163"/>
      <point x="26" y="-199"/>
      <point x="70" y="-199" type="curve" smooth="yes"/>
    </contour>
  </outline>
</glyph>
<glyph name="grave" format="1">
  <advance width="408"/>
  <unicode hex="0060"/>
  <outline>
    <contour>
      <point x="149" y="984" type="line" smooth="yes"/>
      <point x="132" y="1005"/>
      <point x="103" y="1011"/>
      <point x="71" y="998" type="curve" smooth="yes"/>
      <point x="40" y="986"/>
      <point x="15" y="960"/>
      <point x="5" y="929" type="curve" smooth="yes"/>
      <point x="-6" y="897"/>
      <point x="2" y="869"/>
      <point x="24" y="853" type="curve" smooth="yes"/>
      <point x="180" y="749" type="line" smooth="yes"/>
      <point x="200" y="735"/>
      <point x="231" y="742"/>
      <point x="252" y="765" type="curve" smooth="yes"/>
      <point x="274" y="787"/>
      <point x="279" y="818"/>
      <point x="265" y="837" type="curve" smooth="yes"/>
    </contour>
  </outline>
</glyph>
<glyph name="a" format="1">
  <advance width="817"/>
  <unicode hex="0061"/>
  <outline>
    <contour>
      <point x="478" y="325" type="curve" smooth="yes"/>
      <point x="466" y="230"/>
      <point x="388" y="153"/>
      <point x="305" y="153" type="curve" smooth="yes"/>
      <point x="222" y="153"/>
      <point x="165" y="230"/>
      <point x="177" y="325" type="curve" smooth="yes"/>
      <point x="190" y="420"/>
      <point x="267" y="497"/>
      <point x="350" y="497" type="curve" smooth="yes"/>
      <point x="433" y="497"/>
      <point x="491" y="420"/>
    </contour>
    <contour>
      <point x="514" y="593" type="curve"/>
      <point x="476" y="632"/>
      <point x="427" y="655"/>
      <point x="371" y="655" type="curve" smooth="yes"/>
      <point x="191" y="655"/>
      <point x="26" y="507"/>
      <point x="3" y="325" type="curve" smooth="yes"/>
      <point x="-21" y="143"/>
      <point x="105" y="-5"/>
      <point x="285" y="-5" type="curve" smooth="yes"/>
      <point x="341" y="-5"/>
      <point x="397" y="18"/>
      <point x="444" y="57" type="curve"/>
      <point x="446" y="22"/>
      <point x="478" y="-5"/>
      <point x="520" y="-5" type="curve" smooth="yes"/>
      <point x="567" y="-5"/>
      <point x="610" y="28"/>
      <point x="615" y="69" type="curve" smooth="yes"/>
      <point x="681" y="581" type="line" smooth="yes"/>
      <point x="687" y="622"/>
      <point x="653" y="655"/>
      <point x="606" y="655" type="curve" smooth="yes"/>
      <point x="564" y="655"/>
      <point x="525" y="628"/>
    </contour>
  </outline>
</glyph>
<glyph name="b" format="1">
  <advance width="817"/>
  <unicode hex="0062"/>
  <outline>
    <contour>
      <point x="204" y="325" type="curve" smooth="yes"/>
      <point x="216" y="420"/>
      <point x="294" y="497"/>
      <point x="377" y="497" type="curve" smooth="yes"/>
      <point x="460" y="497"/>
      <point x="517" y="420"/>
      <point x="505" y="325" type="curve" smooth="yes"/>
      <point x="492" y="230"/>
      <point x="415" y="153"/>
      <point x="332" y="153" type="curve" smooth="yes"/>
      <point x="249" y="153"/>
      <point x="191" y="230"/>
    </contour>
    <contour>
      <point x="239" y="594" type="curve"/>
      <point x="283" y="931" type="line" smooth="yes"/>
      <point x="288" y="972"/>
      <point x="254" y="1005"/>
      <point x="207" y="1005" type="curve" smooth="yes"/>
      <point x="160" y="1005"/>
      <point x="118" y="972"/>
      <point x="113" y="931" type="curve" smooth="yes"/>
      <point x="1" y="69" type="line" smooth="yes"/>
      <point x="-5" y="28"/>
      <point x="29" y="-5"/>
      <point x="76" y="-5" type="curve" smooth="yes"/>
      <point x="118" y="-5"/>
      <point x="157" y="22"/>
      <point x="168" y="57" type="curve"/>
      <point x="206" y="18"/>
      <point x="255" y="-5"/>
      <point x="311" y="-5" type="curve" smooth="yes"/>
      <point x="491" y="-5"/>
      <point x="656" y="143"/>
      <point x="679" y="325" type="curve" smooth="yes"/>
      <point x="703" y="507"/>
      <point x="577" y="655"/>
      <point x="397" y="655" type="curve" smooth="yes"/>
      <point x="341" y="655"/>
      <point x="286" y="632"/>
    </contour>
  </outline>
</glyph>
<glyph name="f" format="1">
  <advance width="740"/>
  <unicode hex="0066"/>
  <outline>
    <contour>
      <point x="147" y="493" type="line"/>
      <point x="92" y="69" type="line" smooth="yes"/>
      <point x="87" y="28"/>
      <point x="121" y="-5"/>
      <point x="168" y="-5" type="curve" smooth="yes"/>
      <point x="214" y="-5"/>
      <point x="257" y="28"/>
      <point x="262" y="69" type="curve" smooth="yes"/>
      <point x="317" y="493" type="line"/>
      <point x="427" y="493" type="line" smooth="yes"/>
      <point x="471" y="493"/>
      <point x="511" y="528"/>
      <point x="517" y="571" type="curve" smooth="yes"/>
      <point x="522" y="615"/>
      <point x="491" y="650"/>
      <point x="448" y="650" type="curve" smooth="yes"/>
      <point x="338" y="650" type="line"/>
      <point x="353" y="769" type="line" smooth="yes"/>
      <point x="357" y="795"/>
      <point x="373" y="817"/>
      <point x="402" y="833" type="curve" smooth="yes"/>
      <point x="430" y="848"/>
      <point x="461" y="852"/>
      <point x="490" y="844" type="curve"/>
      <point x="529" y="830"/>
      <point x="576" y="852"/>
      <point x="596" y="893" type="curve" smooth="yes"/>
      <point x="616" y="934"/>
      <point x="601" y="979"/>
      <point x="562" y="993" type="curve"/>
      <point x="481" y="1017"/>
      <point x="396" y="1006"/>
      <point x="318" y="960" type="curve" smooth="yes"/>
      <point x="240" y="914"/>
      <point x="193" y="847"/>
      <point x="183" y="769" type="curve" smooth="yes"/>
      <point x="168" y="650" type="line"/>
      <point x="90" y="650" type="line" smooth="yes"/>
      <point x="46" y="650"/>
      <point x="6" y="615"/>
      <point x="1" y="571" type="curve" smooth="yes"/>
      <point x="-5" y="528"/>
      <point x="26" y="493"/>
      <point x="70" y="493" type="curve" smooth="yes"/>
    </contour>
  </outline>
</glyph>
<glyph name="g" format="1">
  <advance width="826"/>
  <unicode hex="0067"/>
  <outline>
    <contour>
      <point x="452" y="56" type="curve"/>
      <point x="445" y="0" type="line"/>
      <point x="442" y="-25" type="line" smooth="yes"/>
      <point x="433" y="-93"/>
      <point x="357" y="-147"/>
      <point x="273" y="-147" type="curve" smooth="yes"/>
      <point x="222" y="-147"/>
      <point x="180" y="-136"/>
      <point x="146" y="-112" type="curve"/>
      <point x="122" y="-82"/>
      <point x="72" y="-82"/>
      <point x="36" y="-112" type="curve" smooth="yes"/>
      <point x="-1" y="-143"/>
      <point x="-11" y="-192"/>
      <point x="13" y="-222" type="curve"/>
      <point x="74" y="-277"/>
      <point x="155" y="-305"/>
      <point x="253" y="-305" type="curve" smooth="yes"/>
      <point x="431" y="-305"/>
      <point x="592" y="-180"/>
      <point x="612" y="-25" type="curve" smooth="yes"/>
      <point x="615" y="0" type="line"/>
      <point x="691" y="581" type="line" smooth="yes"/>
      <point x="696" y="622"/>
      <point x="662" y="655"/>
      <point x="615" y="655" type="curve" smooth="yes"/>
      <point x="573" y="655"/>
      <point x="534" y="628"/>
      <point x="523" y="593" type="curve"/>
      <point x="486" y="632"/>
      <point x="436" y="655"/>
      <point x="380" y="655" type="curve" smooth="yes"/>
      <point x="200" y="655"/>
      <point x="36" y="507"/>
      <point x="12" y="325" type="curve" smooth="yes"/>
      <point x="-12" y="143"/>
      <point x="115" y="-5"/>
      <point x="294" y="-5" type="curve" smooth="yes"/>
      <point x="350" y="-5"/>
      <point x="405" y="18"/>
    </contour>
    <contour>
      <point x="187" y="325" type="curve" smooth="yes"/>
      <point x="199" y="420"/>
      <point x="276" y="497"/>
      <point x="359" y="497" type="curve" smooth="yes"/>
      <point x="442" y="497"/>
      <point x="500" y="420"/>
      <point x="487" y="325" type="curve" smooth="yes"/>
      <point x="475" y="230"/>
      <point x="398" y="153"/>
      <point x="314" y="153" type="curve" smooth="yes"/>
      <point x="231" y="153"/>
      <point x="174" y="230"/>
    </contour>
  </outline>
</glyph>
<glyph name="h" format="1">
  <advance width="760"/>
  <unicode hex="0068"/>
  <outline>
    <contour>
      <point x="1" y="69" type="line" smooth="yes"/>
      <point x="-5" y="28"/>
      <point x="29" y="-5"/>
      <point x="76" y="-5" type="curve" smooth="yes"/>
      <point x="123" y="-5"/>
      <point x="165" y="28"/>
      <point x="171" y="69" type="curve" smooth="yes"/>
      <point x="221" y="455" type="line"/>
      <point x="221" y="455"/>
      <point x="303" y="514"/>
      <point x="395" y="514" type="curve" smooth="yes"/>
      <point x="431" y="514"/>
      <point x="457" y="487"/>
      <point x="453" y="455" type="curve" smooth="yes"/>
      <point x="403" y="69" type="line" smooth="yes"/>
      <point x="397" y="28"/>
      <point x="431" y="-5"/>
      <point x="478" y="-5" type="curve" smooth="yes"/>
      <point x="525" y="-5"/>
      <point x="567" y="28"/>
      <point x="573" y="69" type="curve" smooth="yes"/>
      <point x="623" y="455" type="line" smooth="yes"/>
      <point x="637" y="563"/>
      <point x="551" y="650"/>
      <point x="431" y="650" type="curve" smooth="yes"/>
      <point x="362" y="650"/>
      <point x="296" y="628"/>
      <point x="239" y="599" type="curve"/>
      <point x="283" y="931" type="line" smooth="yes"/>
      <point x="288" y="972"/>
      <point x="254" y="1005"/>
      <point x="207" y="1005" type="curve" smooth="yes"/>
      <point x="160" y="1005"/>
      <point x="118" y="972"/>
      <point x="113" y="931" type="curve" smooth="yes"/>
    </contour>
  </outline>
</glyph>
<glyph name="i" format="1">
  <advance width="407"/>
  <unicode hex="0069"/>
  <outline>
    <contour>
      <point x="237" y="581" type="line" smooth="yes"/>
      <point x="242" y="622"/>
      <point x="209" y="655"/>
      <point x="162" y="655" type="curve" smooth="yes"/>
      <point x="115" y="655"/>
      <point x="72" y="622"/>
      <point x="67" y="581" type="curve" smooth="yes"/>
      <point x="1" y="69" type="line" smooth="yes"/>
      <point x="-5" y="28"/>
      <point x="29" y="-5"/>
      <point x="76" y="-5" type="curve" smooth="yes"/>
      <point x="123" y="-5"/>
      <point x="165" y="28"/>
      <point x="171" y="69" type="curve" smooth="yes"/>
    </contour>
    <contour>
      <point x="271" y="839" type="line"/>
      <point x="276" y="879"/>
      <point x="242" y="912"/>
      <point x="195" y="912" type="curve" smooth="yes"/>
      <point x="148" y="912"/>
      <point x="106" y="879"/>
      <point x="101" y="839" type="curve"/>
      <point x="99" y="828" type="line"/>
      <point x="94" y="788"/>
      <point x="128" y="755"/>
      <point x="175" y="755" type="curve" smooth="yes"/>
      <point x="222" y="755"/>
      <point x="264" y="788"/>
      <point x="269" y="828" type="curve"/>
    </contour>
  </outline>
</glyph>
<glyph name="k" format="1">
  <advance width="787"/>
  <unicode hex="006B"/>
  <outline>
    <contour>
      <point x="1" y="69" type="line" smooth="yes"/>
      <point x="-5" y="28"/>
      <point x="29" y="-5"/>
      <point x="76" y="-5" type="curve" smooth="yes"/>
      <point x="123" y="-5"/>
      <point x="165" y="28"/>
      <point x="171" y="69" type="curve" smooth="yes"/>
      <point x="187" y="193" type="line"/>
      <point x="273" y="258" type="line"/>
      <point x="439" y="21" type="line" smooth="yes"/>
      <point x="461" y="-11"/>
      <point x="510" y="-14"/>
      <point x="548" y="15" type="curve" smooth="yes"/>
      <point x="586" y="43"/>
      <point x="599" y="92"/>
      <point x="577" y="124" type="curve" smooth="yes"/>
      <point x="411" y="361" type="line"/>
      <point x="617" y="515" type="line" smooth="yes"/>
      <point x="641" y="533"/>
      <point x="653" y="559"/>
      <point x="652" y="587" type="curve" smooth="yes"/>
      <point x="650" y="616"/>
      <point x="634" y="638"/>
      <point x="609" y="649" type="curve" smooth="yes"/>
      <point x="583" y="660"/>
      <point x="555" y="656"/>
      <point x="531" y="638" type="curve" smooth="yes"/>
      <point x="214" y="401" type="line"/>
      <point x="283" y="931" type="line" smooth="yes"/>
      <point x="288" y="972"/>
      <point x="254" y="1005"/>
      <point x="207" y="1005" type="curve" smooth="yes"/>
      <point x="160" y="1005"/>
      <point x="118" y="972"/>
      <point x="113" y="931" type="curve" smooth="yes"/>
    </contour>
  </outline>
</glyph>
<glyph name="l" format="1">
  <advance width="419"/>
  <unicode hex="006C"/>
  <outline>
    <contour>
      <point x="283" y="931" type="line" smooth="yes"/>
      <point x="288" y="972"/>
      <point x="254" y="1005"/>
      <point x="207" y="1005" type="curve" smooth="yes"/>
      <point x="160" y="1005"/>
      <point x="118" y="972"/>
      <point x="113" y="931" type="curve" smooth="yes"/>
      <point x="1" y="69" type="line" smooth="yes"/>
      <point x="-5" y="28"/>
      <point x="29" y="-5"/>
      <point x="76" y="-5" type="curve" smooth="yes"/>
      <point x="123" y="-5"/>
      <point x="165" y="28"/>
      <point x="171" y="69" type="curve" smooth="yes"/>
    </contour>
  </outline>
</glyph>
<glyph name="m" format="1">
  <advance width="1162"/>
  <unicode hex="006D"/>
  <outline>
    <contour>
      <point x="1" y="69" type="line" smooth="yes"/>
      <point x="-5" y="28"/>
      <point x="29" y="-5"/>
      <point x="76" y="-5" type="curve" smooth="yes"/>
      <point x="123" y="-5"/>
      <point x="165" y="28"/>
      <point x="171" y="69" type="curve" smooth="yes"/>
      <point x="221" y="455" type="line"/>
      <point x="221" y="455"/>
      <point x="303" y="514"/>
      <point x="395" y="514" type="curve" smooth="yes"/>
      <point x="431" y="514"/>
      <point x="457" y="487"/>
      <point x="453" y="455" type="curve" smooth="yes"/>
      <point x="403" y="69" type="line" smooth="yes"/>
      <point x="397" y="28"/>
      <point x="431" y="-5"/>
      <point x="478" y="-5" type="curve" smooth="yes"/>
      <point x="525" y="-5"/>
      <point x="567" y="28"/>
      <point x="573" y="69" type="curve" smooth="yes"/>
      <point x="623" y="455" type="line"/>
      <point x="623" y="455"/>
      <point x="705" y="514"/>
      <point x="797" y="514" type="curve" smooth="yes"/>
      <point x="833" y="514"/>
      <point x="859" y="487"/>
      <point x="855" y="455" type="curve" smooth="yes"/>
      <point x="805" y="69" type="line" smooth="yes"/>
      <point x="799" y="28"/>
      <point x="833" y="-5"/>
      <point x="880" y="-5" type="curve" smooth="yes"/>
      <point x="927" y="-5"/>
      <point x="969" y="28"/>
      <point x="975" y="69" type="curve" smooth="yes"/>
      <point x="1025" y="455" type="line" smooth="yes"/>
      <point x="1039" y="563"/>
      <point x="953" y="650"/>
      <point x="833" y="650" type="curve" smooth="yes"/>
      <point x="744" y="650"/>
      <point x="659" y="614"/>
      <point x="595" y="571" type="curve"/>
      <point x="562" y="619"/>
      <point x="503" y="650"/>
      <point x="431" y="650" type="curve" smooth="yes"/>
      <point x="361" y="650"/>
      <point x="294" y="628"/>
      <point x="237" y="597" type="curve"/>
      <point x="233" y="630"/>
      <point x="202" y="655"/>
      <point x="162" y="655" type="curve" smooth="yes"/>
      <point x="115" y="655"/>
      <point x="72" y="622"/>
      <point x="67" y="581" type="curve" smooth="yes"/>
    </contour>
  </outline>
</glyph>
<glyph name="n" format="1">
  <advance width="760"/>
  <unicode hex="006E"/>
  <outline>
    <contour>
      <point x="1" y="69" type="line" smooth="yes"/>
      <point x="-5" y="28"/>
      <point x="29" y="-5"/>
      <point x="76" y="-5" type="curve" smooth="yes"/>
      <point x="123" y="-5"/>
      <point x="165" y="28"/>
      <point x="171" y="69" type="curve" smooth="yes"/>
      <point x="221" y="455" type="line"/>
      <point x="221" y="455"/>
      <point x="303" y="514"/>
      <point x="395" y="514" type="curve" smooth="yes"/>
      <point x="431" y="514"/>
      <point x="457" y="487"/>
      <point x="453" y="455" type="curve" smooth="yes"/>
      <point x="403" y="69" type="line" smooth="yes"/>
      <point x="397" y="28"/>
      <point x="431" y="-5"/>
      <point x="478" y="-5" type="curve" smooth="yes"/>
      <point x="525" y="-5"/>
      <point x="567" y="28"/>
      <point x="573" y="69" type="curve" smooth="yes"/>
      <point x="623" y="455" type="line" smooth="yes"/>
      <point x="637" y="563"/>
      <point x="551" y="650"/>
      <point x="431" y="650" type="curve" smooth="yes"/>
      <point x="361" y="650"/>
      <point x="294" y="628"/>
      <point x="237" y="597" type="curve"/>
      <point x="233" y="630"/>
      <point x="202" y="655"/>
      <point x="162" y="655" type="curve" smooth="yes"/>
      <point x="115" y="655"/>
      <point x="72" y="622"/>
      <point x="67" y="581" type="curve" smooth="yes"/>
    </contour>
  </outline>
</glyph>
<glyph name="o" format="1">
  <advance width="791"/>
  <unicode hex="006F"/>
  <outline>
    <contour>
      <point x="3" y="325" type="curve" smooth="yes"/>
      <point x="-21" y="143"/>
      <point x="105" y="-5"/>
      <point x="285" y="-5" type="curve" smooth="yes"/>
      <point x="464" y="-5"/>
      <point x="629" y="143"/>
      <point x="653" y="325" type="curve" smooth="yes"/>
      <point x="676" y="507"/>
      <point x="550" y="655"/>
      <point x="371" y="655" type="curve" smooth="yes"/>
      <point x="191" y="655"/>
      <point x="26" y="507"/>
    </contour>
    <contour>
      <point x="177" y="325" type="curve" smooth="yes"/>
      <point x="190" y="420"/>
      <point x="267" y="497"/>
      <point x="350" y="497" type="curve" smooth="yes"/>
      <point x="433" y="497"/>
      <point x="491" y="420"/>
      <point x="478" y="325" type="curve" smooth="yes"/>
      <point x="466" y="230"/>
      <point x="388" y="153"/>
      <point x="305" y="153" type="curve" smooth="yes"/>
      <point x="222" y="153"/>
      <point x="165" y="230"/>
    </contour>
  </outline>
</glyph>
<glyph name="p" format="1">
  <advance width="856"/>
  <unicode hex="0070"/>
  <outline>
    <contour>
      <point x="243" y="325" type="curve" smooth="yes"/>
      <point x="255" y="420"/>
      <point x="333" y="497"/>
      <point x="416" y="497" type="curve" smooth="yes"/>
      <point x="499" y="497"/>
      <point x="556" y="420"/>
      <point x="544" y="325" type="curve" smooth="yes"/>
      <point x="531" y="230"/>
      <point x="454" y="153"/>
      <point x="371" y="153" type="curve" smooth="yes"/>
      <point x="288" y="153"/>
      <point x="230" y="230"/>
    </contour>
    <contour>
      <point x="208" y="56" type="line"/>
      <point x="245" y="18"/>
      <point x="294" y="-5"/>
      <point x="350" y="-5" type="curve" smooth="yes"/>
      <point x="530" y="-5"/>
      <point x="695" y="143"/>
      <point x="718" y="325" type="curve" smooth="yes"/>
      <point x="742" y="507"/>
      <point x="616" y="655"/>
      <point x="436" y="655" type="curve" smooth="yes"/>
      <point x="380" y="655"/>
      <point x="324" y="632"/>
      <point x="277" y="593" type="curve"/>
      <point x="275" y="628"/>
      <point x="243" y="655"/>
      <point x="201" y="655" type="curve" smooth="yes"/>
      <point x="154" y="655"/>
      <point x="111" y="622"/>
      <point x="106" y="581" type="curve" smooth="yes"/>
      <point x="1" y="-231" type="line" smooth="yes"/>
      <point x="-5" y="-272"/>
      <point x="29" y="-305"/>
      <point x="76" y="-305" type="curve" smooth="yes"/>
      <point x="123" y="-305"/>
      <point x="165" y="-272"/>
      <point x="171" y="-231" type="curve" smooth="yes"/>
    </contour>
  </outline>
</glyph>
<glyph name="q" format="1">
  <advance width="817"/>
  <unicode hex="0071"/>
  <outline>
    <contour>
      <point x="478" y="325" type="curve" smooth="yes"/>
      <point x="466" y="230"/>
      <point x="388" y="153"/>
      <point x="305" y="153" type="curve" smooth="yes"/>
      <point x="222" y="153"/>
      <point x="165" y="230"/>
      <point x="177" y="325" type="curve" smooth="yes"/>
      <point x="190" y="420"/>
      <point x="267" y="497"/>
      <point x="350" y="497" type="curve" smooth="yes"/>
      <point x="433" y="497"/>
      <point x="491" y="420"/>
    </contour>
    <contour>
      <point x="443" y="56" type="curve"/>
      <point x="406" y="-231" type="line" smooth="yes"/>
      <point x="401" y="-272"/>
      <point x="434" y="-305"/>
      <point x="481" y="-305" type="curve" smooth="yes"/>
      <point x="528" y="-305"/>
      <point x="571" y="-272"/>
      <point x="576" y="-231" type="curve" smooth="yes"/>
      <point x="681" y="581" type="line" smooth="yes"/>
      <point x="687" y="622"/>
      <point x="653" y="655"/>
      <point x="606" y="655" type="curve" smooth="yes"/>
      <point x="564" y="655"/>
      <point x="525" y="628"/>
      <point x="514" y="593" type="curve"/>
      <point x="476" y="632"/>
      <point x="427" y="655"/>
      <point x="371" y="655" type="curve" smooth="yes"/>
      <point x="191" y="655"/>
      <point x="26" y="507"/>
      <point x="3" y="325" type="curve" smooth="yes"/>
      <point x="-21" y="143"/>
      <point x="105" y="-5"/>
      <point x="285" y="-5" type="curve" smooth="yes"/>
      <point x="341" y="-5"/>
      <point x="396" y="18"/>
    </contour>
  </outline>
</glyph>
<glyph name="r" format="1">
  <advance width="621"/>
  <unicode hex="0072"/>
  <outline>
    <contour>
      <point x="1" y="69" type="line" smooth="yes"/>
      <point x="-5" y="28"/>
      <point x="29" y="-5"/>
      <point x="76" y="-5" type="curve" smooth="yes"/>
      <point x="123" y="-5"/>
      <point x="165" y="28"/>
      <point x="171" y="69" type="curve" smooth="yes"/>
      <point x="211" y="382" type="line" smooth="yes"/>
      <point x="219" y="443"/>
      <point x="302" y="493"/>
      <point x="396" y="493" type="curve" smooth="yes"/>
      <point x="439" y="493"/>
      <point x="480" y="528"/>
      <point x="485" y="571" type="curve" smooth="yes"/>
      <point x="491" y="615"/>
      <point x="460" y="650"/>
      <point x="416" y="650" type="curve" smooth="yes"/>
      <point x="322" y="650"/>
      <point x="240" y="601"/>
      <point x="232" y="540" type="curve"/>
      <point x="237" y="581" type="line" smooth="yes"/>
      <point x="242" y="622"/>
      <point x="209" y="655"/>
      <point x="162" y="655" type="curve" smooth="yes"/>
      <point x="115" y="655"/>
      <point x="72" y="622"/>
      <point x="67" y="581" type="curve" smooth="yes"/>
    </contour>
  </outline>
</glyph>
<glyph name="s" format="1">
  <advance width="684"/>
  <unicode hex="0073"/>
  <outline>
    <contour>
      <point x="511" y="199" type="curve" smooth="yes"/>
      <point x="526" y="312"/>
      <point x="401" y="365"/>
      <point x="298" y="400" type="curve" smooth="yes"/>
      <point x="276" y="408"/>
      <point x="212" y="425"/>
      <point x="215" y="451" type="curve" smooth="yes"/>
      <point x="218" y="476"/>
      <point x="249" y="497"/>
      <point x="284" y="497" type="curve" smooth="yes"/>
      <point x="337" y="497"/>
      <point x="380" y="483"/>
      <point x="423" y="458" type="curve" smooth="yes"/>
      <point x="458" y="437"/>
      <point x="506" y="452"/>
      <point x="533" y="490" type="curve" smooth="yes"/>
      <point x="559" y="529"/>
      <point x="552" y="576"/>
      <point x="518" y="597" type="curve" smooth="yes"/>
      <point x="452" y="636"/>
      <point x="385" y="655"/>
      <point x="304" y="655" type="curve" smooth="yes"/>
      <point x="174" y="655"/>
      <point x="57" y="563"/>
      <point x="43" y="451" type="curve" smooth="yes"/>
      <point x="28" y="338"/>
      <point x="127" y="285"/>
      <point x="230" y="250" type="curve" smooth="yes"/>
      <point x="253" y="242"/>
      <point x="341" y="225"/>
      <point x="338" y="199" type="curve" smooth="yes"/>
      <point x="335" y="174"/>
      <point x="286" y="153"/>
      <point x="229" y="153" type="curve" smooth="yes"/>
      <point x="186" y="153"/>
      <point x="157" y="175"/>
      <point x="123" y="193" type="curve" smooth="yes"/>
      <point x="88" y="213"/>
      <point x="39" y="197"/>
      <point x="14" y="158" type="curve" smooth="yes"/>
      <point x="-11" y="118"/>
      <point x="-2" y="71"/>
      <point x="33" y="52" type="curve" smooth="yes"/>
      <point x="88" y="22"/>
      <point x="140" y="-5"/>
      <point x="209" y="-5" type="curve" smooth="yes"/>
      <point x="361" y="-5"/>
      <point x="497" y="87"/>
    </contour>
  </outline>
</glyph>
<glyph name="t" format="1">
  <advance width="653"/>
  <unicode hex="0074"/>
  <outline>
    <contour>
      <point x="168" y="650" type="line"/>
      <point x="90" y="650" type="line" smooth="yes"/>
      <point x="46" y="650"/>
      <point x="6" y="615"/>
      <point x="1" y="571" type="curve" smooth="yes"/>
      <point x="-5" y="528"/>
      <point x="26" y="493"/>
      <point x="70" y="493" type="curve" smooth="yes"/>
      <point x="147" y="493" type="line"/>
      <point x="107" y="183" type="line" smooth="yes"/>
      <point x="99" y="121"/>
      <point x="121" y="68"/>
      <point x="171" y="31" type="curve" smooth="yes"/>
      <point x="220" y="-5"/>
      <point x="282" y="-15"/>
      <point x="349" y="5" type="curve" smooth="yes"/>
      <point x="391" y="19"/>
      <point x="418" y="64"/>
      <point x="408" y="105" type="curve" smooth="yes"/>
      <point x="399" y="146"/>
      <point x="358" y="168"/>
      <point x="316" y="154" type="curve"/>
      <point x="305" y="151"/>
      <point x="295" y="152"/>
      <point x="287" y="158" type="curve" smooth="yes"/>
      <point x="279" y="164"/>
      <point x="276" y="173"/>
      <point x="277" y="183" type="curve" smooth="yes"/>
      <point x="317" y="493" type="line"/>
      <point x="427" y="493" type="line" smooth="yes"/>
      <point x="471" y="493"/>
      <point x="511" y="528"/>
      <point x="517" y="571" type="curve" smooth="yes"/>
      <point x="522" y="615"/>
      <point x="491" y="650"/>
      <point x="448" y="650" type="curve" smooth="yes"/>
      <point x="338" y="650" type="line"/>
      <point x="354" y="776" type="line" smooth="yes"/>
      <point x="359" y="817"/>
      <point x="326" y="850"/>
      <point x="279" y="850" type="curve" smooth="yes"/>
      <point x="232" y="850"/>
      <point x="189" y="817"/>
      <point x="184" y="776" type="curve" smooth="yes"/>
    </contour>
  </outline>
</glyph>
<glyph name="u" format="1">
  <advance width="760"/>
  <unicode hex="0075"/>
  <outline>
    <contour>
      <point x="624" y="581" type="line" smooth="yes"/>
      <point x="629" y="622"/>
      <point x="595" y="655"/>
      <point x="548" y="655" type="curve" smooth="yes"/>
      <point x="501" y="655"/>
      <point x="459" y="622"/>
      <point x="454" y="581" type="curve" smooth="yes"/>
      <point x="403" y="195" type="line"/>
      <point x="403" y="195"/>
      <point x="321" y="137"/>
      <point x="229" y="137" type="curve" smooth="yes"/>
      <point x="193" y="137"/>
      <point x="167" y="163"/>
      <point x="171" y="195" type="curve" smooth="yes"/>
      <point x="222" y="581" type="line" smooth="yes"/>
      <point x="227" y="622"/>
      <point x="193" y="655"/>
      <point x="146" y="655" type="curve" smooth="yes"/>
      <point x="99" y="655"/>
      <point x="57" y="622"/>
      <point x="52" y="581" type="curve" smooth="yes"/>
      <point x="1" y="195" type="line" smooth="yes"/>
      <point x="-13" y="87"/>
      <point x="73" y="0"/>
      <point x="193" y="0" type="curve" smooth="yes"/>
      <point x="263" y="0"/>
      <point x="330" y="22"/>
      <point x="387" y="53" type="curve"/>
      <point x="391" y="20"/>
      <point x="422" y="-5"/>
      <point x="463" y="-5" type="curve" smooth="yes"/>
      <point x="509" y="-5"/>
      <point x="552" y="28"/>
      <point x="557" y="69" type="curve" smooth="yes"/>
    </contour>
  </outline>
</glyph>
<glyph name="v" format="1">
  <advance width="751"/>
  <unicode hex="0076"/>
  <outline>
    <contour>
      <point x="147" y="47" type="line" smooth="yes"/>
      <point x="157" y="15"/>
      <point x="188" y="-5"/>
      <point x="227" y="-5" type="curve" smooth="yes"/>
      <point x="267" y="-5"/>
      <point x="303" y="15"/>
      <point x="322" y="46" type="curve" smooth="yes"/>
      <point x="606" y="553" type="line" smooth="yes"/>
      <point x="627" y="590"/>
      <point x="611" y="633"/>
      <point x="570" y="649" type="curve" smooth="yes"/>
      <point x="528" y="665"/>
      <point x="478" y="647"/>
      <point x="457" y="610" type="curve" smooth="yes"/>
      <point x="261" y="242" type="line"/>
      <point x="167" y="609" type="line" smooth="yes"/>
      <point x="156" y="646"/>
      <point x="111" y="665"/>
      <point x="65" y="649" type="curve" smooth="yes"/>
      <point x="20" y="634"/>
      <point x="-9" y="591"/>
      <point x="2" y="554" type="curve" smooth="yes"/>
    </contour>
  </outline>
</glyph>
<glyph name="w" format="1">
  <advance width="1082"/>
  <unicode hex="0077"/>
  <outline>
    <contour>
      <point x="118" y="51" type="line" smooth="yes"/>
      <point x="126" y="17"/>
      <point x="158" y="-5"/>
      <point x="199" y="-5" type="curve" smooth="yes"/>
      <point x="240" y="-5"/>
      <point x="278" y="17"/>
      <point x="295" y="51" type="curve" smooth="yes"/>
      <point x="448" y="382" type="line"/>
      <point x="514" y="51" type="line"/>
      <point x="523" y="17"/>
      <point x="555" y="-5"/>
      <point x="596" y="-5" type="curve" smooth="yes"/>
      <point x="637" y="-5"/>
      <point x="675" y="17"/>
      <point x="692" y="51" type="curve" smooth="yes"/>
      <point x="940" y="557" type="line" smooth="yes"/>
      <point x="958" y="595"/>
      <point x="939" y="637"/>
      <point x="896" y="651" type="curve" smooth="yes"/>
      <point x="854" y="664"/>
      <point x="804" y="644"/>
      <point x="785" y="605" type="curve" smooth="yes"/>
      <point x="631" y="270" type="line"/>
      <point x="565" y="599" type="line"/>
      <point x="556" y="633"/>
      <point x="524" y="655"/>
      <point x="483" y="655" type="curve" smooth="yes"/>
      <point x="442" y="655"/>
      <point x="404" y="633"/>
      <point x="387" y="599" type="curve" smooth="yes"/>
      <point x="236" y="270" type="line"/>
      <point x="168" y="605" type="line" smooth="yes"/>
      <point x="159" y="644"/>
      <point x="115" y="664"/>
      <point x="69" y="651" type="curve" smooth="yes"/>
      <point x="23" y="637"/>
      <point x="-7" y="595"/>
      <point x="2" y="557" type="curve" smooth="yes"/>
    </contour>
  </outline>
</glyph>
<glyph name="x" format="1">
  <advance width="818"/>
  <unicode hex="0078"/>
  <outline>
    <contour>
      <point x="325" y="203" type="line"/>
      <point x="456" y="25" type="line" smooth="yes"/>
      <point x="480" y="-8"/>
      <point x="532" y="-14"/>
      <point x="573" y="10" type="curve" smooth="yes"/>
      <point x="614" y="34"/>
      <point x="627" y="80"/>
      <point x="604" y="112" type="curve" smooth="yes"/>
      <point x="447" y="325" type="line"/>
      <point x="659" y="538" type="line" smooth="yes"/>
      <point x="680" y="559"/>
      <point x="687" y="586"/>
      <point x="678" y="610" type="curve" smooth="yes"/>
      <point x="669" y="635"/>
      <point x="647" y="651"/>
      <point x="616" y="654" type="curve" smooth="yes"/>
      <point x="585" y="657"/>
      <point x="556" y="647"/>
      <point x="534" y="625" type="curve" smooth="yes"/>
      <point x="357" y="447" type="line"/>
      <point x="226" y="625" type="line" smooth="yes"/>
      <point x="202" y="658"/>
      <point x="150" y="664"/>
      <point x="109" y="640" type="curve" smooth="yes"/>
      <point x="68" y="616"/>
      <point x="55" y="570"/>
      <point x="78" y="538" type="curve" smooth="yes"/>
      <point x="235" y="325" type="line"/>
      <point x="23" y="112" type="line" smooth="yes"/>
      <point x="-9" y="80"/>
      <point x="-7" y="34"/>
      <point x="27" y="10" type="curve" smooth="yes"/>
      <point x="61" y="-14"/>
      <point x="116" y="-8"/>
      <point x="148" y="25" type="curve" smooth="yes"/>
    </contour>
  </outline>
</glyph>
<glyph name="y" format="1">
  <advance width="773"/>
  <unicode hex="0079"/>
  <outline>
    <contour>
      <point x="10" y="-199" type="line" smooth="yes"/>
      <point x="-12" y="-236"/>
      <point x="3" y="-281"/>
      <point x="44" y="-298" type="curve" smooth="yes"/>
      <point x="84" y="-315"/>
      <point x="134" y="-299"/>
      <point x="156" y="-262" type="curve" smooth="yes"/>
      <point x="628" y="549" type="line" smooth="yes"/>
      <point x="650" y="586"/>
      <point x="634" y="631"/>
      <point x="594" y="648" type="curve" smooth="yes"/>
      <point x="554" y="665"/>
      <point x="504" y="649"/>
      <point x="482" y="612" type="curve" smooth="yes"/>
      <point x="295" y="291" type="line"/>
      <point x="192" y="612" type="line" smooth="yes"/>
      <point x="180" y="649"/>
      <point x="134" y="665"/>
      <point x="89" y="648" type="curve" smooth="yes"/>
      <point x="44" y="631"/>
      <point x="18" y="586"/>
      <point x="30" y="549" type="curve" smooth="yes"/>
      <point x="178" y="89" type="line"/>
    </contour>
  </outline>
</glyph>
<glyph name="z" format="1">
  <advance width="813"/>
  <unicode hex="007A"/>
  <outline>
    <contour>
      <point x="525" y="0" type="line" smooth="yes"/>
      <point x="568" y="0"/>
      <point x="608" y="35"/>
      <point x="614" y="79" type="curve" smooth="yes"/>
      <point x="620" y="122"/>
      <point x="589" y="157"/>
      <point x="545" y="157" type="curve" smooth="yes"/>
      <point x="268" y="157" type="line"/>
      <point x="645" y="504" type="line" smooth="yes"/>
      <point x="673" y="530"/>
      <point x="684" y="565"/>
      <point x="675" y="598" type="curve" smooth="yes"/>
      <point x="665" y="630"/>
      <point x="637" y="650"/>
      <point x="601" y="650" type="curve" smooth="yes"/>
      <point x="153" y="650" type="line" smooth="yes"/>
      <point x="110" y="650"/>
      <point x="70" y="615"/>
      <point x="64" y="571" type="curve" smooth="yes"/>
      <point x="58" y="528"/>
      <point x="89" y="493"/>
      <point x="133" y="493" type="curve" smooth="yes"/>
      <point x="410" y="493" type="line"/>
      <point x="33" y="146" type="line" smooth="yes"/>
      <point x="5" y="120"/>
      <point x="-6" y="85"/>
      <point x="4" y="52" type="curve" smooth="yes"/>
      <point x="13" y="20"/>
      <point x="41" y="0"/>
      <point x="77" y="0" type="curve" smooth="yes"/>
    </contour>
  </outline>
</glyph>
<glyph name="braceleft" format="1">
  <advance width="656"/>
  <unicode hex="007B"/>
  <outline>
    <contour>
      <point x="182" y="500" type="curve"/>
      <point x="236" y="525"/>
      <point x="281" y="570"/>
      <point x="289" y="634" type="curve" smooth="yes"/>
      <point x="316" y="842" type="line" smooth="yes"/>
      <point x="323" y="898"/>
      <point x="374" y="943"/>
      <point x="430" y="943" type="curve" smooth="yes"/>
      <point x="474" y="943"/>
      <point x="514" y="978"/>
      <point x="520" y="1021" type="curve" smooth="yes"/>
      <point x="525" y="1065"/>
      <point x="494" y="1100"/>
      <point x="451" y="1100" type="curve" smooth="yes"/>
      <point x="308" y="1100"/>
      <point x="197" y="973"/>
      <point x="180" y="842" type="curve" smooth="yes"/>
      <point x="153" y="634" type="line" smooth="yes"/>
      <point x="149" y="604"/>
      <point x="121" y="579"/>
      <point x="90" y="579" type="curve" smooth="yes"/>
      <point x="46" y="579"/>
      <point x="6" y="543"/>
      <point x="1" y="500" type="curve" smooth="yes"/>
      <point x="-5" y="457"/>
      <point x="26" y="421"/>
      <point x="70" y="421" type="curve" smooth="yes"/>
      <point x="100" y="421"/>
      <point x="122" y="396"/>
      <point x="118" y="366" type="curve" smooth="yes"/>
      <point x="91" y="158" type="line" smooth="yes"/>
      <point x="74" y="27"/>
      <point x="152" y="-100"/>
      <point x="295" y="-100" type="curve" smooth="yes"/>
      <point x="338" y="-100"/>
      <point x="378" y="-65"/>
      <point x="384" y="-21" type="curve" smooth="yes"/>
      <point x="390" y="22"/>
      <point x="359" y="57"/>
      <point x="315" y="57" type="curve" smooth="yes"/>
      <point x="259" y="57"/>
      <point x="220" y="102"/>
      <point x="227" y="158" type="curve" smooth="yes"/>
      <point x="254" y="366" type="line" smooth="yes"/>
      <point x="263" y="430"/>
      <point x="229" y="475"/>
    </contour>
  </outline>
</glyph>
<glyph name="bar" format="1">
  <advance width="445"/>
  <unicode hex="007C"/>
  <outline>
    <contour>
      <point x="309" y="1031" type="line" smooth="yes"/>
      <point x="314" y="1072"/>
      <point x="280" y="1105"/>
      <point x="233" y="1105" type="curve" smooth="yes"/>
      <point x="186" y="1105"/>
      <point x="144" y="1072"/>
      <point x="139" y="1031" type="curve" smooth="yes"/>
      <point x="1" y="-31" type="line" smooth="yes"/>
      <point x="-5" y="-72"/>
      <point x="29" y="-105"/>
      <point x="76" y="-105" type="curve" smooth="yes"/>
      <point x="123" y="-105"/>
      <point x="165" y="-72"/>
      <point x="171" y="-31" type="curve" smooth="yes"/>
    </contour>
  </outline>
</glyph>
<glyph name="braceright" format="1">
  <advance width="656"/>
  <unicode hex="007D"/>
  <outline>
    <contour>
      <point x="338" y="500" type="curve"/>
      <point x="285" y="475"/>
      <point x="240" y="430"/>
      <point x="231" y="366" type="curve" smooth="yes"/>
      <point x="204" y="158" type="line" smooth="yes"/>
      <point x="197" y="102"/>
      <point x="146" y="57"/>
      <point x="90" y="57" type="curve" smooth="yes"/>
      <point x="46" y="57"/>
      <point x="6" y="22"/>
      <point x="1" y="-21" type="curve" smooth="yes"/>
      <point x="-5" y="-65"/>
      <point x="26" y="-100"/>
      <point x="70" y="-100" type="curve" smooth="yes"/>
      <point x="212" y="-100"/>
      <point x="323" y="27"/>
      <point x="340" y="158" type="curve" smooth="yes"/>
      <point x="367" y="366" type="line" smooth="yes"/>
      <point x="371" y="396"/>
      <point x="399" y="421"/>
      <point x="430" y="421" type="curve" smooth="yes"/>
      <point x="474" y="421"/>
      <point x="514" y="457"/>
      <point x="520" y="500" type="curve" smooth="yes"/>
      <point x="525" y="543"/>
      <point x="494" y="579"/>
      <point x="451" y="579" type="curve" smooth="yes"/>
      <point x="420" y="579"/>
      <point x="398" y="604"/>
      <point x="402" y="634" type="curve" smooth="yes"/>
      <point x="429" y="842" type="line" smooth="yes"/>
      <point x="446" y="973"/>
      <point x="368" y="1100"/>
      <point x="226" y="1100" type="curve" smooth="yes"/>
      <point x="182" y="1100"/>
      <point x="142" y="1065"/>
      <point x="136" y="1021" type="curve" smooth="yes"/>
      <point x="131" y="978"/>
      <point x="161" y="943"/>
      <point x="205" y="943" type="curve" smooth="yes"/>
      <point x="261" y="943"/>
      <point x="300" y="898"/>
      <point x="293" y="842" type="curve" smooth="yes"/>
      <point x="266" y="634" type="line" smooth="yes"/>
      <point x="258" y="570"/>
      <point x="291" y="525"/>
    </contour>
  </outline>
</glyph>
<glyph name="asciitilde" format="1">
  <advance width="692"/>
  <unicode hex="007E"/>
  <outline>
    <contour>
      <point x="126" y="451" type="curve" smooth="yes"/>
      <point x="158" y="499"/>
      <point x="212" y="455"/>
      <point x="233" y="443" type="curve" smooth="yes"/>
      <point x="321" y="390"/>
      <point x="466" y="385"/>
      <point x="545" y="501" type="curve" smooth="yes"/>
      <point x="559" y="522"/>
      <point x="560" y="545"/>
      <point x="549" y="566" type="curve" smooth="yes"/>
      <point x="538" y="587"/>
      <point x="517" y="600"/>
      <point x="492" y="600" type="curve" smooth="yes"/>
      <point x="466" y="601"/>
      <point x="444" y="589"/>
      <point x="430" y="569" type="curve" smooth="yes"/>
      <point x="398" y="521"/>
      <point x="344" y="565"/>
      <point x="324" y="577" type="curve" smooth="yes"/>
      <point x="235" y="630"/>
      <point x="90" y="635"/>
      <point x="11" y="519" type="curve" smooth="yes"/>
      <point x="-10" y="488"/>
      <point x="-1" y="448"/>
      <point x="31" y="429" type="curve" smooth="yes"/>
      <point x="62" y="410"/>
      <point x="105" y="420"/>
    </contour>
  </outline>
</glyph>
<glyph name="exclamdown" format="1">
  <advance width="429"/>
  <unicode hex="00A1"/>
  <outline>
    <contour>
      <point x="290" y="905" type="curve" smooth="yes"/>
      <point x="293" y="926" type="line" smooth="yes"/>
      <point x="299" y="970"/>
      <point x="263" y="1005"/>
      <point x="213" y="1005" type="curve" smooth="yes"/>
      <point x="162" y="1005"/>
      <point x="117" y="970"/>
      <point x="111" y="926" type="curve" smooth="yes"/>
      <point x="109" y="905" type="line" smooth="yes"/>
      <point x="103" y="861"/>
      <point x="139" y="826"/>
      <point x="189" y="826" type="curve" smooth="yes"/>
      <point x="240" y="826"/>
      <point x="285" y="861"/>
    </contour>
    <contour>
      <point x="182" y="74" type="curve" smooth="yes"/>
      <point x="243" y="628" type="line" smooth="yes"/>
      <point x="248" y="666"/>
      <point x="216" y="696"/>
      <point x="172" y="696" type="curve" smooth="yes"/>
      <point x="129" y="696"/>
      <point x="89" y="666"/>
      <point x="85" y="628" type="curve" smooth="yes"/>
      <point x="1" y="74" type="line" smooth="yes"/>
      <point x="-5" y="30"/>
      <point x="31" y="-5"/>
      <point x="81" y="-5" type="curve" smooth="yes"/>
      <point x="132" y="-5"/>
      <point x="177" y="30"/>
    </contour>
  </outline>
</glyph>
<glyph name="dieresis" format="1">
  <advance width="618"/>
  <unicode hex="00A8"/>
  <outline>
    <contour>
      <point x="172" y="931" type="line" smooth="yes"/>
      <point x="177" y="972"/>
      <point x="143" y="1005"/>
      <point x="96" y="1005" type="curve" smooth="yes"/>
      <point x="50" y="1005"/>
      <point x="7" y="972"/>
      <point x="2" y="931" type="curve" smooth="yes"/>
      <point x="1" y="921" type="line" smooth="yes"/>
      <point x="-5" y="880"/>
      <point x="29" y="847"/>
      <point x="76" y="847" type="curve" smooth="yes"/>
      <point x="123" y="847"/>
      <point x="165" y="880"/>
      <point x="171" y="921" type="curve" smooth="yes"/>
    </contour>
    <contour>
      <point x="482" y="931" type="line" smooth="yes"/>
      <point x="487" y="972"/>
      <point x="454" y="1005"/>
      <point x="407" y="1005" type="curve" smooth="yes"/>
      <point x="360" y="1005"/>
      <point x="317" y="972"/>
      <point x="312" y="931" type="curve" smooth="yes"/>
      <point x="311" y="921" type="line" smooth="yes"/>
      <point x="306" y="880"/>
      <point x="339" y="847"/>
      <point x="386" y="847" type="curve" smooth="yes"/>
      <point x="433" y="847"/>
      <point x="476" y="880"/>
      <point x="481" y="921" type="curve" smooth="yes"/>
    </contour>
  </outline>
</glyph>
<glyph name="macron" format="1">
  <advance width="637"/>
  <unicode hex="00AF"/>
  <outline>
    <contour>
      <point x="411" y="818" type="line" smooth="yes"/>
      <point x="455" y="818"/>
      <point x="495" y="853"/>
      <point x="501" y="896" type="curve" smooth="yes"/>
      <point x="506" y="940"/>
      <point x="475" y="975"/>
      <point x="432" y="975" type="curve" smooth="yes"/>
      <point x="90" y="975" type="line" smooth="yes"/>
      <point x="46" y="975"/>
      <point x="6" y="940"/>
      <point x="1" y="896" type="curve" smooth="yes"/>
      <point x="-5" y="853"/>
      <point x="26" y="818"/>
      <point x="70" y="818" type="curve" smooth="yes"/>
    </contour>
  </outline>
</glyph>
<glyph name="acute" format="1">
  <advance width="436"/>
  <unicode hex="00B4"/>
  <outline>
    <contour>
      <point x="171" y="984" type="curve" smooth="yes"/>
      <point x="17" y="837" type="line" smooth="yes"/>
      <point x="-3" y="818"/>
      <point x="-6" y="787"/>
      <point x="10" y="765" type="curve" smooth="yes"/>
      <point x="26" y="742"/>
      <point x="55" y="735"/>
      <point x="79" y="749" type="curve" smooth="yes"/>
      <point x="261" y="853" type="line" smooth="yes"/>
      <point x="288" y="869"/>
      <point x="303" y="897"/>
      <point x="301" y="929" type="curve" smooth="yes"/>
      <point x="299" y="960"/>
      <point x="280" y="986"/>
      <point x="252" y="998" type="curve" smooth="yes"/>
      <point x="224" y="1011"/>
      <point x="193" y="1005"/>
    </contour>
  </outline>
</glyph>
<glyph name="periodcentered" format="1">
  <advance width="327"/>
  <unicode hex="00B7"/>
  <outline>
    <contour>
      <point x="191" y="513" type="line" smooth="yes"/>
      <point x="197" y="558"/>
      <point x="160" y="594"/>
      <point x="108" y="594" type="curve" smooth="yes"/>
      <point x="56" y="594"/>
      <point x="10" y="558"/>
      <point x="4" y="513" type="curve" smooth="yes"/>
      <point x="1" y="487" type="line" smooth="yes"/>
      <point x="-5" y="442"/>
      <point x="32" y="406"/>
      <point x="84" y="406" type="curve" smooth="yes"/>
      <point x="135" y="406"/>
      <point x="182" y="442"/>
      <point x="188" y="487" type="curve" smooth="yes"/>
    </contour>
  </outline>
</glyph>
<glyph name="Agrave" format="1">
  <advance width="994"/>
  <unicode hex="00C0"/>
  <outline>
    <contour>
      <point x="346" y="399" type="line"/>
      <point x="514" y="724" type="line"/>
      <point x="598" y="399" type="line"/>
    </contour>
    <contour>
      <point x="689" y="45" type="line" smooth="yes"/>
      <point x="699" y="7"/>
      <point x="745" y="-14"/>
      <point x="791" y="-1" type="curve" smooth="yes"/>
      <point x="837" y="12"/>
      <point x="866" y="53"/>
      <point x="857" y="92" type="curve" smooth="yes"/>
      <point x="636" y="947" type="line" smooth="yes"/>
      <point x="627" y="982"/>
      <point x="594" y="1005"/>
      <point x="551" y="1005" type="curve" smooth="yes"/>
      <point x="508" y="1005"/>
      <point x="469" y="982"/>
      <point x="451" y="947" type="curve" smooth="yes"/>
      <point x="8" y="92" type="line" smooth="yes"/>
      <point x="-12" y="53"/>
      <point x="7" y="12"/>
      <point x="50" y="-1" type="curve" smooth="yes"/>
      <point x="92" y="-14"/>
      <point x="143" y="7"/>
      <point x="163" y="45" type="curve" smooth="yes"/>
      <point x="265" y="241" type="line"/>
      <point x="639" y="241" type="line"/>
    </contour>
    <contour>
      <point x="361" y="1323" type="line" smooth="yes"/>
      <point x="342" y="1345"/>
      <point x="312" y="1350"/>
      <point x="282" y="1338" type="curve" smooth="yes"/>
      <point x="252" y="1326"/>
      <point x="230" y="1300"/>
      <point x="224" y="1268" type="curve" smooth="yes"/>
      <point x="218" y="1237"/>
      <point x="229" y="1209"/>
      <point x="254" y="1193" type="curve" smooth="yes"/>
      <point x="423" y="1088" type="line" smooth="yes"/>
      <point x="445" y="1075"/>
      <point x="475" y="1082"/>
      <point x="493" y="1105" type="curve" smooth="yes"/>
      <point x="512" y="1127"/>
      <point x="513" y="1158"/>
      <point x="496" y="1177" type="curve" smooth="yes"/>
    </contour>
  </outline>
</glyph>
<glyph name="Aacute" format="1">
  <advance width="994"/>
  <unicode hex="00C1"/>
  <outline>
    <contour>
      <point x="346" y="399" type="line"/>
      <point x="514" y="724" type="line"/>
      <point x="598" y="399" type="line"/>
    </contour>
    <contour>
      <point x="689" y="45" type="line" smooth="yes"/>
      <point x="696" y="20"/>
      <point x="717" y="2"/>
      <point x="747" y="-3" type="curve" smooth="yes"/>
      <point x="777" y="-9"/>
      <point x="807" y="0"/>
      <point x="830" y="20" type="curve" smooth="yes"/>
      <point x="854" y="40"/>
      <point x="863" y="66"/>
      <point x="857" y="92" type="curve" smooth="yes"/>
      <point x="636" y="947" type="line" smooth="yes"/>
      <point x="627" y="982"/>
      <point x="594" y="1005"/>
      <point x="551" y="1005" type="curve" smooth="yes"/>
      <point x="508" y="1005"/>
      <point x="469" y="982"/>
      <point x="451" y="947" type="curve" smooth="yes"/>
      <point x="8" y="92" type="line" smooth="yes"/>
      <point x="-12" y="53"/>
      <point x="7" y="12"/>
      <point x="50" y="-1" type="curve" smooth="yes"/>
      <point x="92" y="-14"/>
      <point x="143" y="7"/>
      <point x="163" y="45" type="curve" smooth="yes"/>
      <point x="265" y="241" type="line"/>
      <point x="639" y="241" type="line"/>
    </contour>
    <contour>
      <point x="656" y="1328" type="curve" smooth="yes"/>
      <point x="503" y="1182" type="line" smooth="yes"/>
      <point x="483" y="1163"/>
      <point x="480" y="1132"/>
      <point x="496" y="1109" type="curve" smooth="yes"/>
      <point x="512" y="1087"/>
      <point x="541" y="1080"/>
      <point x="564" y="1093" type="curve" smooth="yes"/>
      <point x="747" y="1198" type="line" smooth="yes"/>
      <point x="774" y="1213"/>
      <point x="789" y="1241"/>
      <point x="786" y="1273" type="curve" smooth="yes"/>
      <point x="784" y="1305"/>
      <point x="766" y="1331"/>
      <point x="738" y="1343" type="curve" smooth="yes"/>
      <point x="709" y="1355"/>
      <point x="679" y="1350"/>
    </contour>
  </outline>
</glyph>
<glyph name="Acircumflex" format="1">
  <advance width="994"/>
  <unicode hex="00C2"/>
  <outline>
    <contour>
      <point x="346" y="399" type="line"/>
      <point x="514" y="724" type="line"/>
      <point x="598" y="399" type="line"/>
    </contour>
    <contour>
      <point x="689" y="45" type="line" smooth="yes"/>
      <point x="699" y="7"/>
      <point x="745" y="-14"/>
      <point x="791" y="-1" type="curve" smooth="yes"/>
      <point x="837" y="12"/>
      <point x="866" y="53"/>
      <point x="857" y="92" type="curve" smooth="yes"/>
      <point x="636" y="947" type="line" smooth="yes"/>
      <point x="627" y="982"/>
      <point x="594" y="1005"/>
      <point x="551" y="1005" type="curve" smooth="yes"/>
      <point x="508" y="1005"/>
      <point x="469" y="982"/>
      <point x="451" y="947" type="curve" smooth="yes"/>
      <point x="8" y="92" type="line" smooth="yes"/>
      <point x="-12" y="53"/>
      <point x="7" y="12"/>
      <point x="50" y="-1" type="curve" smooth="yes"/>
      <point x="92" y="-14"/>
      <point x="143" y="7"/>
      <point x="163" y="45" type="curve" smooth="yes"/>
      <point x="265" y="241" type="line"/>
      <point x="639" y="241" type="line"/>
    </contour>
    <contour>
      <point x="222" y="1209" type="line" smooth="yes"/>
      <point x="209" y="1195"/>
      <point x="202" y="1177"/>
      <point x="202" y="1156" type="curve" smooth="yes"/>
      <point x="204" y="1113"/>
      <point x="240" y="1077"/>
      <point x="283" y="1076" type="curve" smooth="yes"/>
      <point x="305" y="1075"/>
      <point x="325" y="1084"/>
      <point x="338" y="1098" type="curve" smooth="yes"/>
      <point x="427" y="1193" type="line"/>
      <point x="516" y="1098" type="line" smooth="yes"/>
      <point x="530" y="1084"/>
      <point x="550" y="1075"/>
      <point x="572" y="1076" type="curve" smooth="yes"/>
      <point x="615" y="1077"/>
      <point x="651" y="1113"/>
      <point x="652" y="1156" type="curve" smooth="yes"/>
      <point x="653" y="1177"/>
      <point x="646" y="1195"/>
      <point x="633" y="1209" type="curve" smooth="yes"/>
      <point x="503" y="1347" type="line" smooth="yes"/>
      <point x="485" y="1366"/>
      <point x="458" y="1378"/>
      <point x="427" y="1378" type="curve" smooth="yes"/>
      <point x="397" y="1378"/>
      <point x="369" y="1366"/>
      <point x="351" y="1347" type="curve" smooth="yes"/>
    </contour>
  </outline>
</glyph>
<glyph name="Atilde" format="1">
  <advance width="994"/>
  <unicode hex="00C3"/>
  <outline>
    <contour>
      <point x="346" y="399" type="line"/>
      <point x="514" y="724" type="line"/>
      <point x="598" y="399" type="line"/>
    </contour>
    <contour>
      <point x="689" y="45" type="line" smooth="yes"/>
      <point x="699" y="7"/>
      <point x="745" y="-14"/>
      <point x="791" y="-1" type="curve" smooth="yes"/>
      <point x="837" y="12"/>
      <point x="866" y="53"/>
      <point x="857" y="92" type="curve" smooth="yes"/>
      <point x="636" y="947" type="line" smooth="yes"/>
      <point x="627" y="982"/>
      <point x="594" y="1005"/>
      <point x="551" y="1005" type="curve" smooth="yes"/>
      <point x="508" y="1005"/>
      <point x="469" y="982"/>
      <point x="451" y="947" type="curve" smooth="yes"/>
      <point x="8" y="92" type="line" smooth="yes"/>
      <point x="-12" y="53"/>
      <point x="7" y="12"/>
      <point x="50" y="-1" type="curve" smooth="yes"/>
      <point x="92" y="-14"/>
      <point x="143" y="7"/>
      <point x="163" y="45" type="curve" smooth="yes"/>
      <point x="265" y="241" type="line"/>
      <point x="639" y="241" type="line"/>
    </contour>
    <contour>
      <point x="312" y="1128" type="curve" smooth="yes"/>
      <point x="332" y="1166"/>
      <point x="380" y="1131"/>
      <point x="398" y="1121" type="curve" smooth="yes"/>
      <point x="474" y="1079"/>
      <point x="591" y="1075"/>
      <point x="641" y="1168" type="curve" smooth="yes"/>
      <point x="650" y="1184"/>
      <point x="649" y="1203"/>
      <point x="638" y="1220" type="curve" smooth="yes"/>
      <point x="627" y="1237"/>
      <point x="609" y="1246"/>
      <point x="589" y="1247" type="curve" smooth="yes"/>
      <point x="568" y="1247"/>
      <point x="552" y="1238"/>
      <point x="543" y="1222" type="curve" smooth="yes"/>
      <point x="522" y="1184"/>
      <point x="474" y="1219"/>
      <point x="457" y="1228" type="curve" smooth="yes"/>
      <point x="380" y="1270"/>
      <point x="264" y="1274"/>
      <point x="213" y="1182" type="curve" smooth="yes"/>
      <point x="199" y="1157"/>
      <point x="210" y="1125"/>
      <point x="238" y="1110" type="curve" smooth="yes"/>
      <point x="265" y="1095"/>
      <point x="298" y="1103"/>
    </contour>
  </outline>
</glyph>
<glyph name="Adieresis" format="1">
  <advance width="994"/>
  <unicode hex="00C4"/>
  <outline>
    <contour>
      <point x="346" y="399" type="line"/>
      <point x="514" y="724" type="line"/>
      <point x="598" y="399" type="line"/>
    </contour>
    <contour>
      <point x="689" y="45" type="line" smooth="yes"/>
      <point x="696" y="20"/>
      <point x="717" y="2"/>
      <point x="747" y="-3" type="curve" smooth="yes"/>
      <point x="777" y="-9"/>
      <point x="807" y="0"/>
      <point x="830" y="20" type="curve" smooth="yes"/>
      <point x="854" y="40"/>
      <point x="863" y="66"/>
      <point x="857" y="92" type="curve" smooth="yes"/>
      <point x="636" y="947" type="line" smooth="yes"/>
      <point x="627" y="982"/>
      <point x="594" y="1005"/>
      <point x="551" y="1005" type="curve" smooth="yes"/>
      <point x="508" y="1005"/>
      <point x="469" y="982"/>
      <point x="451" y="947" type="curve" smooth="yes"/>
      <point x="8" y="92" type="line" smooth="yes"/>
      <point x="-12" y="53"/>
      <point x="7" y="12"/>
      <point x="50" y="-1" type="curve" smooth="yes"/>
      <point x="92" y="-14"/>
      <point x="143" y="7"/>
      <point x="163" y="45" type="curve" smooth="yes"/>
      <point x="265" y="241" type="line"/>
      <point x="639" y="241" type="line"/>
    </contour>
    <contour>
      <point x="499" y="1164" type="line" smooth="yes"/>
      <point x="504" y="1204"/>
      <point x="470" y="1237"/>
      <point x="424" y="1237" type="curve" smooth="yes"/>
      <point x="377" y="1237"/>
      <point x="334" y="1204"/>
      <point x="329" y="1164" type="curve" smooth="yes"/>
      <point x="328" y="1153" type="line"/>
      <point x="322" y="1113"/>
      <point x="356" y="1080"/>
      <point x="403" y="1080" type="curve" smooth="yes"/>
      <point x="450" y="1080"/>
      <point x="492" y="1113"/>
      <point x="498" y="1153" type="curve"/>
    </contour>
    <contour>
      <point x="809" y="1164" type="line" smooth="yes"/>
      <point x="814" y="1204"/>
      <point x="781" y="1237"/>
      <point x="734" y="1237" type="curve" smooth="yes"/>
      <point x="687" y="1237"/>
      <point x="644" y="1204"/>
      <point x="639" y="1164" type="curve" smooth="yes"/>
      <point x="638" y="1153" type="line" smooth="yes"/>
      <point x="633" y="1113"/>
      <point x="666" y="1080"/>
      <point x="713" y="1080" type="curve" smooth="yes"/>
      <point x="760" y="1080"/>
      <point x="803" y="1113"/>
      <point x="808" y="1153" type="curve" smooth="yes"/>
    </contour>
  </outline>
</glyph>
<glyph name="Aring" format="1">
  <advance width="994"/>
  <unicode hex="00C5"/>
  <outline>
    <contour>
      <point x="346" y="399" type="line"/>
      <point x="514" y="724" type="line"/>
      <point x="598" y="399" type="line"/>
    </contour>
    <contour>
      <point x="689" y="45" type="line" smooth="yes"/>
      <point x="699" y="7"/>
      <point x="745" y="-14"/>
      <point x="791" y="-1" type="curve" smooth="yes"/>
      <point x="837" y="12"/>
      <point x="866" y="53"/>
      <point x="857" y="92" type="curve" smooth="yes"/>
      <point x="636" y="947" type="line" smooth="yes"/>
      <point x="627" y="982"/>
      <point x="594" y="1005"/>
      <point x="551" y="1005" type="curve" smooth="yes"/>
      <point x="508" y="1005"/>
      <point x="469" y="982"/>
      <point x="451" y="947" type="curve" smooth="yes"/>
      <point x="8" y="92" type="line" smooth="yes"/>
      <point x="-12" y="53"/>
      <point x="7" y="12"/>
      <point x="50" y="-1" type="curve" smooth="yes"/>
      <point x="92" y="-14"/>
      <point x="143" y="7"/>
      <point x="163" y="45" type="curve" smooth="yes"/>
      <point x="265" y="241" type="line"/>
      <point x="639" y="241" type="line"/>
    </contour>
    <contour>
      <point x="356" y="1264" type="curve" smooth="yes"/>
      <point x="356" y="1303"/>
      <point x="388" y="1334"/>
      <point x="427" y="1334" type="curve" smooth="yes"/>
      <point x="466" y="1334"/>
      <point x="498" y="1303"/>
      <point x="498" y="1264" type="curve" smooth="yes"/>
      <point x="498" y="1225"/>
      <point x="466" y="1193"/>
      <point x="427" y="1193" type="curve" smooth="yes"/>
      <point x="388" y="1193"/>
      <point x="356" y="1225"/>
    </contour>
    <contour>
      <point x="223" y="1264" type="curve" smooth="yes"/>
      <point x="223" y="1159"/>
      <point x="315" y="1075"/>
      <point x="427" y="1075" type="curve" smooth="yes"/>
      <point x="540" y="1075"/>
      <point x="631" y="1159"/>
      <point x="631" y="1264" type="curve" smooth="yes"/>
      <point x="631" y="1368"/>
      <point x="540" y="1452"/>
      <point x="427" y="1452" type="curve" smooth="yes"/>
      <point x="315" y="1452"/>
      <point x="223" y="1368"/>
    </contour>
  </outline>
</glyph>
<glyph name="Egrave" format="1">
  <advance width="873"/>
  <unicode hex="00C8"/>
  <outline>
    <contour>
      <point x="538" y="0" type="line" smooth="yes"/>
      <point x="581" y="0"/>
      <point x="621" y="35"/>
      <point x="627" y="79" type="curve" smooth="yes"/>
      <point x="633" y="122"/>
      <point x="602" y="157"/>
      <point x="558" y="157" type="curve" smooth="yes"/>
      <point x="180" y="157" type="line"/>
      <point x="216" y="431" type="line"/>
      <point x="463" y="431" type="line" smooth="yes"/>
      <point x="507" y="431"/>
      <point x="547" y="467"/>
      <point x="552" y="510" type="curve" smooth="yes"/>
      <point x="558" y="553"/>
      <point x="527" y="589"/>
      <point x="483" y="589" type="curve" smooth="yes"/>
      <point x="236" y="589" type="line"/>
      <point x="269" y="843" type="line"/>
      <point x="647" y="843" type="line" smooth="yes"/>
      <point x="691" y="843"/>
      <point x="731" y="878"/>
      <point x="737" y="921" type="curve" smooth="yes"/>
      <point x="742" y="965"/>
      <point x="711" y="1000"/>
      <point x="668" y="1000" type="curve" smooth="yes"/>
      <point x="217" y="1000" type="line" smooth="yes"/>
      <point x="163" y="1000"/>
      <point x="115" y="962"/>
      <point x="109" y="916" type="curve" smooth="yes"/>
      <point x="1" y="84" type="line" smooth="yes"/>
      <point x="-5" y="38"/>
      <point x="33" y="0"/>
      <point x="87" y="0" type="curve" smooth="yes"/>
    </contour>
    <contour>
      <point x="409" y="1323" type="line" smooth="yes"/>
      <point x="392" y="1345"/>
      <point x="364" y="1350"/>
      <point x="332" y="1338" type="curve" smooth="yes"/>
      <point x="300" y="1326"/>
      <point x="275" y="1300"/>
      <point x="265" y="1268" type="curve" smooth="yes"/>
      <point x="255" y="1237"/>
      <point x="262" y="1209"/>
      <point x="285" y="1193" type="curve" smooth="yes"/>
      <point x="440" y="1088" type="line" smooth="yes"/>
      <point x="460" y="1075"/>
      <point x="491" y="1082"/>
      <point x="513" y="1105" type="curve" smooth="yes"/>
      <point x="535" y="1127"/>
      <point x="540" y="1158"/>
      <point x="525" y="1177" type="curve" smooth="yes"/>
    </contour>
  </outline>
</glyph>
<glyph name="Eacute" format="1">
  <advance width="873"/>
  <unicode hex="00C9"/>
  <outline>
    <contour>
      <point x="538" y="0" type="line" smooth="yes"/>
      <point x="581" y="0"/>
      <point x="621" y="35"/>
      <point x="627" y="79" type="curve" smooth="yes"/>
      <point x="633" y="122"/>
      <point x="602" y="157"/>
      <point x="558" y="157" type="curve" smooth="yes"/>
      <point x="180" y="157" type="line"/>
      <point x="216" y="431" type="line"/>
      <point x="463" y="431" type="line" smooth="yes"/>
      <point x="507" y="431"/>
      <point x="547" y="467"/>
      <point x="552" y="510" type="curve" smooth="yes"/>
      <point x="558" y="553"/>
      <point x="527" y="589"/>
      <point x="483" y="589" type="curve" smooth="yes"/>
      <point x="236" y="589" type="line"/>
      <point x="269" y="843" type="line"/>
      <point x="647" y="843" type="line" smooth="yes"/>
      <point x="691" y="843"/>
      <point x="731" y="878"/>
      <point x="737" y="921" type="curve" smooth="yes"/>
      <point x="742" y="965"/>
      <point x="711" y="1000"/>
      <point x="668" y="1000" type="curve" smooth="yes"/>
      <point x="217" y="1000" type="line" smooth="yes"/>
      <point x="163" y="1000"/>
      <point x="115" y="962"/>
      <point x="109" y="916" type="curve" smooth="yes"/>
      <point x="1" y="84" type="line" smooth="yes"/>
      <point x="-5" y="38"/>
      <point x="33" y="0"/>
      <point x="87" y="0" type="curve" smooth="yes"/>
    </contour>
    <contour>
      <point x="434" y="1323" type="curve" smooth="yes"/>
      <point x="300" y="1177" type="line" smooth="yes"/>
      <point x="282" y="1158"/>
      <point x="284" y="1127"/>
      <point x="302" y="1105" type="curve" smooth="yes"/>
      <point x="321" y="1082"/>
      <point x="351" y="1075"/>
      <point x="373" y="1088" type="curve" smooth="yes"/>
      <point x="542" y="1193" type="line" smooth="yes"/>
      <point x="567" y="1209"/>
      <point x="578" y="1237"/>
      <point x="572" y="1268" type="curve" smooth="yes"/>
      <point x="565" y="1300"/>
      <point x="544" y="1326"/>
      <point x="514" y="1338" type="curve" smooth="yes"/>
      <point x="484" y="1350"/>
      <point x="454" y="1345"/>
    </contour>
  </outline>
</glyph>
<glyph name="Ecircumflex" format="1">
  <advance width="873"/>
  <unicode hex="00CA"/>
  <outline>
    <contour>
      <point x="538" y="0" type="line" smooth="yes"/>
      <point x="581" y="0"/>
      <point x="621" y="35"/>
      <point x="627" y="79" type="curve" smooth="yes"/>
      <point x="633" y="122"/>
      <point x="602" y="157"/>
      <point x="558" y="157" type="curve" smooth="yes"/>
      <point x="180" y="157" type="line"/>
      <point x="216" y="431" type="line"/>
      <point x="463" y="431" type="line" smooth="yes"/>
      <point x="507" y="431"/>
      <point x="547" y="467"/>
      <point x="552" y="510" type="curve" smooth="yes"/>
      <point x="558" y="553"/>
      <point x="527" y="589"/>
      <point x="483" y="589" type="curve" smooth="yes"/>
      <point x="236" y="589" type="line"/>
      <point x="269" y="843" type="line"/>
      <point x="647" y="843" type="line" smooth="yes"/>
      <point x="691" y="843"/>
      <point x="731" y="878"/>
      <point x="737" y="921" type="curve" smooth="yes"/>
      <point x="742" y="965"/>
      <point x="711" y="1000"/>
      <point x="668" y="1000" type="curve" smooth="yes"/>
      <point x="217" y="1000" type="line" smooth="yes"/>
      <point x="163" y="1000"/>
      <point x="115" y="962"/>
      <point x="109" y="916" type="curve" smooth="yes"/>
      <point x="1" y="84" type="line" smooth="yes"/>
      <point x="-5" y="38"/>
      <point x="33" y="0"/>
      <point x="87" y="0" type="curve" smooth="yes"/>
    </contour>
    <contour>
      <point x="255" y="1209" type="line" smooth="yes"/>
      <point x="240" y="1195"/>
      <point x="231" y="1177"/>
      <point x="229" y="1156" type="curve" smooth="yes"/>
      <point x="225" y="1113"/>
      <point x="256" y="1077"/>
      <point x="299" y="1076" type="curve" smooth="yes"/>
      <point x="321" y="1075"/>
      <point x="342" y="1084"/>
      <point x="357" y="1098" type="curve" smooth="yes"/>
      <point x="458" y="1193" type="line"/>
      <point x="535" y="1098" type="line" smooth="yes"/>
      <point x="547" y="1084"/>
      <point x="565" y="1075"/>
      <point x="588" y="1076" type="curve" smooth="yes"/>
      <point x="631" y="1077"/>
      <point x="671" y="1113"/>
      <point x="679" y="1156" type="curve" smooth="yes"/>
      <point x="682" y="1177"/>
      <point x="677" y="1195"/>
      <point x="666" y="1209" type="curve" smooth="yes"/>
      <point x="554" y="1347" type="line" smooth="yes"/>
      <point x="539" y="1366"/>
      <point x="513" y="1378"/>
      <point x="482" y="1378" type="curve" smooth="yes"/>
      <point x="452" y="1378"/>
      <point x="423" y="1366"/>
      <point x="402" y="1347" type="curve" smooth="yes"/>
    </contour>
  </outline>
</glyph>
